<?xml version="1.0" encoding="UTF-8" standalone="no" ?>
<!DOCTYPE svg PUBLIC "-//W3C//DTD SVG 1.1//EN" "http://www.w3.org/Graphics/SVG/1.1/DTD/svg11.dtd">
<svg xmlns="http://www.w3.org/2000/svg" xmlns:xlink="http://www.w3.org/1999/xlink" version="1.1" width="1080" height="1080" viewBox="0 0 1080 1080" xml:space="preserve">
<desc>Created with Fabric.js 5.2.4</desc>
<defs>
</defs>
<g transform="matrix(1 0 0 1 540 540)" id="d1a7c386-9437-4a29-a7c4-bbc43ca955e6"  >
<rect style="stroke: none; stroke-width: 1; stroke-dasharray: none; stroke-linecap: butt; stroke-dashoffset: 0; stroke-linejoin: miter; stroke-miterlimit: 4; fill: rgb(255,255,255); fill-rule: nonzero; opacity: 1; visibility: hidden;" vector-effect="non-scaling-stroke"  x="-540" y="-540" rx="0" ry="0" width="1080" height="1080" />
</g>
<g transform="matrix(1 0 0 1 540 540)" id="3c0030ea-c0b5-49cc-9611-0e63c24a91b7"  >
</g>
<g transform="matrix(6.55 0 0 6.55 540 540)"  >
<g style=""   >
		<g transform="matrix(1 0 0 1 -32.5 -32.5)"  >
<rect style="stroke: none; stroke-width: 1; stroke-dasharray: none; stroke-linecap: butt; stroke-dashoffset: 0; stroke-linejoin: miter; stroke-miterlimit: 4; fill: rgb(255,255,255); fill-rule: nonzero; opacity: 1;" vector-effect="non-scaling-stroke"  x="-50" y="-50" rx="0" ry="0" width="100" height="100" />
</g>
		<g transform="matrix(1 0 0 1 0 0)"  >
<path style="stroke: rgb(255,255,255); stroke-opacity: 0; stroke-width: 1; stroke-dasharray: none; stroke-linecap: butt; stroke-dashoffset: 0; stroke-linejoin: miter; stroke-miterlimit: 4; fill: rgb(0,0,0); fill-rule: nonzero; opacity: 1;" vector-effect="non-scaling-stroke"  transform=" translate(-82.5, -82.5)" d="M 0 0 L 5 0 L 5 5 L 0 5 L 0 0 z M 5 0 L 10 0 L 10 5 L 5 5 L 5 0 z M 10 0 L 15 0 L 15 5 L 10 5 L 10 0 z M 15 0 L 20 0 L 20 5 L 15 5 L 15 0 z M 20 0 L 25 0 L 25 5 L 20 5 L 20 0 z M 25 0 L 30 0 L 30 5 L 25 5 L 25 0 z M 30 0 L 35 0 L 35 5 L 30 5 L 30 0 z M 40 0 L 45 0 L 45 5 L 40 5 L 40 0 z M 65 0 L 70 0 L 70 5 L 65 5 L 65 0 z M 70 0 L 75 0 L 75 5 L 70 5 L 70 0 z M 80 0 L 85 0 L 85 5 L 80 5 L 80 0 z M 90 0 L 95 0 L 95 5 L 90 5 L 90 0 z M 95 0 L 100 0 L 100 5 L 95 5 L 95 0 z M 105 0 L 110 0 L 110 5 L 105 5 L 105 0 z M 115 0 L 120 0 L 120 5 L 115 5 L 115 0 z M 130 0 L 135 0 L 135 5 L 130 5 L 130 0 z M 135 0 L 140 0 L 140 5 L 135 5 L 135 0 z M 140 0 L 145 0 L 145 5 L 140 5 L 140 0 z M 145 0 L 150 0 L 150 5 L 145 5 L 145 0 z M 150 0 L 155 0 L 155 5 L 150 5 L 150 0 z M 155 0 L 160 0 L 160 5 L 155 5 L 155 0 z M 160 0 L 165 0 L 165 5 L 160 5 L 160 0 z M 0 5 L 5 5 L 5 10 L 0 10 L 0 5 z M 30 5 L 35 5 L 35 10 L 30 10 L 30 5 z M 40 5 L 45 5 L 45 10 L 40 10 L 40 5 z M 55 5 L 60 5 L 60 10 L 55 10 L 55 5 z M 60 5 L 65 5 L 65 10 L 60 10 L 60 5 z M 65 5 L 70 5 L 70 10 L 65 10 L 65 5 z M 70 5 L 75 5 L 75 10 L 70 10 L 70 5 z M 75 5 L 80 5 L 80 10 L 75 10 L 75 5 z M 90 5 L 95 5 L 95 10 L 90 10 L 90 5 z M 100 5 L 105 5 L 105 10 L 100 10 L 100 5 z M 130 5 L 135 5 L 135 10 L 130 10 L 130 5 z M 160 5 L 165 5 L 165 10 L 160 10 L 160 5 z M 0 10 L 5 10 L 5 15 L 0 15 L 0 10 z M 10 10 L 15 10 L 15 15 L 10 15 L 10 10 z M 15 10 L 20 10 L 20 15 L 15 15 L 15 10 z M 20 10 L 25 10 L 25 15 L 20 15 L 20 10 z M 30 10 L 35 10 L 35 15 L 30 15 L 30 10 z M 40 10 L 45 10 L 45 15 L 40 15 L 40 10 z M 45 10 L 50 10 L 50 15 L 45 15 L 45 10 z M 60 10 L 65 10 L 65 15 L 60 15 L 60 10 z M 70 10 L 75 10 L 75 15 L 70 15 L 70 10 z M 85 10 L 90 10 L 90 15 L 85 15 L 85 10 z M 90 10 L 95 10 L 95 15 L 90 15 L 90 10 z M 95 10 L 100 10 L 100 15 L 95 15 L 95 10 z M 100 10 L 105 10 L 105 15 L 100 15 L 100 10 z M 105 10 L 110 10 L 110 15 L 105 15 L 105 10 z M 115 10 L 120 10 L 120 15 L 115 15 L 115 10 z M 130 10 L 135 10 L 135 15 L 130 15 L 130 10 z M 140 10 L 145 10 L 145 15 L 140 15 L 140 10 z M 145 10 L 150 10 L 150 15 L 145 15 L 145 10 z M 150 10 L 155 10 L 155 15 L 150 15 L 150 10 z M 160 10 L 165 10 L 165 15 L 160 15 L 160 10 z M 0 15 L 5 15 L 5 20 L 0 20 L 0 15 z M 10 15 L 15 15 L 15 20 L 10 20 L 10 15 z M 15 15 L 20 15 L 20 20 L 15 20 L 15 15 z M 20 15 L 25 15 L 25 20 L 20 20 L 20 15 z M 30 15 L 35 15 L 35 20 L 30 20 L 30 15 z M 40 15 L 45 15 L 45 20 L 40 20 L 40 15 z M 45 15 L 50 15 L 50 20 L 45 20 L 45 15 z M 50 15 L 55 15 L 55 20 L 50 20 L 50 15 z M 60 15 L 65 15 L 65 20 L 60 20 L 60 15 z M 85 15 L 90 15 L 90 20 L 85 20 L 85 15 z M 95 15 L 100 15 L 100 20 L 95 20 L 95 15 z M 100 15 L 105 15 L 105 20 L 100 20 L 100 15 z M 115 15 L 120 15 L 120 20 L 115 20 L 115 15 z M 120 15 L 125 15 L 125 20 L 120 20 L 120 15 z M 130 15 L 135 15 L 135 20 L 130 20 L 130 15 z M 140 15 L 145 15 L 145 20 L 140 20 L 140 15 z M 145 15 L 150 15 L 150 20 L 145 20 L 145 15 z M 150 15 L 155 15 L 155 20 L 150 20 L 150 15 z M 160 15 L 165 15 L 165 20 L 160 20 L 160 15 z M 0 20 L 5 20 L 5 25 L 0 25 L 0 20 z M 10 20 L 15 20 L 15 25 L 10 25 L 10 20 z M 15 20 L 20 20 L 20 25 L 15 25 L 15 20 z M 20 20 L 25 20 L 25 25 L 20 25 L 20 20 z M 30 20 L 35 20 L 35 25 L 30 25 L 30 20 z M 45 20 L 50 20 L 50 25 L 45 25 L 45 20 z M 50 20 L 55 20 L 55 25 L 50 25 L 50 20 z M 60 20 L 65 20 L 65 25 L 60 25 L 60 20 z M 85 20 L 90 20 L 90 25 L 85 25 L 85 20 z M 95 20 L 100 20 L 100 25 L 95 25 L 95 20 z M 100 20 L 105 20 L 105 25 L 100 25 L 100 20 z M 115 20 L 120 20 L 120 25 L 115 25 L 115 20 z M 120 20 L 125 20 L 125 25 L 120 25 L 120 20 z M 130 20 L 135 20 L 135 25 L 130 25 L 130 20 z M 140 20 L 145 20 L 145 25 L 140 25 L 140 20 z M 145 20 L 150 20 L 150 25 L 145 25 L 145 20 z M 150 20 L 155 20 L 155 25 L 150 25 L 150 20 z M 160 20 L 165 20 L 165 25 L 160 25 L 160 20 z M 0 25 L 5 25 L 5 30 L 0 30 L 0 25 z M 30 25 L 35 25 L 35 30 L 30 30 L 30 25 z M 40 25 L 45 25 L 45 30 L 40 30 L 40 25 z M 45 25 L 50 25 L 50 30 L 45 30 L 45 25 z M 50 25 L 55 25 L 55 30 L 50 30 L 50 25 z M 80 25 L 85 25 L 85 30 L 80 30 L 80 25 z M 85 25 L 90 25 L 90 30 L 85 30 L 85 25 z M 95 25 L 100 25 L 100 30 L 95 30 L 95 25 z M 105 25 L 110 25 L 110 30 L 105 30 L 105 25 z M 110 25 L 115 25 L 115 30 L 110 30 L 110 25 z M 120 25 L 125 25 L 125 30 L 120 30 L 120 25 z M 130 25 L 135 25 L 135 30 L 130 30 L 130 25 z M 160 25 L 165 25 L 165 30 L 160 30 L 160 25 z M 0 30 L 5 30 L 5 35 L 0 35 L 0 30 z M 5 30 L 10 30 L 10 35 L 5 35 L 5 30 z M 10 30 L 15 30 L 15 35 L 10 35 L 10 30 z M 15 30 L 20 30 L 20 35 L 15 35 L 15 30 z M 20 30 L 25 30 L 25 35 L 20 35 L 20 30 z M 25 30 L 30 30 L 30 35 L 25 35 L 25 30 z M 30 30 L 35 30 L 35 35 L 30 35 L 30 30 z M 40 30 L 45 30 L 45 35 L 40 35 L 40 30 z M 50 30 L 55 30 L 55 35 L 50 35 L 50 30 z M 60 30 L 65 30 L 65 35 L 60 35 L 60 30 z M 70 30 L 75 30 L 75 35 L 70 35 L 70 30 z M 80 30 L 85 30 L 85 35 L 80 35 L 80 30 z M 90 30 L 95 30 L 95 35 L 90 35 L 90 30 z M 100 30 L 105 30 L 105 35 L 100 35 L 100 30 z M 110 30 L 115 30 L 115 35 L 110 35 L 110 30 z M 120 30 L 125 30 L 125 35 L 120 35 L 120 30 z M 130 30 L 135 30 L 135 35 L 130 35 L 130 30 z M 135 30 L 140 30 L 140 35 L 135 35 L 135 30 z M 140 30 L 145 30 L 145 35 L 140 35 L 140 30 z M 145 30 L 150 30 L 150 35 L 145 35 L 145 30 z M 150 30 L 155 30 L 155 35 L 150 35 L 150 30 z M 155 30 L 160 30 L 160 35 L 155 35 L 155 30 z M 160 30 L 165 30 L 165 35 L 160 35 L 160 30 z M 50 35 L 55 35 L 55 40 L 50 40 L 50 35 z M 55 35 L 60 35 L 60 40 L 55 40 L 55 35 z M 65 35 L 70 35 L 70 40 L 65 40 L 65 35 z M 75 35 L 80 35 L 80 40 L 75 40 L 75 35 z M 80 35 L 85 35 L 85 40 L 80 40 L 80 35 z M 105 35 L 110 35 L 110 40 L 105 40 L 105 35 z M 110 35 L 115 35 L 115 40 L 110 40 L 110 35 z M 120 35 L 125 35 L 125 40 L 120 40 L 120 35 z M 0 40 L 5 40 L 5 45 L 0 45 L 0 40 z M 5 40 L 10 40 L 10 45 L 5 45 L 5 40 z M 20 40 L 25 40 L 25 45 L 20 45 L 20 40 z M 25 40 L 30 40 L 30 45 L 25 45 L 25 40 z M 30 40 L 35 40 L 35 45 L 30 45 L 30 40 z M 50 40 L 55 40 L 55 45 L 50 45 L 50 40 z M 60 40 L 65 40 L 65 45 L 60 45 L 60 40 z M 65 40 L 70 40 L 70 45 L 65 45 L 65 40 z M 95 40 L 100 40 L 100 45 L 95 45 L 95 40 z M 100 40 L 105 40 L 105 45 L 100 45 L 100 40 z M 105 40 L 110 40 L 110 45 L 105 45 L 105 40 z M 110 40 L 115 40 L 115 45 L 110 45 L 110 40 z M 115 40 L 120 40 L 120 45 L 115 45 L 115 40 z M 120 40 L 125 40 L 125 45 L 120 45 L 120 40 z M 135 40 L 140 40 L 140 45 L 135 45 L 135 40 z M 145 40 L 150 40 L 150 45 L 145 45 L 145 40 z M 150 40 L 155 40 L 155 45 L 150 45 L 150 40 z M 155 40 L 160 40 L 160 45 L 155 45 L 155 40 z M 160 40 L 165 40 L 165 45 L 160 45 L 160 40 z M 5 45 L 10 45 L 10 50 L 5 50 L 5 45 z M 15 45 L 20 45 L 20 50 L 15 50 L 15 45 z M 20 45 L 25 45 L 25 50 L 20 50 L 20 45 z M 25 45 L 30 45 L 30 50 L 25 50 L 25 45 z M 40 45 L 45 45 L 45 50 L 40 50 L 40 45 z M 65 45 L 70 45 L 70 50 L 65 50 L 65 45 z M 70 45 L 75 45 L 75 50 L 70 50 L 70 45 z M 80 45 L 85 45 L 85 50 L 80 50 L 80 45 z M 90 45 L 95 45 L 95 50 L 90 50 L 90 45 z M 95 45 L 100 45 L 100 50 L 95 50 L 95 45 z M 115 45 L 120 45 L 120 50 L 115 50 L 115 45 z M 125 45 L 130 45 L 130 50 L 125 50 L 125 45 z M 135 45 L 140 45 L 140 50 L 135 50 L 135 45 z M 150 45 L 155 45 L 155 50 L 150 50 L 150 45 z M 0 50 L 5 50 L 5 55 L 0 55 L 0 50 z M 10 50 L 15 50 L 15 55 L 10 55 L 10 50 z M 20 50 L 25 50 L 25 55 L 20 55 L 20 50 z M 25 50 L 30 50 L 30 55 L 25 55 L 25 50 z M 30 50 L 35 50 L 35 55 L 30 55 L 30 50 z M 40 50 L 45 50 L 45 55 L 40 55 L 40 50 z M 45 50 L 50 50 L 50 55 L 45 55 L 45 50 z M 50 50 L 55 50 L 55 55 L 50 55 L 50 50 z M 80 50 L 85 50 L 85 55 L 80 55 L 80 50 z M 85 50 L 90 50 L 90 55 L 85 55 L 85 50 z M 95 50 L 100 50 L 100 55 L 95 55 L 95 50 z M 115 50 L 120 50 L 120 55 L 115 55 L 115 50 z M 125 50 L 130 50 L 130 55 L 125 55 L 125 50 z M 130 50 L 135 50 L 135 55 L 130 55 L 130 50 z M 135 50 L 140 50 L 140 55 L 135 55 L 135 50 z M 150 50 L 155 50 L 155 55 L 150 55 L 150 50 z M 155 50 L 160 50 L 160 55 L 155 55 L 155 50 z M 15 55 L 20 55 L 20 60 L 15 60 L 15 55 z M 45 55 L 50 55 L 50 60 L 45 60 L 45 55 z M 60 55 L 65 55 L 65 60 L 60 60 L 60 55 z M 70 55 L 75 55 L 75 60 L 70 60 L 70 55 z M 85 55 L 90 55 L 90 60 L 85 60 L 85 55 z M 90 55 L 95 55 L 95 60 L 90 60 L 90 55 z M 95 55 L 100 55 L 100 60 L 95 60 L 95 55 z M 100 55 L 105 55 L 105 60 L 100 60 L 100 55 z M 105 55 L 110 55 L 110 60 L 105 60 L 105 55 z M 110 55 L 115 55 L 115 60 L 110 60 L 110 55 z M 125 55 L 130 55 L 130 60 L 125 60 L 125 55 z M 130 55 L 135 55 L 135 60 L 130 60 L 130 55 z M 135 55 L 140 55 L 140 60 L 135 60 L 135 55 z M 140 55 L 145 55 L 145 60 L 140 60 L 140 55 z M 145 55 L 150 55 L 150 60 L 145 60 L 145 55 z M 15 60 L 20 60 L 20 65 L 15 65 L 15 60 z M 20 60 L 25 60 L 25 65 L 20 65 L 20 60 z M 25 60 L 30 60 L 30 65 L 25 65 L 25 60 z M 30 60 L 35 60 L 35 65 L 30 65 L 30 60 z M 55 60 L 60 60 L 60 65 L 55 65 L 55 60 z M 65 60 L 70 60 L 70 65 L 65 65 L 65 60 z M 70 60 L 75 60 L 75 65 L 70 65 L 70 60 z M 75 60 L 80 60 L 80 65 L 75 65 L 75 60 z M 80 60 L 85 60 L 85 65 L 80 65 L 80 60 z M 90 60 L 95 60 L 95 65 L 90 65 L 90 60 z M 105 60 L 110 60 L 110 65 L 105 65 L 105 60 z M 110 60 L 115 60 L 115 65 L 110 65 L 110 60 z M 130 60 L 135 60 L 135 65 L 130 65 L 130 60 z M 140 60 L 145 60 L 145 65 L 140 65 L 140 60 z M 145 60 L 150 60 L 150 65 L 145 65 L 145 60 z M 155 60 L 160 60 L 160 65 L 155 65 L 155 60 z M 160 60 L 165 60 L 165 65 L 160 65 L 160 60 z M 0 65 L 5 65 L 5 70 L 0 70 L 0 65 z M 5 65 L 10 65 L 10 70 L 5 70 L 5 65 z M 10 65 L 15 65 L 15 70 L 10 70 L 10 65 z M 25 65 L 30 65 L 30 70 L 25 70 L 25 65 z M 50 65 L 55 65 L 55 70 L 50 70 L 50 65 z M 60 65 L 65 65 L 65 70 L 60 70 L 60 65 z M 85 65 L 90 65 L 90 70 L 85 70 L 85 65 z M 95 65 L 100 65 L 100 70 L 95 70 L 95 65 z M 100 65 L 105 65 L 105 70 L 100 70 L 100 65 z M 105 65 L 110 65 L 110 70 L 105 70 L 105 65 z M 115 65 L 120 65 L 120 70 L 115 70 L 115 65 z M 120 65 L 125 65 L 125 70 L 120 70 L 120 65 z M 125 65 L 130 65 L 130 70 L 125 70 L 125 65 z M 135 65 L 140 65 L 140 70 L 135 70 L 135 65 z M 15 70 L 20 70 L 20 75 L 15 75 L 15 70 z M 20 70 L 25 70 L 25 75 L 20 75 L 20 70 z M 25 70 L 30 70 L 30 75 L 25 75 L 25 70 z M 30 70 L 35 70 L 35 75 L 30 75 L 30 70 z M 45 70 L 50 70 L 50 75 L 45 75 L 45 70 z M 50 70 L 55 70 L 55 75 L 50 75 L 50 70 z M 55 70 L 60 70 L 60 75 L 55 75 L 55 70 z M 60 70 L 65 70 L 65 75 L 60 75 L 60 70 z M 65 70 L 70 70 L 70 75 L 65 75 L 65 70 z M 70 70 L 75 70 L 75 75 L 70 75 L 70 70 z M 75 70 L 80 70 L 80 75 L 75 75 L 75 70 z M 90 70 L 95 70 L 95 75 L 90 75 L 90 70 z M 100 70 L 105 70 L 105 75 L 100 75 L 100 70 z M 110 70 L 115 70 L 115 75 L 110 75 L 110 70 z M 115 70 L 120 70 L 120 75 L 115 75 L 115 70 z M 120 70 L 125 70 L 125 75 L 120 75 L 120 70 z M 125 70 L 130 70 L 130 75 L 125 75 L 125 70 z M 135 70 L 140 70 L 140 75 L 135 75 L 135 70 z M 145 70 L 150 70 L 150 75 L 145 75 L 145 70 z M 150 70 L 155 70 L 155 75 L 150 75 L 150 70 z M 155 70 L 160 70 L 160 75 L 155 75 L 155 70 z M 0 75 L 5 75 L 5 80 L 0 80 L 0 75 z M 5 75 L 10 75 L 10 80 L 5 80 L 5 75 z M 10 75 L 15 75 L 15 80 L 10 80 L 10 75 z M 20 75 L 25 75 L 25 80 L 20 80 L 20 75 z M 25 75 L 30 75 L 30 80 L 25 80 L 25 75 z M 35 75 L 40 75 L 40 80 L 35 80 L 35 75 z M 50 75 L 55 75 L 55 80 L 50 80 L 50 75 z M 55 75 L 60 75 L 60 80 L 55 80 L 55 75 z M 65 75 L 70 75 L 70 80 L 65 80 L 65 75 z M 75 75 L 80 75 L 80 80 L 75 80 L 75 75 z M 80 75 L 85 75 L 85 80 L 80 80 L 80 75 z M 105 75 L 110 75 L 110 80 L 105 80 L 105 75 z M 125 75 L 130 75 L 130 80 L 125 80 L 125 75 z M 130 75 L 135 75 L 135 80 L 130 80 L 130 75 z M 145 75 L 150 75 L 150 80 L 145 80 L 145 75 z M 0 80 L 5 80 L 5 85 L 0 85 L 0 80 z M 5 80 L 10 80 L 10 85 L 5 85 L 5 80 z M 25 80 L 30 80 L 30 85 L 25 85 L 25 80 z M 30 80 L 35 80 L 35 85 L 30 85 L 30 80 z M 35 80 L 40 80 L 40 85 L 35 85 L 35 80 z M 60 80 L 65 80 L 65 85 L 60 85 L 60 80 z M 65 80 L 70 80 L 70 85 L 65 85 L 65 80 z M 95 80 L 100 80 L 100 85 L 95 85 L 95 80 z M 100 80 L 105 80 L 105 85 L 100 85 L 100 80 z M 110 80 L 115 80 L 115 85 L 110 85 L 110 80 z M 115 80 L 120 80 L 120 85 L 115 85 L 115 80 z M 120 80 L 125 80 L 125 85 L 120 85 L 120 80 z M 125 80 L 130 80 L 130 85 L 125 85 L 125 80 z M 130 80 L 135 80 L 135 85 L 130 85 L 130 80 z M 140 80 L 145 80 L 145 85 L 140 85 L 140 80 z M 160 80 L 165 80 L 165 85 L 160 85 L 160 80 z M 0 85 L 5 85 L 5 90 L 0 90 L 0 85 z M 5 85 L 10 85 L 10 90 L 5 90 L 5 85 z M 35 85 L 40 85 L 40 90 L 35 90 L 35 85 z M 40 85 L 45 85 L 45 90 L 40 90 L 40 85 z M 50 85 L 55 85 L 55 90 L 50 90 L 50 85 z M 65 85 L 70 85 L 70 90 L 65 90 L 65 85 z M 70 85 L 75 85 L 75 90 L 70 90 L 70 85 z M 80 85 L 85 85 L 85 90 L 80 90 L 80 85 z M 90 85 L 95 85 L 95 90 L 90 90 L 90 85 z M 95 85 L 100 85 L 100 90 L 95 90 L 95 85 z M 105 85 L 110 85 L 110 90 L 105 90 L 105 85 z M 125 85 L 130 85 L 130 90 L 125 90 L 125 85 z M 145 85 L 150 85 L 150 90 L 145 90 L 145 85 z M 15 90 L 20 90 L 20 95 L 15 95 L 15 90 z M 25 90 L 30 90 L 30 95 L 25 95 L 25 90 z M 30 90 L 35 90 L 35 95 L 30 95 L 30 90 z M 35 90 L 40 90 L 40 95 L 35 95 L 35 90 z M 80 90 L 85 90 L 85 95 L 80 95 L 80 90 z M 85 90 L 90 90 L 90 95 L 85 95 L 85 90 z M 95 90 L 100 90 L 100 95 L 95 95 L 95 90 z M 105 90 L 110 90 L 110 95 L 105 95 L 105 90 z M 115 90 L 120 90 L 120 95 L 115 95 L 115 90 z M 120 90 L 125 90 L 125 95 L 120 95 L 120 90 z M 125 90 L 130 90 L 130 95 L 125 95 L 125 90 z M 130 90 L 135 90 L 135 95 L 130 95 L 130 90 z M 150 90 L 155 90 L 155 95 L 150 95 L 150 90 z M 155 90 L 160 90 L 160 95 L 155 95 L 155 90 z M 5 95 L 10 95 L 10 100 L 5 100 L 5 95 z M 15 95 L 20 95 L 20 100 L 15 100 L 15 95 z M 25 95 L 30 95 L 30 100 L 25 100 L 25 95 z M 45 95 L 50 95 L 50 100 L 45 100 L 45 95 z M 50 95 L 55 95 L 55 100 L 50 100 L 50 95 z M 60 95 L 65 95 L 65 100 L 60 100 L 60 95 z M 70 95 L 75 95 L 75 100 L 70 100 L 70 95 z M 85 95 L 90 95 L 90 100 L 85 100 L 85 95 z M 90 95 L 95 95 L 95 100 L 90 100 L 90 95 z M 95 95 L 100 95 L 100 100 L 95 100 L 95 95 z M 100 95 L 105 95 L 105 100 L 100 100 L 100 95 z M 105 95 L 110 95 L 110 100 L 105 100 L 105 95 z M 110 95 L 115 95 L 115 100 L 110 100 L 110 95 z M 115 95 L 120 95 L 120 100 L 115 100 L 115 95 z M 120 95 L 125 95 L 125 100 L 120 100 L 120 95 z M 130 95 L 135 95 L 135 100 L 130 100 L 130 95 z M 135 95 L 140 95 L 140 100 L 135 100 L 135 95 z M 145 95 L 150 95 L 150 100 L 145 100 L 145 95 z M 5 100 L 10 100 L 10 105 L 5 105 L 5 100 z M 15 100 L 20 100 L 20 105 L 15 105 L 15 100 z M 25 100 L 30 100 L 30 105 L 25 105 L 25 100 z M 30 100 L 35 100 L 35 105 L 30 105 L 30 100 z M 35 100 L 40 100 L 40 105 L 35 105 L 35 100 z M 50 100 L 55 100 L 55 105 L 50 105 L 50 100 z M 55 100 L 60 100 L 60 105 L 55 105 L 55 100 z M 65 100 L 70 100 L 70 105 L 65 105 L 65 100 z M 70 100 L 75 100 L 75 105 L 70 105 L 70 100 z M 75 100 L 80 100 L 80 105 L 75 105 L 75 100 z M 80 100 L 85 100 L 85 105 L 80 105 L 80 100 z M 90 100 L 95 100 L 95 105 L 90 105 L 90 100 z M 100 100 L 105 100 L 105 105 L 100 105 L 100 100 z M 110 100 L 115 100 L 115 105 L 110 105 L 110 100 z M 130 100 L 135 100 L 135 105 L 130 105 L 130 100 z M 140 100 L 145 100 L 145 105 L 140 105 L 140 100 z M 160 100 L 165 100 L 165 105 L 160 105 L 160 100 z M 0 105 L 5 105 L 5 110 L 0 110 L 0 105 z M 5 105 L 10 105 L 10 110 L 5 110 L 5 105 z M 20 105 L 25 105 L 25 110 L 20 110 L 20 105 z M 25 105 L 30 105 L 30 110 L 25 110 L 25 105 z M 35 105 L 40 105 L 40 110 L 35 110 L 35 105 z M 40 105 L 45 105 L 45 110 L 40 110 L 40 105 z M 60 105 L 65 105 L 65 110 L 60 110 L 60 105 z M 85 105 L 90 105 L 90 110 L 85 110 L 85 105 z M 95 105 L 100 105 L 100 110 L 95 110 L 95 105 z M 100 105 L 105 105 L 105 110 L 100 110 L 100 105 z M 110 105 L 115 105 L 115 110 L 110 110 L 110 105 z M 115 105 L 120 105 L 120 110 L 115 110 L 115 105 z M 125 105 L 130 105 L 130 110 L 125 110 L 125 105 z M 135 105 L 140 105 L 140 110 L 135 110 L 135 105 z M 145 105 L 150 105 L 150 110 L 145 110 L 145 105 z M 30 110 L 35 110 L 35 115 L 30 115 L 30 110 z M 35 110 L 40 110 L 40 115 L 35 115 L 35 110 z M 50 110 L 55 110 L 55 115 L 50 115 L 50 110 z M 55 110 L 60 110 L 60 115 L 55 115 L 55 110 z M 60 110 L 65 110 L 65 115 L 60 115 L 60 110 z M 65 110 L 70 110 L 70 115 L 65 115 L 65 110 z M 70 110 L 75 110 L 75 115 L 70 115 L 70 110 z M 75 110 L 80 110 L 80 115 L 75 115 L 75 110 z M 90 110 L 95 110 L 95 115 L 90 115 L 90 110 z M 100 110 L 105 110 L 105 115 L 100 115 L 100 110 z M 115 110 L 120 110 L 120 115 L 115 115 L 115 110 z M 120 110 L 125 110 L 125 115 L 120 115 L 120 110 z M 125 110 L 130 110 L 130 115 L 125 115 L 125 110 z M 135 110 L 140 110 L 140 115 L 135 115 L 135 110 z M 150 110 L 155 110 L 155 115 L 150 115 L 150 110 z M 155 110 L 160 110 L 160 115 L 155 115 L 155 110 z M 25 115 L 30 115 L 30 120 L 25 120 L 25 115 z M 40 115 L 45 115 L 45 120 L 40 120 L 40 115 z M 45 115 L 50 115 L 50 120 L 45 120 L 45 115 z M 55 115 L 60 115 L 60 120 L 55 120 L 55 115 z M 65 115 L 70 115 L 70 120 L 65 120 L 65 115 z M 75 115 L 80 115 L 80 120 L 75 120 L 75 115 z M 80 115 L 85 115 L 85 120 L 80 120 L 80 115 z M 105 115 L 110 115 L 110 120 L 105 120 L 105 115 z M 120 115 L 125 115 L 125 120 L 120 120 L 120 115 z M 125 115 L 130 115 L 130 120 L 125 120 L 125 115 z M 130 115 L 135 115 L 135 120 L 130 120 L 130 115 z M 0 120 L 5 120 L 5 125 L 0 125 L 0 120 z M 5 120 L 10 120 L 10 125 L 5 125 L 5 120 z M 10 120 L 15 120 L 15 125 L 10 125 L 10 120 z M 15 120 L 20 120 L 20 125 L 15 125 L 15 120 z M 30 120 L 35 120 L 35 125 L 30 125 L 30 120 z M 35 120 L 40 120 L 40 125 L 35 125 L 35 120 z M 60 120 L 65 120 L 65 125 L 60 125 L 60 120 z M 65 120 L 70 120 L 70 125 L 65 125 L 65 120 z M 110 120 L 115 120 L 115 125 L 110 125 L 110 120 z M 120 120 L 125 120 L 125 125 L 120 125 L 120 120 z M 125 120 L 130 120 L 130 125 L 125 125 L 125 120 z M 130 120 L 135 120 L 135 125 L 130 125 L 130 120 z M 135 120 L 140 120 L 140 125 L 135 125 L 135 120 z M 140 120 L 145 120 L 145 125 L 140 125 L 140 120 z M 155 120 L 160 120 L 160 125 L 155 125 L 155 120 z M 40 125 L 45 125 L 45 130 L 40 130 L 40 125 z M 50 125 L 55 125 L 55 130 L 50 130 L 50 125 z M 65 125 L 70 125 L 70 130 L 65 130 L 65 125 z M 70 125 L 75 125 L 75 130 L 70 130 L 70 125 z M 80 125 L 85 125 L 85 130 L 80 130 L 80 125 z M 90 125 L 95 125 L 95 130 L 90 130 L 90 125 z M 100 125 L 105 125 L 105 130 L 100 130 L 100 125 z M 105 125 L 110 125 L 110 130 L 105 130 L 105 125 z M 115 125 L 120 125 L 120 130 L 115 130 L 115 125 z M 120 125 L 125 125 L 125 130 L 120 130 L 120 125 z M 140 125 L 145 125 L 145 130 L 140 130 L 140 125 z M 145 125 L 150 125 L 150 130 L 145 130 L 145 125 z M 155 125 L 160 125 L 160 130 L 155 130 L 155 125 z M 0 130 L 5 130 L 5 135 L 0 135 L 0 130 z M 5 130 L 10 130 L 10 135 L 5 135 L 5 130 z M 10 130 L 15 130 L 15 135 L 10 135 L 10 130 z M 15 130 L 20 130 L 20 135 L 15 135 L 15 130 z M 20 130 L 25 130 L 25 135 L 20 135 L 20 130 z M 25 130 L 30 130 L 30 135 L 25 135 L 25 130 z M 30 130 L 35 130 L 35 135 L 30 135 L 30 130 z M 80 130 L 85 130 L 85 135 L 80 135 L 80 130 z M 85 130 L 90 130 L 90 135 L 85 135 L 85 130 z M 105 130 L 110 130 L 110 135 L 105 135 L 105 130 z M 120 130 L 125 130 L 125 135 L 120 135 L 120 130 z M 130 130 L 135 130 L 135 135 L 130 135 L 130 130 z M 140 130 L 145 130 L 145 135 L 140 135 L 140 130 z M 155 130 L 160 130 L 160 135 L 155 135 L 155 130 z M 0 135 L 5 135 L 5 140 L 0 140 L 0 135 z M 30 135 L 35 135 L 35 140 L 30 140 L 30 135 z M 40 135 L 45 135 L 45 140 L 40 140 L 40 135 z M 45 135 L 50 135 L 50 140 L 45 140 L 45 135 z M 50 135 L 55 135 L 55 140 L 50 140 L 50 135 z M 60 135 L 65 135 L 65 140 L 60 140 L 60 135 z M 70 135 L 75 135 L 75 140 L 70 140 L 70 135 z M 85 135 L 90 135 L 90 140 L 85 140 L 85 135 z M 90 135 L 95 135 L 95 140 L 90 140 L 90 135 z M 105 135 L 110 135 L 110 140 L 105 140 L 105 135 z M 110 135 L 115 135 L 115 140 L 110 140 L 110 135 z M 115 135 L 120 135 L 120 140 L 115 140 L 115 135 z M 120 135 L 125 135 L 125 140 L 120 140 L 120 135 z M 140 135 L 145 135 L 145 140 L 140 140 L 140 135 z M 160 135 L 165 135 L 165 140 L 160 140 L 160 135 z M 0 140 L 5 140 L 5 145 L 0 145 L 0 140 z M 10 140 L 15 140 L 15 145 L 10 145 L 10 140 z M 15 140 L 20 140 L 20 145 L 15 145 L 15 140 z M 20 140 L 25 140 L 25 145 L 20 145 L 20 140 z M 30 140 L 35 140 L 35 145 L 30 145 L 30 140 z M 40 140 L 45 140 L 45 145 L 40 145 L 40 140 z M 55 140 L 60 140 L 60 145 L 55 145 L 55 140 z M 65 140 L 70 140 L 70 145 L 65 145 L 65 140 z M 70 140 L 75 140 L 75 145 L 70 145 L 70 140 z M 75 140 L 80 140 L 80 145 L 75 145 L 75 140 z M 80 140 L 85 140 L 85 145 L 80 145 L 80 140 z M 90 140 L 95 140 L 95 145 L 90 145 L 90 140 z M 100 140 L 105 140 L 105 145 L 100 145 L 100 140 z M 105 140 L 110 140 L 110 145 L 105 145 L 105 140 z M 120 140 L 125 140 L 125 145 L 120 145 L 120 140 z M 125 140 L 130 140 L 130 145 L 125 145 L 125 140 z M 130 140 L 135 140 L 135 145 L 130 145 L 130 140 z M 135 140 L 140 140 L 140 145 L 135 145 L 135 140 z M 140 140 L 145 140 L 145 145 L 140 145 L 140 140 z M 160 140 L 165 140 L 165 145 L 160 145 L 160 140 z M 0 145 L 5 145 L 5 150 L 0 150 L 0 145 z M 10 145 L 15 145 L 15 150 L 10 150 L 10 145 z M 15 145 L 20 145 L 20 150 L 15 150 L 15 145 z M 20 145 L 25 145 L 25 150 L 20 150 L 20 145 z M 30 145 L 35 145 L 35 150 L 30 150 L 30 145 z M 45 145 L 50 145 L 50 150 L 45 150 L 45 145 z M 60 145 L 65 145 L 65 150 L 60 150 L 60 145 z M 85 145 L 90 145 L 90 150 L 85 150 L 85 145 z M 105 145 L 110 145 L 110 150 L 105 150 L 105 145 z M 110 145 L 115 145 L 115 150 L 110 150 L 110 145 z M 115 145 L 120 145 L 120 150 L 115 150 L 115 145 z M 130 145 L 135 145 L 135 150 L 130 150 L 130 145 z M 140 145 L 145 145 L 145 150 L 140 150 L 140 145 z M 150 145 L 155 145 L 155 150 L 150 150 L 150 145 z M 155 145 L 160 145 L 160 150 L 155 150 L 155 145 z M 0 150 L 5 150 L 5 155 L 0 155 L 0 150 z M 10 150 L 15 150 L 15 155 L 10 155 L 10 150 z M 15 150 L 20 150 L 20 155 L 15 155 L 15 150 z M 20 150 L 25 150 L 25 155 L 20 155 L 20 150 z M 30 150 L 35 150 L 35 155 L 30 155 L 30 150 z M 50 150 L 55 150 L 55 155 L 50 155 L 50 150 z M 55 150 L 60 150 L 60 155 L 55 155 L 55 150 z M 60 150 L 65 150 L 65 155 L 60 155 L 60 150 z M 65 150 L 70 150 L 70 155 L 65 155 L 65 150 z M 70 150 L 75 150 L 75 155 L 70 155 L 70 150 z M 75 150 L 80 150 L 80 155 L 75 155 L 75 150 z M 90 150 L 95 150 L 95 155 L 90 155 L 90 150 z M 105 150 L 110 150 L 110 155 L 105 155 L 105 150 z M 110 150 L 115 150 L 115 155 L 110 155 L 110 150 z M 120 150 L 125 150 L 125 155 L 120 155 L 120 150 z M 130 150 L 135 150 L 135 155 L 130 155 L 130 150 z M 140 150 L 145 150 L 145 155 L 140 155 L 140 150 z M 145 150 L 150 150 L 150 155 L 145 155 L 145 150 z M 150 150 L 155 150 L 155 155 L 150 155 L 150 150 z M 0 155 L 5 155 L 5 160 L 0 160 L 0 155 z M 30 155 L 35 155 L 35 160 L 30 160 L 30 155 z M 40 155 L 45 155 L 45 160 L 40 160 L 40 155 z M 45 155 L 50 155 L 50 160 L 45 160 L 45 155 z M 55 155 L 60 155 L 60 160 L 55 160 L 55 155 z M 65 155 L 70 155 L 70 160 L 65 160 L 65 155 z M 75 155 L 80 155 L 80 160 L 75 160 L 75 155 z M 80 155 L 85 155 L 85 160 L 80 160 L 80 155 z M 100 155 L 105 155 L 105 160 L 100 160 L 100 155 z M 105 155 L 110 155 L 110 160 L 105 160 L 105 155 z M 115 155 L 120 155 L 120 160 L 115 160 L 115 155 z M 120 155 L 125 155 L 125 160 L 120 160 L 120 155 z M 125 155 L 130 155 L 130 160 L 125 160 L 125 155 z M 140 155 L 145 155 L 145 160 L 140 160 L 140 155 z M 0 160 L 5 160 L 5 165 L 0 165 L 0 160 z M 5 160 L 10 160 L 10 165 L 5 165 L 5 160 z M 10 160 L 15 160 L 15 165 L 10 165 L 10 160 z M 15 160 L 20 160 L 20 165 L 15 165 L 15 160 z M 20 160 L 25 160 L 25 165 L 20 165 L 20 160 z M 25 160 L 30 160 L 30 165 L 25 165 L 25 160 z M 30 160 L 35 160 L 35 165 L 30 165 L 30 160 z M 40 160 L 45 160 L 45 165 L 40 165 L 40 160 z M 60 160 L 65 160 L 65 165 L 60 165 L 60 160 z M 65 160 L 70 160 L 70 165 L 65 165 L 65 160 z M 95 160 L 100 160 L 100 165 L 95 165 L 95 160 z M 100 160 L 105 160 L 105 165 L 100 165 L 100 160 z M 110 160 L 115 160 L 115 165 L 110 165 L 110 160 z M 120 160 L 125 160 L 125 165 L 120 165 L 120 160 z M 130 160 L 135 160 L 135 165 L 130 165 L 130 160 z M 160 160 L 165 160 L 165 165 L 160 165 L 160 160 z" stroke-linecap="round" />
</g>
</g>
</g>
</svg>