<svg xmlns="http://www.w3.org/2000/svg" width="194.386" height="40" viewBox="0 0 194.386 40">
  <defs>
    <style>
      .cls-1, .cls-5 {
        fill: #f16112;
      }

      .cls-1, .cls-2, .cls-3, .cls-4 {
        fill-rule: evenodd;
      }

      .cls-2 {
        fill: #fc6719;
      }

      .cls-3 {
        fill: #ee6525;
      }

      .cls-4 {
        fill: #909295;
      }
    </style>
  </defs>
  <g id="Group_1483" data-name="Group 1483" transform="translate(-21.883 64.406)">
    <path id="Path_1604" data-name="Path 1604" class="cls-1" d="M54.12-32.216c-.2-.086-.394-.065-.441.057s.065.274.256.357.389.053.439-.062-.063-.273-.253-.352Z" transform="translate(-9.479 -9.5)"/>
    <path id="Path_1605" data-name="Path 1605" class="cls-1" d="M56.17-38.571a.688.688,0,0,0-.588-.762l-.186-.02h-.081l-.01.046.079.054a.4.4,0,0,1,.158.415.455.455,0,0,1-.585.242l-.124-.048-.055-.036-.046-.018.036.156.1.15a.877.877,0,0,0,.433.246.685.685,0,0,0,.863-.424Z" transform="translate(-9.798 -7.405)"/>
    <path id="Path_1606" data-name="Path 1606" class="cls-1" d="M57.142-31.541c.065-.156-.089-.373-.355-.487s-.532-.079-.6.077.091.38.354.5.531.074.6-.086Z" transform="translate(-10.227 -9.551)"/>
    <path id="Path_1607" data-name="Path 1607" class="cls-1" d="M57.167-36.049a.841.841,0,0,0,.437.246.683.683,0,0,0,.862-.417.687.687,0,0,0-.587-.764l-.189-.023h-.079l-.009.045.078.055a.4.4,0,0,1,.155.413.453.453,0,0,1-.581.244L57.13-36.3l-.055-.033-.044-.02.033.161.1.145Z" transform="translate(-10.483 -8.098)"/>
    <path id="Path_1608" data-name="Path 1608" class="cls-1" d="M54.43-41.109a.684.684,0,0,0-.589-.758l-.186-.025h-.081l-.009.047.079.051a.407.407,0,0,1,.155.416.451.451,0,0,1-.582.244l-.125-.054-.052-.032-.047-.018.034.158.1.149a.891.891,0,0,0,.435.244.689.689,0,0,0,.865-.42Z" transform="translate(-9.278 -6.654)"/>
    <path id="Path_1609" data-name="Path 1609" class="cls-1" d="M56.105-33.3c.194.081.39.055.44-.065s-.066-.271-.255-.352-.39-.065-.441.057.065.274.256.36Z" transform="translate(-10.127 -9.057)"/>
    <path id="Path_1610" data-name="Path 1610" class="cls-1" d="M65.851-23.265a.309.309,0,0,0-.308-.307.305.305,0,0,0-.3.307.3.3,0,0,0,.3.3.308.308,0,0,0,.308-.3Z" transform="translate(-12.931 -12.07)"/>
    <path id="Path_1611" data-name="Path 1611" class="cls-1" d="M62.458-22.907a.309.309,0,0,0-.307-.31.307.307,0,0,0-.3.31.3.3,0,0,0,.3.3.305.305,0,0,0,.307-.3Z" transform="translate(-11.919 -12.175)"/>
    <path id="Path_1612" data-name="Path 1612" class="cls-1" d="M59.594-23.665a.258.258,0,0,0-.259-.258.257.257,0,0,0-.259.258.258.258,0,0,0,.259.258.259.259,0,0,0,.259-.258Z" transform="translate(-11.093 -11.967)"/>
    <path id="Path_1613" data-name="Path 1613" class="cls-1" d="M59.413-34.087a.821.821,0,0,0,.434.245.69.69,0,0,0,.863-.42.69.69,0,0,0-.588-.762l-.187-.025h-.079l-.01.046.079.055a.407.407,0,0,1,.155.415.453.453,0,0,1-.584.246l-.122-.057-.055-.028-.047-.022.036.161.1.146Z" transform="translate(-11.152 -8.677)"/>
    <path id="Path_1614" data-name="Path 1614" class="cls-1" d="M59.186-30.894c.19.081.387.059.437-.062s-.067-.272-.256-.362-.389-.053-.44.068c-.051.105.067.27.259.356Z" transform="translate(-11.045 -9.768)"/>
    <path id="Path_1615" data-name="Path 1615" class="cls-1" d="M57.442-30.129c-.189-.081-.387-.057-.443.065-.041.093.04.228.182.312l.082.047c.187.078.384.05.43-.065s-.062-.28-.252-.359Z" transform="translate(-10.47 -10.118)"/>
    <path id="Path_1616" data-name="Path 1616" class="cls-1" d="M62.248-26.4a.3.3,0,0,0,.307-.305.306.306,0,0,0-.307-.3.306.306,0,0,0-.3.3.3.3,0,0,0,.3.305Z" transform="translate(-11.948 -11.056)"/>
    <path id="Path_1617" data-name="Path 1617" class="cls-1" d="M58.969-27.357a.3.3,0,0,0,.3.3.3.3,0,0,0,.3-.3.3.3,0,0,0-.3-.3.3.3,0,0,0-.3.3Z" transform="translate(-11.061 -10.863)"/>
    <path id="Path_1618" data-name="Path 1618" class="cls-1" d="M57.3-45.855a.562.562,0,0,0-.483-.623l-.152-.019H56.6l-.008.036.065.047a.325.325,0,0,1,.128.338.369.369,0,0,1-.476.2l-.1-.046-.046-.028-.036-.013.03.129.085.121a.681.681,0,0,0,.355.2.558.558,0,0,0,.706-.342Z" transform="translate(-10.212 -5.293)"/>
    <path id="Path_1619" data-name="Path 1619" class="cls-2" d="M55.278-54.23c-.335-.085-.572-.274-.529-.438s.337-.217.673-.137.567.279.526.437-.333.215-.67.138Zm-.818.745c.38.04.709-.071.732-.257s-.277-.365-.658-.4-.711.068-.735.251.273.365.661.408Zm9.034,2.366.008.033,0,.031a8.884,8.884,0,0,1-2.3,4.339l-.032.036s-.16.021-.268.032l.086.243.029.093-.992.887-.076-.029a17.753,17.753,0,0,1-2.4-.988,5,5,0,0,0-.361,1.469l-.1.612a5.45,5.45,0,0,0-.1,1.187l-.03.968a8.04,8.04,0,0,1-.311,1.752l-.1.38a5.6,5.6,0,0,0-.105,1.206c0,.322.016.691.046,1.091.054.816.18.871.473,1l.049.022.155.068c.291.128.561.247.561.593a.539.539,0,0,1-.066.272l.026.1a.721.721,0,0,1-.37.576.539.539,0,0,1-.568.478c-.111.442-.4.461-1.152.461,0,0-1.691.016-1.908.016-.033.3-.111,1.145-.111,1.848,0,.1,0,.2.008.3a2.473,2.473,0,0,1,1.2,1.421,1.908,1.908,0,0,1,.062.428.648.648,0,0,1-.227.516l-.034.033-.058.061c-.269.289-1.076,1.151-1.76,1.151-.171.166-.488.443-1.552.382a5.062,5.062,0,0,1-3.326-1.554c-1.028-1.03-1.124-1.954-1.226-3.77l-.022-.466c-.086-1.765-.177-3.589-1.743-4.194-1.662-.648-4.285-.583-6.02-.544l-.281.011L38-38.126a1.7,1.7,0,0,1-.568.359l-.481.028a5.146,5.146,0,0,0,.369,1.5c.044.016.2.052.345.084.495.1,1.246.252,1.406.8a.974.974,0,0,1,.048.282c0,.473-.4.731-.765.962L38.173-34a9.236,9.236,0,0,1-3.738.336,1.864,1.864,0,0,0,1.114,1.467c.611.365,1.006.712,1.006,1.177a1.141,1.141,0,0,1-.163.547,2.749,2.749,0,0,1-2.371,1.627,7.18,7.18,0,0,1-3.3-.368,5.012,5.012,0,0,1-1.335-1.371l-.025.025a5.516,5.516,0,0,1-2.308,1.606,6.479,6.479,0,0,1-4.944-.318c-.263-.15-.236-.684-.226-.789l.012-.152.145.022c.034.01,3.578.565,4.577.046l.029-.017c1.017-.53,2.56-1.324,1.224-5.263a11.952,11.952,0,0,0-.9-1.9c-.943-1.728-2-3.682-1.342-6.441.648-2.7,3.778-3.821,5.314-3.821l.663.011c2.1.035,7.423.126,10.647-1.167A2.732,2.732,0,0,1,44.9-49.949,2.047,2.047,0,0,1,47.5-51.322c.653-1.054,1.128-1.413,2.849-1.314a1.827,1.827,0,0,1,.638-.791l.141-.035a4.058,4.058,0,0,1,2.634-2.708,7.149,7.149,0,0,1,3.4.063l.424.079c.84,0,2.534.3,3.018,1.39a2.24,2.24,0,0,1,.679,1.18l.237.177a5.256,5.256,0,0,1,1.973,2.163ZM38.387-35.013c.414-.039.267.412,0,.385l-.1-.029c-.175-.085-.162-.335.1-.356Zm23.927-16.3a.35.35,0,0,1-.348.352.349.349,0,0,1-.349-.352.349.349,0,0,1,.349-.35.35.35,0,0,1,.348.35Zm-1.043,1.175a.35.35,0,0,1,.351-.354.352.352,0,0,1,.348.354.348.348,0,0,1-.348.347.347.347,0,0,1-.351-.347Zm.2,1.136a.388.388,0,0,1-.385.389A.392.392,0,0,1,60.692-49a.39.39,0,0,1,.392-.388.386.386,0,0,1,.385.388Zm-.555-2.482c0,.109-.14.2-.316.2s-.318-.093-.318-.2.144-.2.318-.2.316.091.316.2Zm-.467,1.274c0,.158-.2.281-.436.281s-.439-.123-.439-.281.2-.28.439-.28.436.127.436.28Zm-.065-2.976a1.611,1.611,0,0,0-.082.823c.171.061.252.421.067.526s-.406.42-.255.55.359.267.118.516-.268-.085-.547.01-.337.348-.211.684-.448.33-.59.143-.336-.279-.425.118-.234.463-.548.5-.556-.119-.488-.423-.6-.325-.486-.022.07.5-.361.512-.5-.279-.255-.49.014-.525-.324-.557-.5.2-.441.3.175.339-.068.365a.945.945,0,0,0-.233-.212l-.2-.1c-.093-.121.03-.349.122-.444.112-.107.331-.017.491-.054.255-.063.149-.274-.17-.374s-.038-.161.237-.161.547.229.318.454a9.559,9.559,0,0,0,2.041.212,1.866,1.866,0,0,0,1.636-1.132,2.483,2.483,0,0,1-2.064.467,1.941,1.941,0,0,1-1.474-2.262,1.621,1.621,0,0,1,2.076-1.191,1.387,1.387,0,0,1,1.1.992c-.834-.713-1.527-.935-2.355-.421a1.407,1.407,0,0,0,.375,2.357A1.347,1.347,0,0,0,59.1-52.522c-.385.827-1.127.315-1.159-.212-.036-.918.774-1.059.987-.885,1.2,1.193-.07,2.092-.628,2.363a1.356,1.356,0,0,0,1.5-.785,2.172,2.172,0,0,0-.244-1.831s.594.475.827.69Zm-.956,3.989c0,.182-.233.335-.519.335s-.514-.153-.514-.335.232-.329.514-.329.519.143.519.329Zm-1.563.472c0,.209-.258.37-.571.37s-.569-.161-.569-.37.253-.364.569-.364.571.164.571.364Zm-3.931-2.505a8.355,8.355,0,0,0-1.06.062c-.315,0-.568-.15-.568-.339s.253-.341.568-.341.568.15.568.341c0,.144.808.219.981.162.24-.077.265-.353.551-.353.309,0,.58.243.27.5l-.058.058c-.052.066-.02.1-.036.212a.27.27,0,0,1-.281.218c-.244.012-.651.25-.92.119s.526-.151.492-.394c-.026-.175-.382-.219-.508-.248Zm-.555-.946c0-.223.3-.4.665-.4s.665.179.665.4-.295.4-.665.4-.665-.181-.665-.4Zm2.071,2.84c.4,0,.714.207.714.461s-.319.461-.714.461-.719-.2-.719-.461.322-.461.719-.461Zm2.23-3.5c-.1.289-.709.736-.709.736a1.328,1.328,0,0,1-.211-1.181s1.012.157.92.445ZM55.4-55.444a1.613,1.613,0,0,0,.088-.226c.3.013.6.044.906.072.451.038.9.085,1.354.137A3.218,3.218,0,0,1,60.227-54l-.109.028c-.16.012-.318-.035-.351-.1-.071-.127.021-.363-.128-.456s-.464.152-.6.131-.2-.4-.37-.5-.326.218-.571.183-.359-.328-.463-.444-.326-.023-.278.141.161.333.036.339a1.65,1.65,0,0,0-1.613,1.342A2.466,2.466,0,0,0,57.408-50.6a2.316,2.316,0,0,1-1.867-1.237,2.718,2.718,0,0,1-.151-1.2l-.336.01c-.018.6-.932.249-1.248.192a1.2,1.2,0,0,0-.532,0c-.232.032-.3-.083-.284-.313a1.857,1.857,0,0,1,.573-1.108,4.321,4.321,0,0,1,1.349-.868,1.036,1.036,0,0,0,.491-.321Zm-1.673.188c.175,0,.319.083.319.192s-.14.19-.314.19-.321-.082-.319-.186.139-.188.313-.2Zm-.868.626c.207-.027.387.052.4.178s-.141.251-.349.272-.387-.055-.4-.179.146-.25.354-.271Zm-.495.832c.178,0,.322.087.322.191s-.144.2-.322.2-.325-.086-.325-.2.147-.191.325-.191Zm-.22.892c-.239,0-.432.119-.432.262s.193.262.432.262.43-.117.43-.262-.194-.262-.43-.262Zm-1.589.639a.509.509,0,0,1,.25-.127.593.593,0,0,0-.168.274c-.108.43.113.891.764,1.067A1.789,1.789,0,0,1,52.583-50a2.2,2.2,0,0,1-1.247-.671c1.425,1.428,2.032,1.647,2.9,1.812-.145-.275-.274-.591.013-.328a3.362,3.362,0,0,0-.333-1.021,2.2,2.2,0,0,1,.495,1.567,5.94,5.94,0,0,1-3.121-1.83c-.984-.949-.817-1.582-.736-1.795Zm3.55,4.362c-.082.2-.418.241-.747.1s-.522-.42-.434-.617.417-.244.743-.1.525.416.439.616Zm-5.8-3.424a1.657,1.657,0,0,1,.4-.371,1.434,1.434,0,0,1,.965-.243c-.154,1.771,2.036,3.74,2.571,4.25a.881.881,0,0,1,.185.7.887.887,0,0,1-1.01.741.906.906,0,0,1-.488-.258c-.711-.769-2.576-2.45-2.694-4.71l.074-.107Zm-.358.48c-.055.087-.112.174-.171.265a8.421,8.421,0,0,0,2.5,4.16c.1.1.183.19.259.272l0,0,0,0a1.415,1.415,0,0,0,.785.413l0,0v0l.175.014a1.411,1.411,0,0,0,1.437-1.193l.018-.177a1.439,1.439,0,0,0-.314-.939l-.017-.025-.011-.007-.019-.02-.1-.1a12.972,12.972,0,0,1-1.4-1.515,3.651,3.651,0,0,1-.907-2.126l0-.082v-.032c-.07-.012-.14-.019-.207-.025l0,.037,0,.1a3.827,3.827,0,0,0,.951,2.259,13.874,13.874,0,0,0,1.427,1.542l.1.092.015.013.013.018a1.217,1.217,0,0,1,.266.8l-.013.149a1.206,1.206,0,0,1-1.225,1.014l-.15-.015a1.19,1.19,0,0,1-.665-.348H50.7c-.076-.087-.164-.178-.263-.281a7.975,7.975,0,0,1-2.482-4.276Zm-2.281,1,.011-.017a1.829,1.829,0,0,1,.68-.655,1.11,1.11,0,0,1,.57-.118l.1.012c-.089,2.7,2.752,4.918,3.684,5.837a.91.91,0,0,1,.226.655.9.9,0,0,1-.954.851.7.7,0,0,1-.462-.162c-1.074-1.032-4.139-3.545-3.858-6.4Zm-.321.248,0,.132c-.008,2.533,2.312,4.712,3.613,5.914.134.124.255.233.359.334a.963.963,0,0,0,.655.246h.073a1.212,1.212,0,0,0,1.2-1.141v-.073a1.209,1.209,0,0,0-.3-.807L50.938-45l-.008-.009c-.119-.115-.265-.249-.437-.409C49.4-46.43,47.347-48.3,47.339-50.5v-.064a1.976,1.976,0,0,1,.247.078c0,2.031,1.979,3.879,3.072,4.882.175.157.324.3.446.417l.011.012.007,0,.008.011a1.47,1.47,0,0,1,.368.975l0,.084a1.464,1.464,0,0,1-1.451,1.384l-.086,0v-.006l0,.006a1.228,1.228,0,0,1-.813-.314c-.1-.1-.221-.21-.355-.332-1.262-1.177-3.569-3.3-3.686-5.9l.246-.325ZM43.041-48.4a1,1,0,0,1,.46-.487,2.648,2.648,0,0,1,.726-.212c-.213,3.315,3.909,6.521,5.445,7.788a.944.944,0,0,1,.3.669.9.9,0,0,1-.853.945.714.714,0,0,1-.434-.1c-.862-.487-5.624-4.023-5.846-8.083a3.23,3.23,0,0,1,.2-.519ZM31.688-43.856c.524,1.192.4,1.52-.052,2.886,1.55-1.96.052-2.886.052-2.886ZM26.1-29.306c-1.455.224-1.408-.272-1.408-.272s2.59.129,3.755-1.431a2.861,2.861,0,0,1-2.347,1.7Zm3.762-2.264a2.46,2.46,0,0,0,2.6.748,3.862,3.862,0,0,1-1.533-4.48,2.559,2.559,0,0,0-.625.966c-.5-1.474-.275-2.519.053-4.394,1.166-4.374-.328-6.26-1.74-6.629s-2.348,1.574-2.348,1.574,1.024-.526,1.6-.161-.209,2.734.453,5.636a17.264,17.264,0,0,0,3.314,7.229c-.728.332-1.768-.49-1.768-.49Zm7.295-4.185a.427.427,0,0,1,.469.368.425.425,0,0,1-.469.366.426.426,0,0,1-.47-.366.428.428,0,0,1,.47-.368ZM40.444-40.7a4.631,4.631,0,0,1,1.564.168,5.987,5.987,0,0,0-3.578-.394,2.521,2.521,0,0,0-.989.49,11.284,11.284,0,0,1-.78.843,26.755,26.755,0,0,0-2.448,1.528A4.687,4.687,0,0,0,33.03-33.5a19.443,19.443,0,0,1,.482,2.084c.04.22.014,1.362.394,1.262.163-.04.246-.228.41-.255.119-.024.386.1.475.036.158-.107,0-.4-.033-.533a9.825,9.825,0,0,0-.486-1.427,5.885,5.885,0,0,1-.755-2.249c.033-.964.382-.163.659.364A4.235,4.235,0,0,1,35.2-38.1a5.925,5.925,0,0,1,1.806-1.253,10.817,10.817,0,0,0,1.942-.866,2.355,2.355,0,0,1,1.5-.478Zm4.8,1.763c-.1.233-.489.286-.874.119s-.611-.487-.509-.716.487-.283.873-.121.61.49.51.719Zm-1.719-3.2a3.616,3.616,0,0,0-2.792-1.467c-.982-.109-5.334-.229-5.674-1.108-.16-.413.247-.6.724-.677-1.358.09-3.184.338-1.11.959-.918.209-2.63-.368-1.5-.843s3.532-.61,5.515-.892a10.815,10.815,0,0,0,2.947-.754,10.29,10.29,0,0,0,2.5,4.765A17.155,17.155,0,0,0,45.307-40.9c-.828.114-.848-.133-1.78-1.243ZM45.5-39.478c-.137.315.175.756.706.984s1.057.155,1.2-.164-.178-.763-.706-.984-1.058-.153-1.2.164Zm-.111-1.112c.1-.236.488-.286.876-.126s.607.491.509.724-.488.283-.87.114-.613-.486-.514-.712ZM46.7-37.342l.022.008a2.448,2.448,0,0,0,2.466.132c.571-.43.479-1.223-.168-1.906l.063,0h.056a1.5,1.5,0,0,0,1.424-1.509v-.049a1.533,1.533,0,0,0-.5-1.084l-.006-.011-.01,0-.006-.006c-.07-.057-.147-.117-.228-.186a25.163,25.163,0,0,1-3.088-2.888,6.6,6.6,0,0,1-1.924-4.006c0-.073,0-.14.011-.208v-.054c-.1-.009-.193-.019-.279-.022l0,.054c0,.078-.007.153-.007.23a6.875,6.875,0,0,0,1.993,4.2,25.365,25.365,0,0,0,3.12,2.914c.081.065.157.13.229.186l.006,0,0,.008a1.244,1.244,0,0,1,.4.888v.039a1.21,1.21,0,0,1-1.152,1.227h-.048a.979.979,0,0,1-.558-.147l-.008-.007a16.311,16.311,0,0,1-3.28-2.806A10.358,10.358,0,0,1,42.7-47.42a.986.986,0,0,1-.373.243,10.887,10.887,0,0,0,2.708,5.019A17.693,17.693,0,0,0,46.295-40.9a14.566,14.566,0,0,0,2.081,1.6l.009,0c.942.729,1.22,1.656.617,2.075a2.107,2.107,0,0,1-1.836-.03.435.435,0,0,0,.414-.211c.1-.231-.134-.554-.515-.722s-.771-.108-.873.122.133.554.512.718Zm.841-1.553c.1-.229.487-.287.87-.121s.613.49.516.715-.493.294-.877.126-.61-.49-.509-.72Zm2.581,2.784a.765.765,0,0,0-.764.765.774.774,0,0,0,.764.772.776.776,0,0,0,.768-.772.768.768,0,0,0-.768-.765Zm-1.323.3a.773.773,0,0,1-.766.77.771.771,0,0,1-.766-.77.766.766,0,0,1,.766-.768.768.768,0,0,1,.766.768Zm-1.935,2.98a3.624,3.624,0,0,0,2.745,1.453,5.642,5.642,0,0,0,3.432-.394,5,5,0,0,0,.447-.293v-.022c-.006-.09-.006-.182-.006-.279v-.021L52.9-32a5.412,5.412,0,0,1-3.247.356,4.059,4.059,0,0,1-2.8-1.6l.019.4v.02Zm.572-.389a.653.653,0,0,1,.653-.655.654.654,0,0,1,.654.655.664.664,0,0,1-.654.661.663.663,0,0,1-.653-.661Zm1.851.547a.769.769,0,0,1,.764-.767.771.771,0,0,1,.771.767.774.774,0,0,1-.771.767.771.771,0,0,1-.764-.767Zm2.385-.251a.767.767,0,0,1,.765-.773.77.77,0,0,1,.768.773.773.773,0,0,1-.768.769.77.77,0,0,1-.765-.769Zm1.92,1.273a1.5,1.5,0,0,1,.366.236.676.676,0,0,1,.223.4c.026.263-.147.384-.246.6a.778.778,0,0,0-.093.34c0,.083.071.176-.006.24l-.135,0a.311.311,0,0,0-.231.032c-.061.036-.147.085-.144.157s.07.107.067.174c-.016.317-.532-.052-.655-.03a1.4,1.4,0,0,0-.569.327,2.783,2.783,0,0,1-2.213.081,2.666,2.666,0,0,1-1.393-.674,7.011,7.011,0,0,0,3.269.408c.7-.265-.023-.437-.222-.408s-.362-.254.089-.332,1.579-.244,1.719-.882c0-.124-.472-.061-1.145.255a4.338,4.338,0,0,1-1.332.315,1.179,1.179,0,0,1-.279-.346,1.3,1.3,0,0,0,.212-.018,12.431,12.431,0,0,0,2.526-.949l.192.075Zm.01-2.891,0-.013a2.953,2.953,0,0,1-.853.307,15.619,15.619,0,0,1-3.7.047,4.288,4.288,0,0,1-2.281-1.318l0,.076c.009.085.013.175.023.261l0,.089a3.694,3.694,0,0,0,2.222,1.171,15.637,15.637,0,0,0,3.8-.058,2.068,2.068,0,0,0,.766-.272v-.015c0-.108.015-.19.019-.276Zm-1.985-.586a.771.771,0,0,0,.764.772.775.775,0,0,0,.767-.772.774.774,0,0,0-.767-.77.769.769,0,0,0-.764.77Zm2.262-2.137a.566.566,0,0,0-.229-.234.562.562,0,0,0-.366-.08l.056.028a.259.259,0,0,1,.137.332.257.257,0,0,1-.358.039l-.1-.1a.5.5,0,0,0,.267.4.455.455,0,0,0,.529,0c-.149.986-.262,2.157-.262,2.157l-.072-.164v-.279l.006-.128c.006-.127,0-.253.007-.375s.006-.271.015-.4a6.485,6.485,0,0,1-2.385-.3,1.582,1.582,0,0,1-1.153-1.782.948.948,0,0,1,.45-.712A1.565,1.565,0,0,1,51.654-39a5.034,5.034,0,0,0,2.371.34,1.472,1.472,0,0,1,.213-.362l.086.2c.058.053.2,0,.585-.14a9.189,9.189,0,0,1,1.045-.4l-.027.171a7.02,7.02,0,0,1-1.38.523c-.38.093-.331.124-.532.772a6.07,6.07,0,0,0-.133.633Zm.82.837a.348.348,0,0,1-.048.279.407.407,0,0,0,.328.09.441.441,0,0,0,.26-.562.438.438,0,0,0-.5-.365.4.4,0,0,0-.265.325.309.309,0,0,1,.225.232Zm-.564-.748a4.971,4.971,0,0,0,1.829-.735l-.006-.1a5.2,5.2,0,0,1-1.812.6l-.012.236Zm.939-.947a.327.327,0,0,0-.228-.237.4.4,0,0,1,.267-.322.442.442,0,0,1,.5.362.437.437,0,0,1-.262.559.363.363,0,0,1-.332-.086.317.317,0,0,0,.053-.276Zm1.274,3.263a.23.23,0,0,0-.049-.325l-.354-.262a.244.244,0,0,0-.331.051.239.239,0,0,0,.055.332l.349.257a.234.234,0,0,0,.329-.053Zm-1.9-.594c-.208-.065-.44-.29-.335-.336.058-.082.208.211.382.2a4.39,4.39,0,0,0,1.649-1.324,1.548,1.548,0,0,0,.252.49,8.3,8.3,0,0,1-1.949.974Zm1.905-5.788c-.053.249-.108.49-.155.722a8.852,8.852,0,0,1-1.215.662,7.169,7.169,0,0,1-2.74-.042c-.4-.05-.66-.583-.582-1.17s.469-1.029.869-.974a13.906,13.906,0,0,0,3.233-.073,6.277,6.277,0,0,0,.749-.314,8.014,8.014,0,0,1-.159,1.188Zm.174-1.484c0-.112.008-.221.008-.323a6.257,6.257,0,0,1-.946.43,12.239,12.239,0,0,1-2.97.043H52.59c-.693-.092-1.338.535-1.458,1.433a1.818,1.818,0,0,0,.306,1.328,1.071,1.071,0,0,0,.415.343,7.711,7.711,0,0,0,2.373.262,4.118,4.118,0,0,0,1.811-.559c.044-.129.052-.265.084-.4a8.27,8.27,0,0,1-1.034.547,6.572,6.572,0,0,1-2.876-.022.849.849,0,0,1-.552-.335,1.517,1.517,0,0,1-.246-1.124c.095-.741.6-1.266,1.154-1.192h.04a13.057,13.057,0,0,0,3.072-.057,6.952,6.952,0,0,0,.851-.371Zm.027-1.314c.034-.38.121-.908.208-1.388a12.712,12.712,0,0,1-3.095.226c-.31-.018-.582.353-.611.82s.2.874.5.893l.243.01a5.614,5.614,0,0,0,2.751-.561Zm.252-1.616-.029.008c-.154.03-.315.059-.472.077-.331.047-.661.08-.994.1-.31.022-.618.03-.93.036-.232,0-.465,0-.7-.014-.451-.025-.834.437-.873,1.054s.291,1.125.743,1.153l.236.011a5.018,5.018,0,0,0,1.324-.085,7.632,7.632,0,0,0,1.028-.305l.4-.155c0,.091,0,.188,0,.3l-.109.047a4.121,4.121,0,0,1-1.428.41,3.134,3.134,0,0,1-1.976-.147,1.449,1.449,0,0,1-.491-1.247,1.727,1.727,0,0,1,.128-.561l.049-.068.074-.165a1.034,1.034,0,0,1,.912-.522,15.821,15.821,0,0,0,2.349-.086,4.193,4.193,0,0,0,.562-.083c.088-.013.173-.03.251-.045-.017.088-.036.185-.054.286Zm.543-1.74c.23-.792.718-.734,1.112-.183.131-.773.418-.933,1.092-.376-.093-.976.462-.981,1-.628-.333-1.029.326-1.11.779-1.017-.325-.326-.617-1.122.36-1.19-.544-.4-.6-.744.037-1.211-.5-.245-.6-.466-.521-.612-.111-.075-.288-.212-.288-.212a2.332,2.332,0,0,1,.167.882,4.035,4.035,0,0,1-2.249,3.478,9.873,9.873,0,0,1-3.5.313c-.594.013-.964.585-.385.808a19.406,19.406,0,0,0,2.229.5,14,14,0,0,0-1.448-.441c-.733-.178-.794-.614-.406-.665a.927.927,0,0,1,1.009.48c.288-.8.866-.458,1.02.078Zm3.213-.687a.388.388,0,0,1-.387.392.39.39,0,0,1-.39-.392.388.388,0,0,1,.39-.387.386.386,0,0,1,.387.387Zm-1.676,1.521c-.37.025-.682-.139-.695-.363s.273-.42.643-.446.679.136.693.357-.271.423-.641.451Zm1.432.7-.058.059h-.274l-.055-.059V-45.9l.055-.058h.274l.058.056v.04Zm.488-.546-.059.057h-.272l-.055-.057v-.047l.055-.053h.272l.059.053v.047Zm-1.09.487a15.063,15.063,0,0,0,3.328-5.225,2.922,2.922,0,0,0-.18-.308,17.063,17.063,0,0,1-3.432,5.412l.284.12Zm1.749-1.317-.056.056h-.273l-.055-.056v-.042l.055-.057h.273l.056.057v.042Zm.657-.876-.059.056h-.272l-.058-.056v-.047l.058-.056h.272l.059.056v.047Zm.407-.709-.055.057h-.272l-.056-.057v-.044l.056-.059h.272l.055.059v.044Zm.381-.739-.06.059h-.27l-.058-.059V-49.6l.056-.057h.27l.06.057v.044Zm.3-.678-.056.057h-.272l-.055-.057v-.043l.055-.057h.272l.056.057v.043ZM56.2-54.788c.274.068.525.012.558-.117s-.167-.29-.444-.362-.522-.018-.556.114.165.294.443.365Z" transform="translate(0 -2.402)"/>
    <path id="Path_1620" data-name="Path 1620" class="cls-1" d="M60.389-41.223a.685.685,0,0,0-.588-.756l-.187-.027h-.081l-.006.043.076.055a.4.4,0,0,1,.156.415.448.448,0,0,1-.584.241l-.122-.05L59-41.334l-.046-.022.036.159.1.146a.853.853,0,0,0,.436.248.684.684,0,0,0,.863-.421Z" transform="translate(-11.056 -6.62)"/>
    <path id="Path_1621" data-name="Path 1621" class="cls-1" d="M66.525-44.8c-.044.094.056.235.221.3s.331.049.373-.049-.052-.239-.22-.307-.329-.047-.373.051Z" transform="translate(-13.311 -5.769)"/>
    <path id="Path_1622" data-name="Path 1622" class="cls-3" d="M78.977-49.111a.192.192,0,0,0,.192-.192.2.2,0,0,0-.192-.194.2.2,0,0,0-.192.194.193.193,0,0,0,.192.192Z" transform="translate(-16.974 -4.407)"/>
    <path id="Path_1623" data-name="Path 1623" class="cls-3" d="M77.712-46.251a.209.209,0,0,0-.21.21.216.216,0,0,0,.21.219.22.22,0,0,0,.218-.219.213.213,0,0,0-.218-.21Z" transform="translate(-16.591 -5.367)"/>
    <path id="Path_1624" data-name="Path 1624" class="cls-3" d="M78.678-47.642a.192.192,0,0,0-.194-.193.193.193,0,0,0-.193.193.2.2,0,0,0,.193.192.2.2,0,0,0,.194-.192Z" transform="translate(-16.826 -4.899)"/>
    <path id="Path_1625" data-name="Path 1625" class="cls-1" d="M60.839-39.421l-.044-.017.033.155.1.15a.848.848,0,0,0,.434.245.682.682,0,0,0,.864-.419.687.687,0,0,0-.588-.761l-.188-.02h-.046l-.033,0-.011.044.079.053a.4.4,0,0,1,.156.417.454.454,0,0,1-.584.244l-.121-.052-.055-.035Z" transform="translate(-11.605 -7.186)"/>
    <path id="Path_1626" data-name="Path 1626" class="cls-1" d="M65.772-26.386a.3.3,0,0,0-.308-.3.3.3,0,0,0-.3.3.306.306,0,0,0,.3.309.309.309,0,0,0,.308-.309Z" transform="translate(-12.908 -11.15)"/>
    <path id="Path_1627" data-name="Path 1627" class="cls-1" d="M58.548-43.293a.684.684,0,0,0-.588-.758l-.187-.025h-.079l-.009.048.078.051a.405.405,0,0,1,.156.418.454.454,0,0,1-.581.242l-.126-.053-.055-.032-.044-.018.034.157.1.149a.863.863,0,0,0,.433.246.684.684,0,0,0,.863-.424Z" transform="translate(-10.507 -6.009)"/>
    <path id="Path_1628" data-name="Path 1628" class="cls-1" d="M64.412-43.482a.689.689,0,0,0-.589-.759l-.188-.023h-.078l-.01.046.078.054a.4.4,0,0,1,.156.413.448.448,0,0,1-.584.243l-.124-.049-.053-.036-.044-.018.034.159.1.147a.85.85,0,0,0,.433.249.692.692,0,0,0,.865-.425Z" transform="translate(-12.256 -5.953)"/>
    <path id="Path_1629" data-name="Path 1629" class="cls-1" d="M61-48.32a.558.558,0,0,0-.481-.622l-.154-.022H60.3l-.011.039.066.043a.333.333,0,0,1,.128.34.366.366,0,0,1-.476.2l-.1-.042-.044-.025-.039-.015.03.129.085.121a.683.683,0,0,0,.354.2A.559.559,0,0,0,61-48.32Z" transform="translate(-11.315 -4.564)"/>
    <path id="Path_1630" data-name="Path 1630" class="cls-1" d="M61.792-46.631a.8.8,0,0,0-.187-.025h-.047l-.032,0-.01.048.078.052a.4.4,0,0,1,.156.417.447.447,0,0,1-.582.243l-.122-.055-.056-.034L60.945-46l.034.16.106.145a.85.85,0,0,0,.43.246.683.683,0,0,0,.866-.42.688.688,0,0,0-.589-.759Z" transform="translate(-11.65 -5.246)"/>
    <path id="Path_1631" data-name="Path 1631" class="cls-1" d="M53.26-43.77a.565.565,0,0,0-.483-.623l-.152-.018h-.067l0,.035.062.047a.326.326,0,0,1,.126.338.365.365,0,0,1-.476.2l-.1-.04-.045-.032-.036-.015.027.132.088.122a.7.7,0,0,0,.355.2.558.558,0,0,0,.706-.345Z" transform="translate(-9.007 -5.91)"/>
    <path id="Path_1632" data-name="Path 1632" class="cls-1" d="M63.347-30a.481.481,0,0,1-.161-.149.77.77,0,0,0,.41.623.666.666,0,0,0,.922-.1.669.669,0,0,0-.351-.865.806.806,0,0,0-.57-.114l.09.036a.4.4,0,0,1,.213.512.4.4,0,0,1-.552.059Z" transform="translate(-12.319 -9.984)"/>
    <path id="Path_1633" data-name="Path 1633" class="cls-1" d="M67.241-40.063l.063-.007a.35.35,0,0,1,.322.376.35.35,0,0,1-.322.371.293.293,0,0,1-.239-.126.6.6,0,0,0,.562.546.626.626,0,0,0,.577-.669.626.626,0,0,0-.577-.669.525.525,0,0,0-.387.178Z" transform="translate(-13.476 -7.142)"/>
    <path id="Path_1634" data-name="Path 1634" class="cls-1" d="M65.792-35.546a.568.568,0,0,0-.411.189l.067-.006a.377.377,0,0,1,.341.4.375.375,0,0,1-.341.4.321.321,0,0,1-.255-.136.643.643,0,0,0,.6.577.66.66,0,0,0,.607-.7.671.671,0,0,0-.607-.716Z" transform="translate(-12.917 -8.529)"/>
    <path id="Path_1635" data-name="Path 1635" class="cls-1" d="M68.463-35.484a.581.581,0,0,0-.413.185l.069,0a.373.373,0,0,1,.34.4.375.375,0,0,1-.34.4.337.337,0,0,1-.254-.136.639.639,0,0,0,.6.576.666.666,0,0,0,.607-.712.665.665,0,0,0-.607-.707Z" transform="translate(-13.714 -8.548)"/>
    <path id="Path_1636" data-name="Path 1636" class="cls-1" d="M69.536-39.534a.245.245,0,0,1-.2-.109.494.494,0,0,0,.462.451.513.513,0,0,0,.47-.549.511.511,0,0,0-.47-.548.428.428,0,0,0-.318.143l.052,0a.288.288,0,0,1,.266.308.293.293,0,0,1-.266.309Z" transform="translate(-14.154 -7.128)"/>
    <path id="Path_1637" data-name="Path 1637" class="cls-3" d="M74.329-43.152c-.187.013-.329.109-.325.222s.166.189.349.182.333-.114.324-.224-.164-.2-.348-.181Z" transform="translate(-15.545 -6.282)"/>
    <path id="Path_1638" data-name="Path 1638" class="cls-3" d="M76.422-44.947a.21.21,0,0,0-.213.213.207.207,0,0,0,.213.208.209.209,0,0,0,.213-.208.211.211,0,0,0-.213-.213Z" transform="translate(-16.203 -5.752)"/>
    <path id="Path_1639" data-name="Path 1639" class="cls-1" d="M63.612-31.4a1.253,1.253,0,0,0-.992.119.644.644,0,0,0-.322.5,1.316,1.316,0,0,0,.984,1.5,6.506,6.506,0,0,0,2.3.269l.011-.143.01-.11a6.28,6.28,0,0,1-2.222-.253c-.769-.324-.887-.713-.831-1.231a.416.416,0,0,1,.207-.314,1.022,1.022,0,0,1,.766-.089,5.923,5.923,0,0,0,2.337.4c.03-.1.059-.187.088-.267a5.618,5.618,0,0,1-2.338-.378Z" transform="translate(-12.05 -9.735)"/>
    <path id="Path_1640" data-name="Path 1640" class="cls-4" d="M235.856-35.506H88.311v-1.315H236.052v1.315Z" transform="translate(-19.825 -8.153)"/>
    <g id="Group_1481" data-name="Group 1481" transform="translate(68.485 -56.167)">
      <path id="Path_1641" data-name="Path 1641" class="cls-1" d="M97.787-47.906a1.04,1.04,0,0,0-.679-.735,1.148,1.148,0,0,0,.74-.742,3.656,3.656,0,0,0,.117-1.094,1.835,1.835,0,0,0-.528-1.312,2.607,2.607,0,0,0-1.331-.728,6.972,6.972,0,0,0-1.528-.133H88.311v7.99h6.436a4.589,4.589,0,0,0,2.14-.444,1.894,1.894,0,0,0,1.077-1.762,3,3,0,0,0-.177-1.039ZM96.2-46.736c0,.439-.592.559-1.564.559h-4.57v-1.681h4.7c.924,0,1.436.14,1.436.616v.506Zm0-3.178c0,.361-.441.538-1.324.538H90.1v-1.771h4.618c.994,0,1.491.2,1.491.6v.631Z" transform="translate(-88.311 52.699)"/>
      <path id="Path_1642" data-name="Path 1642" class="cls-1" d="M109.766-52.719a1.078,1.078,0,0,0-.936.542l-5.2,7.5H105.7l1.16-1.733h5.768l1.192,1.733h1.971l-5.092-7.5a1.058,1.058,0,0,0-.932-.539Zm-1.894,4.8,1.834-2.742,1.881,2.742Z" transform="translate(-92.881 52.72)"/>
      <path id="Path_1643" data-name="Path 1643" class="cls-1" d="M130.429-47.147l-5.969-5.115a1.657,1.657,0,0,0-1.1-.457c-.558,0-.838.335-.838,1.018v7.016h1.759v-5.589l6.048,5.18a1.5,1.5,0,0,0,.994.413q.864,0,.865-1.053v-6.938h-1.76v5.524Z" transform="translate(-98.515 52.72)"/>
      <path id="Path_1644" data-name="Path 1644" class="cls-1" d="M167.818-52.31a6.671,6.671,0,0,0-2.451-.34H163.35q-3.688,0-3.69,2.253v3.512a1.889,1.889,0,0,0,1.3,1.819,6,6,0,0,0,2.387.406h2.018q3.7,0,3.7-2.228V-50.4a1.892,1.892,0,0,0-1.25-1.912Zm-.509,5.389q0,.745-1.9.745h-2.06q-1.928,0-1.927-.745v-3.449c0-.514.641-.776,1.927-.776H165.4c1.274,0,1.908.262,1.908.776v3.449Z" transform="translate(-109.591 52.699)"/>
      <path id="Path_1645" data-name="Path 1645" class="cls-1" d="M176.476-52.219a1.8,1.8,0,0,0-1.2,1.7v5.861h1.76v-3.2h5.5v-1.517h-5.509v-1.146c0-.414.581-.625,1.74-.625h5.281v-1.5h-5.361a5.132,5.132,0,0,0-2.207.432Z" transform="translate(-114.248 52.699)"/>
      <path id="Path_1646" data-name="Path 1646" class="cls-1" d="M238.711-52.31a6.679,6.679,0,0,0-2.45-.34h-2.015q-3.692,0-3.692,2.253v3.512a1.89,1.89,0,0,0,1.3,1.819,6.016,6.016,0,0,0,2.393.406h2.015c2.47,0,3.7-.741,3.7-2.228V-50.4a1.9,1.9,0,0,0-1.25-1.912ZM238.2-46.92c0,.5-.633.745-1.905.745h-2.057q-1.927,0-1.928-.745v-3.449c0-.514.643-.776,1.928-.776h2.051c1.272,0,1.911.262,1.911.776v3.449Z" transform="translate(-130.735 52.699)"/>
      <path id="Path_1647" data-name="Path 1647" class="cls-1" d="M217.346-52.219a1.808,1.808,0,0,0-1.2,1.7v3.774a1.79,1.79,0,0,0,1.154,1.664,4.948,4.948,0,0,0,2.13.423h5.533v-1.516h-5.467c-1.06,0-1.585-.2-1.585-.618v-1.064h5.5v-1.517H217.9v-1.146c0-.414.581-.625,1.74-.625h5.325v-1.5H219.55a5.132,5.132,0,0,0-2.2.432Z" transform="translate(-126.437 52.699)"/>
      <path id="Path_1648" data-name="Path 1648" class="cls-1" d="M254.563-52.262a5.754,5.754,0,0,0-2.272-.389H246.2v7.992h1.753v-2.908h2.367l2.972,2.908h2.392l-3.1-2.908a5,5,0,0,0,2.085-.4,1.73,1.73,0,0,0,1.133-1.651v-.919a1.8,1.8,0,0,0-1.234-1.728Zm-.526,2.661c0,.354-.408.527-1.222.527h-4.862v-2.073H252.5c1.021,0,1.533.192,1.533.578v.968Z" transform="translate(-135.4 52.699)"/>
      <path id="Path_1649" data-name="Path 1649" class="cls-1" d="M277.973-44.659h1.76v-7.99h-1.76v7.99Z" transform="translate(-144.877 52.699)"/>
      <path id="Path_1650" data-name="Path 1650" class="cls-1" d="M266.389-47.906h3.585v1.179c0,.167-.2.31-.593.422a2.9,2.9,0,0,1-.806.128h-3.02c-1.117,0-1.681-.191-1.681-.582v-3.813c0-.381.456-.574,1.362-.574h6.278v-1.5h-5.962a5.346,5.346,0,0,0-2.2.414,1.769,1.769,0,0,0-1.236,1.665v3.813a1.781,1.781,0,0,0,1.209,1.7,5.419,5.419,0,0,0,2.2.4h3.044a4.5,4.5,0,0,0,2.082-.434,1.8,1.8,0,0,0,1.076-1.686v-2.633h-5.344v1.507Z" transform="translate(-140.148 52.699)"/>
      <path id="Path_1651" data-name="Path 1651" class="cls-1" d="M204.463-47.906h3.59v1.179c0,.167-.2.31-.592.422a2.9,2.9,0,0,1-.806.128h-3.02c-1.119,0-1.681-.191-1.681-.582v-3.813c0-.381.454-.574,1.361-.574h6.277v-1.5H203.63a5.358,5.358,0,0,0-2.2.414,1.772,1.772,0,0,0-1.235,1.665v3.813a1.782,1.782,0,0,0,1.209,1.7,5.433,5.433,0,0,0,2.209.4h3.046a4.485,4.485,0,0,0,2.076-.434,1.8,1.8,0,0,0,1.076-1.686v-2.633h-5.348v1.507Z" transform="translate(-121.68 52.699)"/>
      <path id="Path_1652" data-name="Path 1652" class="cls-1" d="M291.765-44.681h1.971l-5.091-7.5a1.061,1.061,0,0,0-.931-.539,1.078,1.078,0,0,0-.939.543l-5.2,7.5h2.062l1.158-1.732h5.774l1.192,1.732Zm-5.947-3.241,1.834-2.743,1.881,2.743Z" transform="translate(-145.953 52.72)"/>
      <path id="Path_1653" data-name="Path 1653" class="cls-1" d="M147.624-52.651h-2.414l-4.368,4.044v-4.044h-1.758v7.99h1.758V-46.7l1.3-1.141,3.209,3.134h2.419l-4.435-4.181,4.287-3.76Z" transform="translate(-103.454 52.699)"/>
    </g>
    <path id="Path_1654" data-name="Path 1654" class="cls-4" d="M61.63-22.045V-41.8l.053-.133.839-.9.34-.436v21.218a3.794,3.794,0,0,1-1.113,2.683,3.794,3.794,0,0,1-2.686,1.114H26.808a3.788,3.788,0,0,1-2.685-1.114,3.785,3.785,0,0,1-1.113-2.683v-2.641a10.7,10.7,0,0,0,1.054.368l.182.02v2.253h0A2.549,2.549,0,0,0,25-20.237a2.558,2.558,0,0,0,1.812.751H59.063a2.557,2.557,0,0,0,1.815-.751,2.546,2.546,0,0,0,.752-1.808Z" transform="translate(-0.336 -6.158)"/>
    <path id="Path_1655" data-name="Path 1655" class="cls-4" d="M24.244-60.608V-33.13l-.2-.008c-.142,0-.28-.013-.413-.02l-.439-.033-.182-.018v-27.4a3.8,3.8,0,0,1,1.116-2.685,3.794,3.794,0,0,1,2.686-1.113H59.063a3.785,3.785,0,0,1,2.685,1.116,3.793,3.793,0,0,1,1.113,2.681v4.529l-.3-.2-.051-.039h0l-.016-.013-.074-.1a2.56,2.56,0,0,0-.27-.569,3.38,3.38,0,0,0-.445-.568l-.03-.042-.008-.014-.01-.016-.023-.095v-2.876a2.559,2.559,0,0,0-.752-1.809,2.564,2.564,0,0,0-1.812-.751v0l-32.255,0A2.559,2.559,0,0,0,25-62.417a2.548,2.548,0,0,0-.752,1.809Z" transform="translate(-0.335)"/>
    <g id="Group_1482" data-name="Group 1482" transform="translate(68.02 -39.672)">
      <path id="Path_1656" data-name="Path 1656" class="cls-5" d="M93.259-24.7H91.427l-2.78-1.545V-24.7h-1v-4.6h3.575a2.916,2.916,0,0,1,1.482.314.988.988,0,0,1,.53.895v.526a.947.947,0,0,1-.13.5,1.084,1.084,0,0,1-.373.366,1.951,1.951,0,0,1-.591.227,3.534,3.534,0,0,1-.779.079h-1.17Zm-1.036-2.86v-.552q0-.327-.88-.327h-2.7v1.182h2.872Q92.223-27.256,92.222-27.559Z" transform="translate(-87.647 29.304)"/>
      <path id="Path_1657" data-name="Path 1657" class="cls-5" d="M101.366-24.7h-3.23a3.344,3.344,0,0,1-.764-.081,1.916,1.916,0,0,1-.594-.24,1.19,1.19,0,0,1-.385-.378.948.948,0,0,1-.136-.506v-2.175A.949.949,0,0,1,96.4-28.6a1.2,1.2,0,0,1,.4-.384,2.1,2.1,0,0,1,.618-.243,3.473,3.473,0,0,1,.791-.085h3.157v.873H98.257q-1,0-1,.352v.66h3.206v.879H97.257v.612q0,.358.909.358h3.2Z" transform="translate(-90.215 29.307)"/>
      <path id="Path_1658" data-name="Path 1658" class="cls-5" d="M109.716-27.544a1.04,1.04,0,0,1-.516.942,2.76,2.76,0,0,1-1.456.321H105.1V-24.7h-1v-4.6h3.685a3.65,3.65,0,0,1,.769.076,2.319,2.319,0,0,1,.612.215,1.168,1.168,0,0,1,.406.338.753.753,0,0,1,.146.454Zm-1-.024v-.486a.21.21,0,0,0-.079-.152.626.626,0,0,0-.213-.122,1.862,1.862,0,0,0-.3-.079,1.933,1.933,0,0,0-.337-.03H105.1v1.3h2.7Q108.716-27.141,108.716-27.567Z" transform="translate(-92.553 29.304)"/>
      <path id="Path_1659" data-name="Path 1659" class="cls-5" d="M118.233-24.7H116.4l-2.78-1.545V-24.7h-1v-4.6H116.2a2.917,2.917,0,0,1,1.482.314.987.987,0,0,1,.53.895v.526a.947.947,0,0,1-.13.5,1.084,1.084,0,0,1-.373.366,1.952,1.952,0,0,1-.591.227,3.534,3.534,0,0,1-.779.079h-1.169Zm-1.036-2.86v-.552q0-.327-.881-.327h-2.7v1.182h2.872Q117.2-27.256,117.2-27.559Z" transform="translate(-95.096 29.304)"/>
      <path id="Path_1660" data-name="Path 1660" class="cls-5" d="M126.34-24.7h-3.23a3.339,3.339,0,0,1-.764-.081,1.92,1.92,0,0,1-.594-.24,1.187,1.187,0,0,1-.385-.378.943.943,0,0,1-.137-.506v-2.175a.943.943,0,0,1,.143-.513,1.2,1.2,0,0,1,.4-.384,2.11,2.11,0,0,1,.618-.243,3.482,3.482,0,0,1,.791-.085h3.158v.873h-3.109q-1,0-1,.352v.66h3.206v.879h-3.206v.612q0,.358.909.358h3.2Z" transform="translate(-97.663 29.307)"/>
      <path id="Path_1661" data-name="Path 1661" class="cls-5" d="M134.194-25.971a1.576,1.576,0,0,1-.1.588.832.832,0,0,1-.329.394,1.684,1.684,0,0,1-.618.221,5.579,5.579,0,0,1-.966.069h-3.13v-.872h3.285q.855,0,.855-.345v-.3q0-.368-.97-.369H130.83a2.9,2.9,0,0,1-.705-.081,1.88,1.88,0,0,1-.561-.233,1.2,1.2,0,0,1-.373-.363.85.85,0,0,1-.137-.472v-.333a1.238,1.238,0,0,1,.115-.553.905.905,0,0,1,.37-.381,2.017,2.017,0,0,1,.662-.221,5.918,5.918,0,0,1,1-.072h2.99v.86h-3.115q-1.023,0-1.024.358v.267q0,.333,1.079.333h1.06a3.706,3.706,0,0,1,.951.1,1.61,1.61,0,0,1,.615.3,1.076,1.076,0,0,1,.333.472A1.879,1.879,0,0,1,134.194-25.971Z" transform="translate(-99.997 29.304)"/>
      <path id="Path_1662" data-name="Path 1662" class="cls-5" d="M142.135-24.7H138.9a3.344,3.344,0,0,1-.764-.081,1.916,1.916,0,0,1-.594-.24,1.19,1.19,0,0,1-.385-.378.948.948,0,0,1-.136-.506v-2.175a.949.949,0,0,1,.142-.513,1.2,1.2,0,0,1,.4-.384,2.1,2.1,0,0,1,.618-.243,3.473,3.473,0,0,1,.791-.085h3.157v.873h-3.109q-1,0-1,.352v.66h3.206v.879h-3.206v.612q0,.358.909.358h3.2Z" transform="translate(-102.374 29.307)"/>
      <path id="Path_1663" data-name="Path 1663" class="cls-5" d="M150.454-25.3q0,.6-.491.6a.868.868,0,0,1-.576-.236l-3.521-2.975V-24.7h-1v-4.024q0-.582.485-.582a.966.966,0,0,1,.624.261l3.479,2.945v-3.206h1Z" transform="translate(-104.713 29.307)"/>
      <path id="Path_1664" data-name="Path 1664" class="cls-5" d="M158.481-28.438h-2.048V-24.7h-1v-3.739H153.39v-.86h5.091Z" transform="translate(-107.255 29.304)"/>
      <path id="Path_1665" data-name="Path 1665" class="cls-5" d="M168.146-24.7h-1.127l-.837-1.187h-3.115l-.812,1.187h-1.188l3.006-4.291a.67.67,0,0,1,.564-.315A.653.653,0,0,1,165.2-29ZM164.6-28.131l-.934,1.369h1.9Z" transform="translate(-109.544 29.307)"/>
      <path id="Path_1666" data-name="Path 1666" class="cls-5" d="M174.776-28.438h-2.048V-24.7h-1v-3.739h-2.042v-.86h5.09Z" transform="translate(-112.115 29.304)"/>
      <path id="Path_1667" data-name="Path 1667" class="cls-5" d="M178.493-24.7h-1v-4.606h1Z" transform="translate(-114.443 29.307)"/>
      <path id="Path_1668" data-name="Path 1668" class="cls-5" d="M186.545-29.3l-3,4.291a.667.667,0,0,1-.569.309.632.632,0,0,1-.552-.309L179.479-29.3H180.6l2.418,3.429,2.345-3.429Z" transform="translate(-115.035 29.304)"/>
      <path id="Path_1669" data-name="Path 1669" class="cls-5" d="M194.847-24.7h-3.23a3.35,3.35,0,0,1-.764-.081,1.916,1.916,0,0,1-.594-.24,1.187,1.187,0,0,1-.385-.378.949.949,0,0,1-.137-.506v-2.175a.949.949,0,0,1,.142-.513,1.2,1.2,0,0,1,.4-.384,2.094,2.094,0,0,1,.618-.243,3.464,3.464,0,0,1,.791-.085h3.157v.873h-3.109q-1,0-1,.352v.66h3.206v.879h-3.206v.612q0,.358.909.358h3.2Z" transform="translate(-118.095 29.307)"/>
      <path id="Path_1670" data-name="Path 1670" class="cls-5" d="M210.1-25.986q0,1.285-2.119,1.285h-1.234a3.071,3.071,0,0,1-1.562-.328,1.048,1.048,0,0,1-.551-.957V-28.01q0-1.3,2.113-1.3h1.234a5.379,5.379,0,0,1,.978.076,1.881,1.881,0,0,1,.657.236.96.96,0,0,1,.37.406,1.359,1.359,0,0,1,.115.579Zm-1-.018v-1.988q0-.442-1.1-.442h-1.257q-1.111,0-1.111.442V-26q0,.429,1.111.43H208Q209.1-25.574,209.1-26Z" transform="translate(-122.538 29.307)"/>
      <path id="Path_1671" data-name="Path 1671" class="cls-5" d="M217.292-26.553H214.08V-24.7h-1v-3.474a.755.755,0,0,1,.151-.46,1.289,1.289,0,0,1,.409-.354,2.262,2.262,0,0,1,.6-.23,3.193,3.193,0,0,1,.733-.081h3.194v.86c-.352,0-.7,0-1.034-.006s-.657,0-.96,0-.583.01-.839.025a5.775,5.775,0,0,0-.663.069,1.491,1.491,0,0,0-.437.133.25.25,0,0,0-.157.218v.576h3.212Z" transform="translate(-125.057 29.304)"/>
      <path id="Path_1672" data-name="Path 1672" class="cls-5" d="M225.029-26.553h-3.212V-24.7h-1v-3.474a.76.76,0,0,1,.151-.46,1.289,1.289,0,0,1,.409-.354,2.257,2.257,0,0,1,.6-.23,3.188,3.188,0,0,1,.733-.081h3.193v.86q-.527,0-1.033-.006c-.338,0-.658,0-.961,0s-.583.01-.839.025a5.792,5.792,0,0,0-.663.069,1.479,1.479,0,0,0-.437.133.25.25,0,0,0-.158.218v.576h3.212Z" transform="translate(-127.364 29.304)"/>
      <path id="Path_1673" data-name="Path 1673" class="cls-5" d="M229.563-24.7h-1v-4.606h1Z" transform="translate(-129.675 29.307)"/>
      <path id="Path_1674" data-name="Path 1674" class="cls-5" d="M235.8-24.7h-3.1q-2.031,0-2.031-1.242v-2.182a.96.96,0,0,1,.13-.494,1.09,1.09,0,0,1,.373-.373,1.948,1.948,0,0,1,.6-.233,3.6,3.6,0,0,1,.806-.082H235.8v.873h-3.333c-.534,0-.8.1-.8.3v2.175q0,.381,1.031.382h3.1Z" transform="translate(-130.301 29.307)"/>
      <path id="Path_1675" data-name="Path 1675" class="cls-5" d="M243.6-24.7h-3.229a3.346,3.346,0,0,1-.764-.081,1.915,1.915,0,0,1-.594-.24,1.19,1.19,0,0,1-.385-.378.955.955,0,0,1-.136-.506v-2.175a.949.949,0,0,1,.142-.513,1.191,1.191,0,0,1,.4-.384,2.1,2.1,0,0,1,.618-.243,3.473,3.473,0,0,1,.791-.085H243.6v.873h-3.109q-1,0-1,.352v.66H242.7v.879h-3.206v.612q0,.358.909.358h3.2Z" transform="translate(-132.637 29.307)"/>
      <path id="Path_1676" data-name="Path 1676" class="cls-5" d="M258.969-26.04a1.1,1.1,0,0,1-.536,1.015,3.411,3.411,0,0,1-1.7.324h-1.1a6.087,6.087,0,0,1-1.044-.076,1.992,1.992,0,0,1-.691-.236.963.963,0,0,1-.382-.415,1.446,1.446,0,0,1-.118-.612v-3.267h1.013v3.224q0,.521,1.115.521h1.351q1.092,0,1.091-.521v-3.224h1Z" transform="translate(-137.082 29.307)"/>
      <path id="Path_1677" data-name="Path 1677" class="cls-5" d="M266.179-24.7h-1.387L263-26.447V-24.7h-.987v-4.606H263v1.691l1.794-1.691h1.387l-2.557,2.225Z" transform="translate(-139.65 29.307)"/>
      <path id="Path_1678" data-name="Path 1678" class="cls-5" d="M280.379-24.7H277.84a6.01,6.01,0,0,1-1.011-.072,2.1,2.1,0,0,1-.686-.227.966.966,0,0,1-.392-.394,1.221,1.221,0,0,1-.124-.566v-3.345h1v3.345a.268.268,0,0,0,.066.185.463.463,0,0,0,.215.121,1.884,1.884,0,0,0,.388.064c.159.012.355.018.585.018h2.5Z" transform="translate(-143.712 29.307)"/>
      <path id="Path_1679" data-name="Path 1679" class="cls-5" d="M287.843-28.438h-2.048V-24.7h-1v-3.739h-2.042v-.86h5.091Z" transform="translate(-145.836 29.304)"/>
      <path id="Path_1680" data-name="Path 1680" class="cls-5" d="M296.188-25.993a1.062,1.062,0,0,1-.139.543,1.231,1.231,0,0,1-.392.406,1.926,1.926,0,0,1-.6.255,3.117,3.117,0,0,1-.764.088h-3.739v-4.606h3.757a3.432,3.432,0,0,1,.785.082,1.868,1.868,0,0,1,.591.236,1.064,1.064,0,0,1,.369.382,1.047,1.047,0,0,1,.128.524Zm-1,0v-2.079a.2.2,0,0,0-.069-.145.54.54,0,0,0-.194-.112,1.524,1.524,0,0,0-.286-.073,2.033,2.033,0,0,0-.342-.027h-2.738v2.86h2.719a1.608,1.608,0,0,0,.656-.115C295.1-25.765,295.188-25.869,295.188-26Z" transform="translate(-148.165 29.307)"/>
    </g>
  </g>
</svg>
