<svg xmlns="http://www.w3.org/2000/svg" width="189.822" height="40" viewBox="0 0 189.822 40">
  <defs>
    <style>
      .cls-1, .cls-2 {
        fill: #414139;
      }

      .cls-1, .cls-3, .cls-4 {
        fill-rule: evenodd;
      }

      .cls-3 {
        fill: #fff;
      }

      .cls-4 {
        fill: #3b3e37;
      }
    </style>
  </defs>
  <g id="Group_1513" data-name="Group 1513" transform="translate(-47.385 -134.152)">
    <g id="Group_1505" data-name="Group 1505" transform="translate(95.72 149.35)">
      <path id="Path_2882" data-name="Path 2882" class="cls-1" d="M227.981,150.421v8.094h-1.436v-8.094h-3.968v-1.343h9.249v1.343h-3.845Z" transform="translate(-90.339 -148.891)"/>
      <path id="Path_2883" data-name="Path 2883" class="cls-1" d="M218.322,155.35l2.542,3.053.091.112h-1.785l-.021-.026L216.58,155.4h-3.436v3.117h-1.438v-9.437h5.742a3.708,3.708,0,0,1,2.545.833,2.99,2.99,0,0,1,.9,2.318,3.212,3.212,0,0,1-.708,2.159,2.945,2.945,0,0,1-1.866.962Zm.617-4.451a2.19,2.19,0,0,0-1.491-.478h-4.3v3.633h4.3a2.2,2.2,0,0,0,1.495-.48,1.736,1.736,0,0,0,.517-1.345A1.709,1.709,0,0,0,218.94,150.9Z" transform="translate(-90.673 -148.891)"/>
      <path id="Path_2884" data-name="Path 2884" class="cls-1" d="M210.177,158.515h-1.483l-.018-.037-1.082-2.042h-5.936l-1.082,2.042-.019.037h-1.593l.053-.1,4.962-9.3.019-.035h1.274l.021.035,4.944,9.3.054.1Zm-7.812-3.422h4.523l-2.247-4.271Z" transform="translate(-91.065 -148.891)"/>
      <path id="Path_2885" data-name="Path 2885" class="cls-1" d="M175.339,158.515h-1.481l-.022-.037-1.081-2.042h-5.934l-1.082,2.042-.021.037h-1.592l.054-.1,4.961-9.3.02-.035h1.273l.02.035,4.946,9.3.053.1Zm-7.812-3.422h4.523l-2.247-4.271Z" transform="translate(-92.135 -148.891)"/>
      <path id="Path_2886" data-name="Path 2886" class="cls-1" d="M160.534,150.421v8.094H159.1v-8.094h-3.97v-1.343h9.25v1.343h-3.845Z" transform="translate(-92.411 -148.891)"/>
      <path id="Path_2887" data-name="Path 2887" class="cls-1" d="M150.375,157.677l-.822.9-.044.048-.048-.044-1.148-1.013a3.842,3.842,0,0,1-1.365.828,6.338,6.338,0,0,1-4.835-.338,2.476,2.476,0,0,1-.361-3.914,5.127,5.127,0,0,1,1.57-.965c-.69-.628-1.249-1.044-1.249-2.059a1.961,1.961,0,0,1,.783-1.615,3.428,3.428,0,0,1,2.09-.606,2.928,2.928,0,0,1,1.855.538,1.848,1.848,0,0,1,.661,1.514,2.513,2.513,0,0,1-.561,1.595,4.429,4.429,0,0,1-1.162.988L148,155.513a3.757,3.757,0,0,0,.154-1.093v-.066h1.436v.066a4.988,4.988,0,0,1-.121,1.108,4.331,4.331,0,0,1-.345.97l1.247,1.082.053.044Zm-7.267-.55a5,5,0,0,0,3.24.075,2.751,2.751,0,0,0,.931-.546l-2.828-2.483a5.907,5.907,0,0,0-1.489.757A1.267,1.267,0,0,0,143.108,157.126Zm.4-5.961c0,.6.754,1.065,1.153,1.423a3.232,3.232,0,0,0,1.011-.747,1.345,1.345,0,0,0,.354-.878.667.667,0,0,0-.27-.581,1.449,1.449,0,0,0-.841-.205C144.275,150.177,143.507,150.393,143.507,151.166Z" transform="translate(-92.846 -148.897)"/>
      <path id="Path_2888" data-name="Path 2888" class="cls-1" d="M132.213,150.421v8.094h-1.435v-8.094H126.81v-1.343h9.249v1.343h-3.845Z" transform="translate(-93.281 -148.891)"/>
      <path id="Path_2889" data-name="Path 2889" class="cls-1" d="M127.758,157.273v1.275h-8.351v-9.437h1.435v8.095h6.916Z" transform="translate(-93.508 -148.89)"/>
      <path id="Path_2890" data-name="Path 2890" class="cls-1" d="M117.229,158.515h-1.482l-.02-.037-1.081-2.042h-5.938l-1.081,2.042-.02.037h-1.592l.053-.1,4.962-9.3.02-.035h1.275l.018.035,4.945,9.3.053.1Zm-7.812-3.422h4.521l-2.246-4.271Z" transform="translate(-93.92 -148.891)"/>
      <path id="Path_2891" data-name="Path 2891" class="cls-1" d="M103.8,153.273v4.293a8.539,8.539,0,0,1-4.286,1.141,5.562,5.562,0,0,1-3.867-1.291,5.42,5.42,0,0,1,.036-7.227,5.8,5.8,0,0,1,3.987-1.291,9.5,9.5,0,0,1,1.991.207,9.068,9.068,0,0,1,1.851.619l.053.026-.019.057-.355,1.13-.023.073-.07-.03a8.041,8.041,0,0,0-1.659-.55,8.169,8.169,0,0,0-1.739-.19,4.349,4.349,0,0,0-2.957.935,3.375,3.375,0,0,0-1.022,2.642,3.446,3.446,0,0,0,.987,2.642,4.1,4.1,0,0,0,2.852.935,7.4,7.4,0,0,0,1.512-.159,7.9,7.9,0,0,0,1.445-.452V154.4H98.731v-1.189H103.8Z" transform="translate(-94.28 -148.897)"/>
      <path id="Path_2892" data-name="Path 2892" class="cls-1" d="M185.675,153.273v4.293a8.539,8.539,0,0,1-4.285,1.141,5.563,5.563,0,0,1-3.868-1.291,5.42,5.42,0,0,1,.036-7.227,5.809,5.809,0,0,1,3.988-1.291,9.472,9.472,0,0,1,1.989.207,9.077,9.077,0,0,1,1.852.619l.054.026-.016.057-.359,1.13-.023.073-.068-.03a8.059,8.059,0,0,0-1.662-.55,8.142,8.142,0,0,0-1.737-.19,4.348,4.348,0,0,0-2.959.935,3.378,3.378,0,0,0-1.02,2.642,3.443,3.443,0,0,0,.987,2.642,4.1,4.1,0,0,0,2.851.935,7.4,7.4,0,0,0,1.512-.159,7.882,7.882,0,0,0,1.446-.452V154.4h-3.785v-1.189h5.066Z" transform="translate(-91.765 -148.897)"/>
      <path id="Path_2893" data-name="Path 2893" class="cls-1" d="M197.685,153.273v4.293a8.539,8.539,0,0,1-4.285,1.141,5.562,5.562,0,0,1-3.866-1.291,5.42,5.42,0,0,1,.034-7.227,5.808,5.808,0,0,1,3.989-1.291,9.472,9.472,0,0,1,1.989.207,9.077,9.077,0,0,1,1.852.619l.053.026-.016.057-.357,1.13-.024.073-.068-.03a8.288,8.288,0,0,0-3.4-.74,4.348,4.348,0,0,0-2.958.935,3.378,3.378,0,0,0-1.021,2.642,3.446,3.446,0,0,0,.987,2.642,4.105,4.105,0,0,0,2.852.935,7.421,7.421,0,0,0,1.513-.159,7.9,7.9,0,0,0,1.443-.452V154.4h-3.784v-1.189h5.066Z" transform="translate(-91.396 -148.897)"/>
    </g>
    <g id="Group_1507" data-name="Group 1507" transform="translate(116.436 164.778)">
      <g id="Group_1506" data-name="Group 1506" transform="translate(0 0.003)">
        <path id="Path_2894" data-name="Path 2894" class="cls-2" d="M116.188,164.347a2.826,2.826,0,0,1,1.193.258l.028.013.138-.448-.021-.009a3.125,3.125,0,0,0-1.338-.293,1.729,1.729,0,1,0,0,3.454,3.125,3.125,0,0,0,1.338-.293l.021-.009-.138-.447-.028.011a2.813,2.813,0,0,1-1.193.261,1.25,1.25,0,1,1,0-2.5Z" transform="translate(-114.378 -163.868)"/>
        <path id="Path_2895" data-name="Path 2895" class="cls-2" d="M122.524,165.043a1.052,1.052,0,0,0-1.2-1.11h-1.991v3.32h.5v-1.095h1.187l.887,1.085.009.009h.627l-.913-1.112A1.013,1.013,0,0,0,122.524,165.043Zm-2.686-.633h1.488a.638.638,0,1,1,0,1.272h-1.488Z" transform="translate(-114.226 -163.866)"/>
        <path id="Path_2896" data-name="Path 2896" class="cls-2" d="M124.4,167.253h2.9v-.476h-2.395v-.944h2.131v-.479h-2.131v-.944H127.3v-.477h-2.9Z" transform="translate(-114.07 -163.866)"/>
        <path id="Path_2897" data-name="Path 2897" class="cls-2" d="M130.982,163.933h-.444l-1.747,3.32h.56l.381-.73h2.052l.374.716.008.013h.558l-1.733-3.308Zm.553,2.113h-1.556l.783-1.492Z" transform="translate(-113.935 -163.866)"/>
        <path id="Path_2898" data-name="Path 2898" class="cls-2" d="M133.482,164.41h1.375v2.842h.5V164.41h1.33v-.477h-3.21Z" transform="translate(-113.791 -163.866)"/>
        <rect id="Rectangle_729" data-name="Rectangle 729" class="cls-2" width="0.503" height="3.319" transform="translate(24.719 0.067)"/>
        <path id="Path_2899" data-name="Path 2899" class="cls-2" d="M143.721,166.537l-2.264-2.6-.01-.008h-.488v3.319h.5v-2.6l2.265,2.59.007.008h.49v-3.319h-.5Z" transform="translate(-113.562 -163.866)"/>
        <path id="Path_2900" data-name="Path 2900" class="cls-2" d="M155.129,163.868a1.729,1.729,0,1,0,1.811,1.726A1.61,1.61,0,0,0,155.129,163.868Zm0,.479a1.25,1.25,0,1,1-1.306,1.247A1.164,1.164,0,0,1,155.129,164.347Z" transform="translate(-113.182 -163.868)"/>
        <path id="Path_2901" data-name="Path 2901" class="cls-2" d="M160.784,163.933h-1.993v3.32h.505v-1.095h1.488a1.116,1.116,0,1,0,0-2.225Zm0,1.749H159.3V164.41h1.488c.441,0,.694.231.694.633A.608.608,0,0,1,160.784,165.682Z" transform="translate(-113.014 -163.866)"/>
        <path id="Path_2902" data-name="Path 2902" class="cls-2" d="M165.7,163.933H163.71v3.32h.505v-1.095H165.7a1.116,1.116,0,1,0,0-2.225Zm0,1.749h-1.488V164.41H165.7a.638.638,0,1,1,0,1.272Z" transform="translate(-112.863 -163.866)"/>
        <path id="Path_2903" data-name="Path 2903" class="cls-2" d="M170.3,163.868a1.729,1.729,0,1,0,1.809,1.726A1.611,1.611,0,0,0,170.3,163.868Zm0,.479a1.25,1.25,0,1,1-1.307,1.247A1.164,1.164,0,0,1,170.3,164.347Z" transform="translate(-112.716 -163.868)"/>
        <path id="Path_2904" data-name="Path 2904" class="cls-2" d="M177.15,165.043a1.052,1.052,0,0,0-1.2-1.11h-1.991v3.32h.5v-1.095h1.187l.888,1.085.005.009h.63l-.913-1.112A1.012,1.012,0,0,0,177.15,165.043Zm-2.686-.633h1.488c.441,0,.694.231.694.633a.608.608,0,0,1-.694.639h-1.488Z" transform="translate(-112.548 -163.866)"/>
        <path id="Path_2905" data-name="Path 2905" class="cls-2" d="M178.65,164.41h1.376v2.842h.5V164.41h1.332v-.477H178.65Z" transform="translate(-112.404 -163.866)"/>
        <path id="Path_2906" data-name="Path 2906" class="cls-2" d="M186.269,165.592c0,.794-.415,1.25-1.14,1.25a1.092,1.092,0,0,1-1.14-1.25v-1.659h-.5v1.659a1.645,1.645,0,1,0,3.286,0v-1.659h-.5Z" transform="translate(-112.255 -163.866)"/>
        <path id="Path_2907" data-name="Path 2907" class="cls-2" d="M191.506,166.537l-2.264-2.6-.009-.008h-.489v3.319h.5v-2.6l2.265,2.59.007.008h.49v-3.319h-.5Z" transform="translate(-112.094 -163.866)"/>
        <rect id="Rectangle_730" data-name="Rectangle 730" class="cls-2" width="0.504" height="3.319" transform="translate(82.075 0.067)"/>
        <path id="Path_2908" data-name="Path 2908" class="cls-2" d="M196.259,164.41h1.374v2.842h.5V164.41h1.332v-.477h-3.21Z" transform="translate(-111.863 -163.866)"/>
        <rect id="Rectangle_731" data-name="Rectangle 731" class="cls-2" width="0.504" height="3.319" transform="translate(89.422 0.067)"/>
        <path id="Path_2909" data-name="Path 2909" class="cls-2" d="M203.737,167.253h2.9v-.476H204.24v-.944h2.132v-.479H204.24v-.944h2.395v-.477h-2.9Z" transform="translate(-111.633 -163.866)"/>
        <path id="Path_2910" data-name="Path 2910" class="cls-2" d="M209.773,165.356l-.12-.02c-.45-.077-.841-.143-.841-.489,0-.454.717-.5,1.026-.5a2.957,2.957,0,0,1,1.23.258l.026.012.174-.447-.023-.009a3.357,3.357,0,0,0-1.39-.293c-.969,0-1.549.373-1.549,1,0,.691.691.851,1.457.968l.083.015c.571.093,1.025.167,1.025.51,0,.452-.753.5-1.078.5a3.481,3.481,0,0,1-1.352-.276l-.028-.01-.138.448.022.008a3.774,3.774,0,0,0,1.472.292c.775,0,1.6-.261,1.6-.987C211.371,165.674,210.709,165.511,209.773,165.356Z" transform="translate(-111.494 -163.868)"/>
      </g>
      <path id="Path_2911" data-name="Path 2911" class="cls-2" d="M147.6,165.364v.465h1.3v.784a2.547,2.547,0,0,1-.475.15,2.5,2.5,0,0,1-.513.055,1.371,1.371,0,0,1-.961-.318,1.179,1.179,0,0,1-.332-.9,1.155,1.155,0,0,1,.343-.9,1.447,1.447,0,0,1,1-.318,2.8,2.8,0,0,1,1.156.255l.049.023.149-.48,0-.008-.039-.018a3.134,3.134,0,0,0-1.33-.291,2,2,0,0,0-1.387.457,1.931,1.931,0,0,0-.011,2.548,1.917,1.917,0,0,0,1.347.456,2.9,2.9,0,0,0,1.482-.4l.013-.007v-1.555Z" transform="translate(-113.404 -163.865)"/>
    </g>
    <g id="Group_1508" data-name="Group 1508" transform="translate(47.385 134.153)">
      <path id="Path_2912" data-name="Path 2912" class="cls-3" d="M67.386,134.153a20,20,0,1,1-20,20A20,20,0,0,1,67.386,134.153Z" transform="translate(-47.385 -134.153)"/>
      <path id="Path_2913" data-name="Path 2913" class="cls-3" d="M67.551,135.051a18.868,18.868,0,1,1-18.869,18.868,18.868,18.868,0,0,1,18.869-18.868Z" transform="translate(-47.345 -134.125)"/>
      <path id="Path_2914" data-name="Path 2914" class="cls-4" d="M73.751,151.89a3.824,3.824,0,0,1,1.606-2.458,1.93,1.93,0,0,0-1.617.308c-.649.55-.179,1.472.011,2.15Zm-8.99-1.912a1.826,1.826,0,0,0-.354,1.609c.172.485.609.379.974.416a.461.461,0,0,1,.464.322,2.381,2.381,0,0,0-2.067,1.53c-.268.864-.052,1.91.415,2.1a2.42,2.42,0,0,1,.638-2.269A2.45,2.45,0,0,1,67,153.6a1.482,1.482,0,0,1,1.094,1.143,1.893,1.893,0,0,1,.744-1.186.524.524,0,0,0,.2-.6c-.144-.521-.683-.679-1.141-.8a4.9,4.9,0,0,1-1.577-.488c-.367-.233-.26-.686-.014-.975-.1-.155-.183-.362-.289-.552C65.712,149.58,65.217,149.4,64.761,149.978Zm-2.047,1.365A4.7,4.7,0,0,0,59,150.271a4.685,4.685,0,0,0,.311,2.448,5.969,5.969,0,0,0-2.4,4.275c-1.357-3.086-1.542-7.414,1.341-9.731a3.88,3.88,0,0,1,5.03.154c.73.675.591,1.09.078,1.949A3.914,3.914,0,0,0,62.714,151.343Zm-3.061-.316c1.3.4,2.851,1.068,3.291,2.449.236.746.055,1.619-.634,1.692.3-.174.244-.617.211-.8a2.491,2.491,0,0,1-2.046-1.042,4.963,4.963,0,0,1,1.812.478c-.351-.674-1.016-.738-1.645-.961S59.675,152.269,59.653,151.027ZM52.041,153.1s3.492,1.917,4.636,4.9a16.557,16.557,0,0,1,1.134,5.412c-.868.316-2.235.627-2.871-.228a8.967,8.967,0,0,1-.828-1.427,10.132,10.132,0,0,1-1.078-4.829A15.864,15.864,0,0,0,55.273,162,26.567,26.567,0,0,0,52.041,153.1Zm11.21,19.3a18.477,18.477,0,0,1-3.815-1.3,18.731,18.731,0,1,1,26.049-21.689c.669,2.583.952,6.715-.059,9.258-1.444,3.631-5.968,3.911-8.247.92-1.6-2.1-1.921-5.477-2.854-7.027a4.285,4.285,0,0,1-.3.878,2.6,2.6,0,0,1,.294,2.514c-.266.53-.725.908-.953,1.418a2.271,2.271,0,0,0-.154,1.556c.489-.456.816-.75,1.092-.995,2.676,3.149,5,5.868,6,9.718a19.277,19.277,0,0,1-7.245,4.313,18.587,18.587,0,0,1-4.741.86,19.1,19.1,0,0,1,.655-2.707,20.641,20.641,0,0,0-1.821,1.451c.474-1.859,1.129-2.859,2.686-5.521,1.64-2.734.924-4.566.924-4.566a25.315,25.315,0,0,0-3.365,4.645,12.75,12.75,0,0,0-1.25-3.844,4.641,4.641,0,0,0,1.782-.069,11.091,11.091,0,0,1-2.982-5.17c.631.756,2.93,2.464,4.139.181a4.263,4.263,0,0,0,2.412,1.981,1.328,1.328,0,0,1,.555-1.656c.643-.42-.1-.895-.685-.86a6.065,6.065,0,0,0-2.281.535,1.686,1.686,0,0,1-.91-1.845c.147.276.489.963,1.061,1.014s1.812-.281,1.764-1.01c-.024-.365-.376-.474-.767-.268-.294-.153-.31-1.19.074-1.154a4.718,4.718,0,0,0,1.074.2,1.074,1.074,0,0,0,.828-.21c.312.272.366.9-.072.924-.113.007-.239-.01-.317.055a.8.8,0,0,0,.079,1,.821.821,0,0,0,1.207-.039,1.634,1.634,0,0,0,.323-1.722c-.384-1-1.655-1.308-2.679-1.227a4.225,4.225,0,0,0-1.109.24c-.094-3.805-2.061-2.053-2.9-4.549,2.25-3.188,4.656-1.417,4.277,1.453a7.353,7.353,0,0,1,1.677,1.986,2.786,2.786,0,0,0-.736-2.215,6.8,6.8,0,0,0,.275-.793c.2-.565.411-.432.61.039a1.853,1.853,0,0,1,.135.483,1.94,1.94,0,0,0-.574-2.331c-.325-.278-.84-.031-1.15.2a2.824,2.824,0,0,1-.437-.448c-1.836-1.909-3.552-1.662-4.851-.192a6.207,6.207,0,0,0-7.886-2.175,9.754,9.754,0,0,0-4.92,6.014,8.725,8.725,0,0,1,5.555-7.7c4.248-1.276,7.622.166,9.321,2.65.6-1,3.112-4,6.028-2.629,3.659,1.725,3.751,9.044,4.672,12.513.391,1.474,1.019,3.2,2.666,3.619a2.685,2.685,0,0,0,1.944-.224c2.284-1.341,1.563-6.952,1.009-9.116A17.54,17.54,0,1,0,60.656,170.34c-.3-1.662-.342-4.251,1.326-4.909-2.566-5.221-1.863-9.18-1.322-10.8a2.908,2.908,0,0,0,1.277.982c.094.6.013,4.43,3.192,6.442-1.827-.291-2.574-1.192-3.673-2.709a9.332,9.332,0,0,0,2.838,6.079C61.153,166.127,61.739,169.211,63.251,172.4Z" transform="translate(-47.347 -134.115)"/>
      <path id="Path_2915" data-name="Path 2915" class="cls-4" d="M227.883,150.369v8.088h-1.437v-8.088h-3.964v-1.342h9.242v1.342h-3.841Z" transform="translate(-42.007 -133.696)"/>
      <path id="Path_2916" data-name="Path 2916" class="cls-4" d="M218.232,155.3l2.54,3.051.091.109h-1.785l-.019-.025-2.566-3.089h-3.435v3.114h-1.435v-9.43h5.737a3.712,3.712,0,0,1,2.544.833,3,3,0,0,1,.9,2.319,3.231,3.231,0,0,1-.705,2.156,2.955,2.955,0,0,1-1.866.962Zm.616-4.448a2.189,2.189,0,0,0-1.489-.48h-4.3V154h4.3a2.185,2.185,0,0,0,1.492-.479,1.73,1.73,0,0,0,.515-1.342A1.706,1.706,0,0,0,218.848,150.849Z" transform="translate(-42.34 -133.696)"/>
      <path id="Path_2917" data-name="Path 2917" class="cls-4" d="M210.093,158.457h-1.481l-.019-.036-1.081-2.039h-5.931l-1.081,2.039-.02.036h-1.59l.053-.1,4.958-9.295.018-.037h1.273l.018.037,4.943,9.295.053.1Zm-7.8-3.419h4.516l-2.245-4.266Z" transform="translate(-42.731 -133.696)"/>
      <path id="Path_2918" data-name="Path 2918" class="cls-4" d="M175.284,158.457H173.8l-.018-.036-1.083-2.039h-5.928l-1.082,2.039-.018.036h-1.595l.054-.1,4.957-9.295.02-.037h1.272l.021.037,4.941,9.295.054.1Zm-7.8-3.419H172l-2.244-4.266Z" transform="translate(-43.801 -133.696)"/>
      <path id="Path_2919" data-name="Path 2919" class="cls-4" d="M160.49,150.369v8.088h-1.436v-8.088h-3.964v-1.342h9.243v1.342H160.49Z" transform="translate(-44.077 -133.696)"/>
      <path id="Path_2920" data-name="Path 2920" class="cls-4" d="M150.339,157.619l-.823.9-.044.048-.049-.043-1.147-1.012a3.839,3.839,0,0,1-1.362.826A6.326,6.326,0,0,1,142.08,158a2.471,2.471,0,0,1-.357-3.91,5.128,5.128,0,0,1,1.567-.966c-.69-.624-1.249-1.042-1.249-2.056a1.957,1.957,0,0,1,.783-1.614,3.428,3.428,0,0,1,2.087-.606,2.944,2.944,0,0,1,1.855.538,1.849,1.849,0,0,1,.661,1.512,2.514,2.514,0,0,1-.56,1.595,4.441,4.441,0,0,1-1.162.987l2.257,1.979a3.861,3.861,0,0,0,.152-1.09V154.3h1.436v.066a5.008,5.008,0,0,1-.121,1.108,4.365,4.365,0,0,1-.344.968l1.247,1.08.051.045Zm-7.261-.548a4.992,4.992,0,0,0,3.236.074,2.761,2.761,0,0,0,.931-.546l-2.826-2.479a5.879,5.879,0,0,0-1.488.756A1.266,1.266,0,0,0,143.078,157.071Zm.4-5.957c0,.6.753,1.064,1.152,1.423a3.212,3.212,0,0,0,1.011-.748,1.346,1.346,0,0,0,.353-.877.669.669,0,0,0-.271-.583,1.466,1.466,0,0,0-.84-.2C144.245,150.128,143.476,150.342,143.476,151.115Z" transform="translate(-44.512 -133.702)"/>
      <path id="Path_2921" data-name="Path 2921" class="cls-4" d="M132.194,150.369v8.088h-1.436v-8.088h-3.967v-1.342h9.244v1.342h-3.841Z" transform="translate(-44.946 -133.696)"/>
      <path id="Path_2922" data-name="Path 2922" class="cls-4" d="M127.74,157.216v1.275H119.4v-9.428h1.435v8.087h6.908Z" transform="translate(-45.173 -133.695)"/>
      <path id="Path_2923" data-name="Path 2923" class="cls-4" d="M117.219,158.457h-1.481l-.019-.036-1.081-2.039h-5.93l-1.082,2.039-.019.036h-1.592l.053-.1,4.958-9.295.019-.037h1.273l.02.037,4.941,9.295.054.1Zm-7.806-3.419h4.519l-2.244-4.266Z" transform="translate(-45.584 -133.696)"/>
      <path id="Path_2924" data-name="Path 2924" class="cls-4" d="M103.8,153.22v4.29a8.453,8.453,0,0,1-4.282,1.139,5.558,5.558,0,0,1-3.865-1.289,5.416,5.416,0,0,1,.036-7.222,5.808,5.808,0,0,1,3.985-1.29,9.333,9.333,0,0,1,1.988.209,8.921,8.921,0,0,1,1.851.618l.052.025-.018.057-.356,1.131-.024.072-.067-.032a8.343,8.343,0,0,0-3.4-.737,4.342,4.342,0,0,0-2.956.934,3.37,3.37,0,0,0-1.02,2.64,3.444,3.444,0,0,0,.985,2.639,4.1,4.1,0,0,0,2.851.935,7.332,7.332,0,0,0,1.511-.16,7.9,7.9,0,0,0,1.443-.452v-2.383H98.736v-1.187H103.8Z" transform="translate(-45.944 -133.702)"/>
      <path id="Path_2925" data-name="Path 2925" class="cls-4" d="M185.61,153.22v4.29a8.459,8.459,0,0,1-4.282,1.139,5.555,5.555,0,0,1-3.864-1.289,5.416,5.416,0,0,1,.036-7.222,5.8,5.8,0,0,1,3.983-1.29,9.322,9.322,0,0,1,1.989.209,8.871,8.871,0,0,1,1.85.618l.055.025-.019.057L185,150.887l-.023.072-.07-.032a8.076,8.076,0,0,0-1.657-.547,8.159,8.159,0,0,0-1.738-.19,4.346,4.346,0,0,0-2.956.934,3.373,3.373,0,0,0-1.02,2.64,3.437,3.437,0,0,0,.988,2.639,4.1,4.1,0,0,0,2.85.935,7.345,7.345,0,0,0,1.51-.16,7.9,7.9,0,0,0,1.443-.452v-2.383h-3.781v-1.187h5.062Z" transform="translate(-43.431 -133.702)"/>
      <path id="Path_2926" data-name="Path 2926" class="cls-4" d="M197.611,153.22v4.29a8.459,8.459,0,0,1-4.282,1.139,5.553,5.553,0,0,1-3.864-1.289,5.421,5.421,0,0,1,.035-7.222,5.807,5.807,0,0,1,3.984-1.29,9.3,9.3,0,0,1,1.988.209,8.881,8.881,0,0,1,1.851.618l.053.025-.017.057L197,150.887l-.023.072-.069-.032a8.343,8.343,0,0,0-3.4-.737,4.349,4.349,0,0,0-2.957.934,3.373,3.373,0,0,0-1.02,2.64,3.444,3.444,0,0,0,.987,2.639,4.1,4.1,0,0,0,2.851.935,7.347,7.347,0,0,0,1.511-.16,7.915,7.915,0,0,0,1.442-.452v-2.383h-3.781v-1.187h5.062Z" transform="translate(-43.063 -133.702)"/>
    </g>
    <g id="Group_1509" data-name="Group 1509" transform="translate(95.72 149.35)">
      <path id="Path_2927" data-name="Path 2927" class="cls-1" d="M227.981,150.421v8.094h-1.436v-8.094h-3.968v-1.343h9.249v1.343h-3.845Z" transform="translate(-90.339 -148.891)"/>
      <path id="Path_2928" data-name="Path 2928" class="cls-1" d="M218.322,155.35l2.542,3.053.091.112h-1.785l-.021-.026L216.58,155.4h-3.436v3.117h-1.438v-9.437h5.742a3.708,3.708,0,0,1,2.545.833,2.99,2.99,0,0,1,.9,2.318,3.212,3.212,0,0,1-.708,2.159,2.945,2.945,0,0,1-1.866.962Zm.617-4.451a2.19,2.19,0,0,0-1.491-.478h-4.3v3.633h4.3a2.2,2.2,0,0,0,1.495-.48,1.736,1.736,0,0,0,.517-1.345A1.709,1.709,0,0,0,218.94,150.9Z" transform="translate(-90.673 -148.891)"/>
      <path id="Path_2929" data-name="Path 2929" class="cls-1" d="M210.177,158.515h-1.483l-.018-.037-1.082-2.042h-5.936l-1.082,2.042-.019.037h-1.593l.053-.1,4.962-9.3.019-.035h1.274l.021.035,4.944,9.3.054.1Zm-7.812-3.422h4.523l-2.247-4.271Z" transform="translate(-91.065 -148.891)"/>
      <path id="Path_2930" data-name="Path 2930" class="cls-1" d="M175.339,158.515h-1.481l-.022-.037-1.081-2.042h-5.934l-1.082,2.042-.021.037h-1.592l.054-.1,4.961-9.3.02-.035h1.273l.02.035,4.946,9.3.053.1Zm-7.812-3.422h4.523l-2.247-4.271Z" transform="translate(-92.135 -148.891)"/>
      <path id="Path_2931" data-name="Path 2931" class="cls-1" d="M160.534,150.421v8.094H159.1v-8.094h-3.97v-1.343h9.25v1.343h-3.845Z" transform="translate(-92.411 -148.891)"/>
      <path id="Path_2932" data-name="Path 2932" class="cls-1" d="M150.375,157.677l-.822.9-.044.048-.048-.044-1.148-1.013a3.842,3.842,0,0,1-1.365.828,6.338,6.338,0,0,1-4.835-.338,2.476,2.476,0,0,1-.361-3.914,5.127,5.127,0,0,1,1.57-.965c-.69-.628-1.249-1.044-1.249-2.059a1.961,1.961,0,0,1,.783-1.615,3.428,3.428,0,0,1,2.09-.606,2.928,2.928,0,0,1,1.855.538,1.848,1.848,0,0,1,.661,1.514,2.513,2.513,0,0,1-.561,1.595,4.429,4.429,0,0,1-1.162.988L148,155.513a3.757,3.757,0,0,0,.154-1.093v-.066h1.436v.066a4.988,4.988,0,0,1-.121,1.108,4.331,4.331,0,0,1-.345.97l1.247,1.082.053.044Zm-7.267-.55a5,5,0,0,0,3.24.075,2.751,2.751,0,0,0,.931-.546l-2.828-2.483a5.907,5.907,0,0,0-1.489.757A1.267,1.267,0,0,0,143.108,157.126Zm.4-5.961c0,.6.754,1.065,1.153,1.423a3.232,3.232,0,0,0,1.011-.747,1.345,1.345,0,0,0,.354-.878.667.667,0,0,0-.27-.581,1.449,1.449,0,0,0-.841-.205C144.275,150.177,143.507,150.393,143.507,151.166Z" transform="translate(-92.846 -148.897)"/>
      <path id="Path_2933" data-name="Path 2933" class="cls-1" d="M132.213,150.421v8.094h-1.435v-8.094H126.81v-1.343h9.249v1.343h-3.845Z" transform="translate(-93.281 -148.891)"/>
      <path id="Path_2934" data-name="Path 2934" class="cls-1" d="M127.758,157.273v1.275h-8.351v-9.437h1.435v8.095h6.916Z" transform="translate(-93.508 -148.89)"/>
      <path id="Path_2935" data-name="Path 2935" class="cls-1" d="M117.229,158.515h-1.482l-.02-.037-1.081-2.042h-5.938l-1.081,2.042-.02.037h-1.592l.053-.1,4.962-9.3.02-.035h1.275l.018.035,4.945,9.3.053.1Zm-7.812-3.422h4.521l-2.246-4.271Z" transform="translate(-93.92 -148.891)"/>
      <path id="Path_2936" data-name="Path 2936" class="cls-1" d="M103.8,153.273v4.293a8.539,8.539,0,0,1-4.286,1.141,5.562,5.562,0,0,1-3.867-1.291,5.42,5.42,0,0,1,.036-7.227,5.8,5.8,0,0,1,3.987-1.291,9.5,9.5,0,0,1,1.991.207,9.068,9.068,0,0,1,1.851.619l.053.026-.019.057-.355,1.13-.023.073-.07-.03a8.041,8.041,0,0,0-1.659-.55,8.169,8.169,0,0,0-1.739-.19,4.349,4.349,0,0,0-2.957.935,3.375,3.375,0,0,0-1.022,2.642,3.446,3.446,0,0,0,.987,2.642,4.1,4.1,0,0,0,2.852.935,7.4,7.4,0,0,0,1.512-.159,7.9,7.9,0,0,0,1.445-.452V154.4H98.731v-1.189H103.8Z" transform="translate(-94.28 -148.897)"/>
      <path id="Path_2937" data-name="Path 2937" class="cls-1" d="M185.675,153.273v4.293a8.539,8.539,0,0,1-4.285,1.141,5.563,5.563,0,0,1-3.868-1.291,5.42,5.42,0,0,1,.036-7.227,5.809,5.809,0,0,1,3.988-1.291,9.472,9.472,0,0,1,1.989.207,9.077,9.077,0,0,1,1.852.619l.054.026-.016.057-.359,1.13-.023.073-.068-.03a8.059,8.059,0,0,0-1.662-.55,8.142,8.142,0,0,0-1.737-.19,4.348,4.348,0,0,0-2.959.935,3.378,3.378,0,0,0-1.02,2.642,3.443,3.443,0,0,0,.987,2.642,4.1,4.1,0,0,0,2.851.935,7.4,7.4,0,0,0,1.512-.159,7.882,7.882,0,0,0,1.446-.452V154.4h-3.785v-1.189h5.066Z" transform="translate(-91.765 -148.897)"/>
      <path id="Path_2938" data-name="Path 2938" class="cls-1" d="M197.685,153.273v4.293a8.539,8.539,0,0,1-4.285,1.141,5.562,5.562,0,0,1-3.866-1.291,5.42,5.42,0,0,1,.034-7.227,5.808,5.808,0,0,1,3.989-1.291,9.472,9.472,0,0,1,1.989.207,9.077,9.077,0,0,1,1.852.619l.053.026-.016.057-.357,1.13-.024.073-.068-.03a8.288,8.288,0,0,0-3.4-.74,4.348,4.348,0,0,0-2.958.935,3.378,3.378,0,0,0-1.021,2.642,3.446,3.446,0,0,0,.987,2.642,4.105,4.105,0,0,0,2.852.935,7.421,7.421,0,0,0,1.513-.159,7.9,7.9,0,0,0,1.443-.452V154.4h-3.784v-1.189h5.066Z" transform="translate(-91.396 -148.897)"/>
    </g>
    <g id="Group_1511" data-name="Group 1511" transform="translate(116.436 164.778)">
      <g id="Group_1510" data-name="Group 1510" transform="translate(0 0.003)">
        <path id="Path_2939" data-name="Path 2939" class="cls-2" d="M116.188,164.347a2.826,2.826,0,0,1,1.193.258l.028.013.138-.448-.021-.009a3.125,3.125,0,0,0-1.338-.293,1.729,1.729,0,1,0,0,3.454,3.125,3.125,0,0,0,1.338-.293l.021-.009-.138-.447-.028.011a2.813,2.813,0,0,1-1.193.261,1.25,1.25,0,1,1,0-2.5Z" transform="translate(-114.378 -163.868)"/>
        <path id="Path_2940" data-name="Path 2940" class="cls-2" d="M122.524,165.043a1.052,1.052,0,0,0-1.2-1.11h-1.991v3.32h.5v-1.095h1.187l.887,1.085.009.009h.627l-.913-1.112A1.013,1.013,0,0,0,122.524,165.043Zm-2.686-.633h1.488a.638.638,0,1,1,0,1.272h-1.488Z" transform="translate(-114.226 -163.866)"/>
        <path id="Path_2941" data-name="Path 2941" class="cls-2" d="M124.4,167.253h2.9v-.476h-2.395v-.944h2.131v-.479h-2.131v-.944H127.3v-.477h-2.9Z" transform="translate(-114.07 -163.866)"/>
        <path id="Path_2942" data-name="Path 2942" class="cls-2" d="M130.982,163.933h-.444l-1.747,3.32h.56l.381-.73h2.052l.374.716.008.013h.558l-1.733-3.308Zm.553,2.113h-1.556l.783-1.492Z" transform="translate(-113.935 -163.866)"/>
        <path id="Path_2943" data-name="Path 2943" class="cls-2" d="M133.482,164.41h1.375v2.842h.5V164.41h1.33v-.477h-3.21Z" transform="translate(-113.791 -163.866)"/>
        <rect id="Rectangle_732" data-name="Rectangle 732" class="cls-2" width="0.503" height="3.319" transform="translate(24.719 0.067)"/>
        <path id="Path_2944" data-name="Path 2944" class="cls-2" d="M143.721,166.537l-2.264-2.6-.01-.008h-.488v3.319h.5v-2.6l2.265,2.59.007.008h.49v-3.319h-.5Z" transform="translate(-113.562 -163.866)"/>
        <path id="Path_2945" data-name="Path 2945" class="cls-2" d="M155.129,163.868a1.729,1.729,0,1,0,1.811,1.726A1.61,1.61,0,0,0,155.129,163.868Zm0,.479a1.25,1.25,0,1,1-1.306,1.247A1.164,1.164,0,0,1,155.129,164.347Z" transform="translate(-113.182 -163.868)"/>
        <path id="Path_2946" data-name="Path 2946" class="cls-2" d="M160.784,163.933h-1.993v3.32h.505v-1.095h1.488a1.116,1.116,0,1,0,0-2.225Zm0,1.749H159.3V164.41h1.488c.441,0,.694.231.694.633A.608.608,0,0,1,160.784,165.682Z" transform="translate(-113.014 -163.866)"/>
        <path id="Path_2947" data-name="Path 2947" class="cls-2" d="M165.7,163.933H163.71v3.32h.505v-1.095H165.7a1.116,1.116,0,1,0,0-2.225Zm0,1.749h-1.488V164.41H165.7a.638.638,0,1,1,0,1.272Z" transform="translate(-112.863 -163.866)"/>
        <path id="Path_2948" data-name="Path 2948" class="cls-2" d="M170.3,163.868a1.729,1.729,0,1,0,1.809,1.726A1.611,1.611,0,0,0,170.3,163.868Zm0,.479a1.25,1.25,0,1,1-1.307,1.247A1.164,1.164,0,0,1,170.3,164.347Z" transform="translate(-112.716 -163.868)"/>
        <path id="Path_2949" data-name="Path 2949" class="cls-2" d="M177.15,165.043a1.052,1.052,0,0,0-1.2-1.11h-1.991v3.32h.5v-1.095h1.187l.888,1.085.005.009h.63l-.913-1.112A1.012,1.012,0,0,0,177.15,165.043Zm-2.686-.633h1.488c.441,0,.694.231.694.633a.608.608,0,0,1-.694.639h-1.488Z" transform="translate(-112.548 -163.866)"/>
        <path id="Path_2950" data-name="Path 2950" class="cls-2" d="M178.65,164.41h1.376v2.842h.5V164.41h1.332v-.477H178.65Z" transform="translate(-112.404 -163.866)"/>
        <path id="Path_2951" data-name="Path 2951" class="cls-2" d="M186.269,165.592c0,.794-.415,1.25-1.14,1.25a1.092,1.092,0,0,1-1.14-1.25v-1.659h-.5v1.659a1.645,1.645,0,1,0,3.286,0v-1.659h-.5Z" transform="translate(-112.255 -163.866)"/>
        <path id="Path_2952" data-name="Path 2952" class="cls-2" d="M191.506,166.537l-2.264-2.6-.009-.008h-.489v3.319h.5v-2.6l2.265,2.59.007.008h.49v-3.319h-.5Z" transform="translate(-112.094 -163.866)"/>
        <rect id="Rectangle_733" data-name="Rectangle 733" class="cls-2" width="0.504" height="3.319" transform="translate(82.075 0.067)"/>
        <path id="Path_2953" data-name="Path 2953" class="cls-2" d="M196.259,164.41h1.374v2.842h.5V164.41h1.332v-.477h-3.21Z" transform="translate(-111.863 -163.866)"/>
        <rect id="Rectangle_734" data-name="Rectangle 734" class="cls-2" width="0.504" height="3.319" transform="translate(89.422 0.067)"/>
        <path id="Path_2954" data-name="Path 2954" class="cls-2" d="M203.737,167.253h2.9v-.476H204.24v-.944h2.132v-.479H204.24v-.944h2.395v-.477h-2.9Z" transform="translate(-111.633 -163.866)"/>
        <path id="Path_2955" data-name="Path 2955" class="cls-2" d="M209.773,165.356l-.12-.02c-.45-.077-.841-.143-.841-.489,0-.454.717-.5,1.026-.5a2.957,2.957,0,0,1,1.23.258l.026.012.174-.447-.023-.009a3.357,3.357,0,0,0-1.39-.293c-.969,0-1.549.373-1.549,1,0,.691.691.851,1.457.968l.083.015c.571.093,1.025.167,1.025.51,0,.452-.753.5-1.078.5a3.481,3.481,0,0,1-1.352-.276l-.028-.01-.138.448.022.008a3.774,3.774,0,0,0,1.472.292c.775,0,1.6-.261,1.6-.987C211.371,165.674,210.709,165.511,209.773,165.356Z" transform="translate(-111.494 -163.868)"/>
      </g>
      <path id="Path_2956" data-name="Path 2956" class="cls-2" d="M147.6,165.364v.465h1.3v.784a2.547,2.547,0,0,1-.475.15,2.5,2.5,0,0,1-.513.055,1.371,1.371,0,0,1-.961-.318,1.179,1.179,0,0,1-.332-.9,1.155,1.155,0,0,1,.343-.9,1.447,1.447,0,0,1,1-.318,2.8,2.8,0,0,1,1.156.255l.049.023.149-.48,0-.008-.039-.018a3.134,3.134,0,0,0-1.33-.291,2,2,0,0,0-1.387.457,1.931,1.931,0,0,0-.011,2.548,1.917,1.917,0,0,0,1.347.456,2.9,2.9,0,0,0,1.482-.4l.013-.007v-1.555Z" transform="translate(-113.404 -163.865)"/>
    </g>
    <g id="Group_1512" data-name="Group 1512" transform="translate(47.385 134.153)">
      <path id="Path_2957" data-name="Path 2957" class="cls-3" d="M67.386,134.153a20,20,0,1,1-20,20A20,20,0,0,1,67.386,134.153Z" transform="translate(-47.385 -134.153)"/>
      <path id="Path_2958" data-name="Path 2958" class="cls-3" d="M67.551,135.051a18.868,18.868,0,1,1-18.869,18.868,18.868,18.868,0,0,1,18.869-18.868Z" transform="translate(-47.345 -134.125)"/>
      <path id="Path_2959" data-name="Path 2959" class="cls-4" d="M73.751,151.89a3.824,3.824,0,0,1,1.606-2.458,1.93,1.93,0,0,0-1.617.308c-.649.55-.179,1.472.011,2.15Zm-8.99-1.912a1.826,1.826,0,0,0-.354,1.609c.172.485.609.379.974.416a.461.461,0,0,1,.464.322,2.381,2.381,0,0,0-2.067,1.53c-.268.864-.052,1.91.415,2.1a2.42,2.42,0,0,1,.638-2.269A2.45,2.45,0,0,1,67,153.6a1.482,1.482,0,0,1,1.094,1.143,1.893,1.893,0,0,1,.744-1.186.524.524,0,0,0,.2-.6c-.144-.521-.683-.679-1.141-.8a4.9,4.9,0,0,1-1.577-.488c-.367-.233-.26-.686-.014-.975-.1-.155-.183-.362-.289-.552C65.712,149.58,65.217,149.4,64.761,149.978Zm-2.047,1.365A4.7,4.7,0,0,0,59,150.271a4.685,4.685,0,0,0,.311,2.448,5.969,5.969,0,0,0-2.4,4.275c-1.357-3.086-1.542-7.414,1.341-9.731a3.88,3.88,0,0,1,5.03.154c.73.675.591,1.09.078,1.949A3.914,3.914,0,0,0,62.714,151.343Zm-3.061-.316c1.3.4,2.851,1.068,3.291,2.449.236.746.055,1.619-.634,1.692.3-.174.244-.617.211-.8a2.491,2.491,0,0,1-2.046-1.042,4.963,4.963,0,0,1,1.812.478c-.351-.674-1.016-.738-1.645-.961S59.675,152.269,59.653,151.027ZM52.041,153.1s3.492,1.917,4.636,4.9a16.557,16.557,0,0,1,1.134,5.412c-.868.316-2.235.627-2.871-.228a8.967,8.967,0,0,1-.828-1.427,10.132,10.132,0,0,1-1.078-4.829A15.864,15.864,0,0,0,55.273,162,26.567,26.567,0,0,0,52.041,153.1Zm11.21,19.3a18.477,18.477,0,0,1-3.815-1.3,18.731,18.731,0,1,1,26.049-21.689c.669,2.583.952,6.715-.059,9.258-1.444,3.631-5.968,3.911-8.247.92-1.6-2.1-1.921-5.477-2.854-7.027a4.285,4.285,0,0,1-.3.878,2.6,2.6,0,0,1,.294,2.514c-.266.53-.725.908-.953,1.418a2.271,2.271,0,0,0-.154,1.556c.489-.456.816-.75,1.092-.995,2.676,3.149,5,5.868,6,9.718a19.277,19.277,0,0,1-7.245,4.313,18.587,18.587,0,0,1-4.741.86,19.1,19.1,0,0,1,.655-2.707,20.641,20.641,0,0,0-1.821,1.451c.474-1.859,1.129-2.859,2.686-5.521,1.64-2.734.924-4.566.924-4.566a25.315,25.315,0,0,0-3.365,4.645,12.75,12.75,0,0,0-1.25-3.844,4.641,4.641,0,0,0,1.782-.069,11.091,11.091,0,0,1-2.982-5.17c.631.756,2.93,2.464,4.139.181a4.263,4.263,0,0,0,2.412,1.981,1.328,1.328,0,0,1,.555-1.656c.643-.42-.1-.895-.685-.86a6.065,6.065,0,0,0-2.281.535,1.686,1.686,0,0,1-.91-1.845c.147.276.489.963,1.061,1.014s1.812-.281,1.764-1.01c-.024-.365-.376-.474-.767-.268-.294-.153-.31-1.19.074-1.154a4.718,4.718,0,0,0,1.074.2,1.074,1.074,0,0,0,.828-.21c.312.272.366.9-.072.924-.113.007-.239-.01-.317.055a.8.8,0,0,0,.079,1,.821.821,0,0,0,1.207-.039,1.634,1.634,0,0,0,.323-1.722c-.384-1-1.655-1.308-2.679-1.227a4.225,4.225,0,0,0-1.109.24c-.094-3.805-2.061-2.053-2.9-4.549,2.25-3.188,4.656-1.417,4.277,1.453a7.353,7.353,0,0,1,1.677,1.986,2.786,2.786,0,0,0-.736-2.215,6.8,6.8,0,0,0,.275-.793c.2-.565.411-.432.61.039a1.853,1.853,0,0,1,.135.483,1.94,1.94,0,0,0-.574-2.331c-.325-.278-.84-.031-1.15.2a2.824,2.824,0,0,1-.437-.448c-1.836-1.909-3.552-1.662-4.851-.192a6.207,6.207,0,0,0-7.886-2.175,9.754,9.754,0,0,0-4.92,6.014,8.725,8.725,0,0,1,5.555-7.7c4.248-1.276,7.622.166,9.321,2.65.6-1,3.112-4,6.028-2.629,3.659,1.725,3.751,9.044,4.672,12.513.391,1.474,1.019,3.2,2.666,3.619a2.685,2.685,0,0,0,1.944-.224c2.284-1.341,1.563-6.952,1.009-9.116A17.54,17.54,0,1,0,60.656,170.34c-.3-1.662-.342-4.251,1.326-4.909-2.566-5.221-1.863-9.18-1.322-10.8a2.908,2.908,0,0,0,1.277.982c.094.6.013,4.43,3.192,6.442-1.827-.291-2.574-1.192-3.673-2.709a9.332,9.332,0,0,0,2.838,6.079C61.153,166.127,61.739,169.211,63.251,172.4Z" transform="translate(-47.347 -134.115)"/>
      <path id="Path_2960" data-name="Path 2960" class="cls-4" d="M227.883,150.369v8.088h-1.437v-8.088h-3.964v-1.342h9.242v1.342h-3.841Z" transform="translate(-42.007 -133.696)"/>
      <path id="Path_2961" data-name="Path 2961" class="cls-4" d="M218.232,155.3l2.54,3.051.091.109h-1.785l-.019-.025-2.566-3.089h-3.435v3.114h-1.435v-9.43h5.737a3.712,3.712,0,0,1,2.544.833,3,3,0,0,1,.9,2.319,3.231,3.231,0,0,1-.705,2.156,2.955,2.955,0,0,1-1.866.962Zm.616-4.448a2.189,2.189,0,0,0-1.489-.48h-4.3V154h4.3a2.185,2.185,0,0,0,1.492-.479,1.73,1.73,0,0,0,.515-1.342A1.706,1.706,0,0,0,218.848,150.849Z" transform="translate(-42.34 -133.696)"/>
      <path id="Path_2962" data-name="Path 2962" class="cls-4" d="M210.093,158.457h-1.481l-.019-.036-1.081-2.039h-5.931l-1.081,2.039-.02.036h-1.59l.053-.1,4.958-9.295.018-.037h1.273l.018.037,4.943,9.295.053.1Zm-7.8-3.419h4.516l-2.245-4.266Z" transform="translate(-42.731 -133.696)"/>
      <path id="Path_2963" data-name="Path 2963" class="cls-4" d="M175.284,158.457H173.8l-.018-.036-1.083-2.039h-5.928l-1.082,2.039-.018.036h-1.595l.054-.1,4.957-9.295.02-.037h1.272l.021.037,4.941,9.295.054.1Zm-7.8-3.419H172l-2.244-4.266Z" transform="translate(-43.801 -133.696)"/>
      <path id="Path_2964" data-name="Path 2964" class="cls-4" d="M160.49,150.369v8.088h-1.436v-8.088h-3.964v-1.342h9.243v1.342H160.49Z" transform="translate(-44.077 -133.696)"/>
      <path id="Path_2965" data-name="Path 2965" class="cls-4" d="M150.339,157.619l-.823.9-.044.048-.049-.043-1.147-1.012a3.839,3.839,0,0,1-1.362.826A6.326,6.326,0,0,1,142.08,158a2.471,2.471,0,0,1-.357-3.91,5.128,5.128,0,0,1,1.567-.966c-.69-.624-1.249-1.042-1.249-2.056a1.957,1.957,0,0,1,.783-1.614,3.428,3.428,0,0,1,2.087-.606,2.944,2.944,0,0,1,1.855.538,1.849,1.849,0,0,1,.661,1.512,2.514,2.514,0,0,1-.56,1.595,4.441,4.441,0,0,1-1.162.987l2.257,1.979a3.861,3.861,0,0,0,.152-1.09V154.3h1.436v.066a5.008,5.008,0,0,1-.121,1.108,4.365,4.365,0,0,1-.344.968l1.247,1.08.051.045Zm-7.261-.548a4.992,4.992,0,0,0,3.236.074,2.761,2.761,0,0,0,.931-.546l-2.826-2.479a5.879,5.879,0,0,0-1.488.756A1.266,1.266,0,0,0,143.078,157.071Zm.4-5.957c0,.6.753,1.064,1.152,1.423a3.212,3.212,0,0,0,1.011-.748,1.346,1.346,0,0,0,.353-.877.669.669,0,0,0-.271-.583,1.466,1.466,0,0,0-.84-.2C144.245,150.128,143.476,150.342,143.476,151.115Z" transform="translate(-44.512 -133.702)"/>
      <path id="Path_2966" data-name="Path 2966" class="cls-4" d="M132.194,150.369v8.088h-1.436v-8.088h-3.967v-1.342h9.244v1.342h-3.841Z" transform="translate(-44.946 -133.696)"/>
      <path id="Path_2967" data-name="Path 2967" class="cls-4" d="M127.74,157.216v1.275H119.4v-9.428h1.435v8.087h6.908Z" transform="translate(-45.173 -133.695)"/>
      <path id="Path_2968" data-name="Path 2968" class="cls-4" d="M117.219,158.457h-1.481l-.019-.036-1.081-2.039h-5.93l-1.082,2.039-.019.036h-1.592l.053-.1,4.958-9.295.019-.037h1.273l.02.037,4.941,9.295.054.1Zm-7.806-3.419h4.519l-2.244-4.266Z" transform="translate(-45.584 -133.696)"/>
      <path id="Path_2969" data-name="Path 2969" class="cls-4" d="M103.8,153.22v4.29a8.453,8.453,0,0,1-4.282,1.139,5.558,5.558,0,0,1-3.865-1.289,5.416,5.416,0,0,1,.036-7.222,5.808,5.808,0,0,1,3.985-1.29,9.333,9.333,0,0,1,1.988.209,8.921,8.921,0,0,1,1.851.618l.052.025-.018.057-.356,1.131-.024.072-.067-.032a8.343,8.343,0,0,0-3.4-.737,4.342,4.342,0,0,0-2.956.934,3.37,3.37,0,0,0-1.02,2.64,3.444,3.444,0,0,0,.985,2.639,4.1,4.1,0,0,0,2.851.935,7.332,7.332,0,0,0,1.511-.16,7.9,7.9,0,0,0,1.443-.452v-2.383H98.736v-1.187H103.8Z" transform="translate(-45.944 -133.702)"/>
      <path id="Path_2970" data-name="Path 2970" class="cls-4" d="M185.61,153.22v4.29a8.459,8.459,0,0,1-4.282,1.139,5.555,5.555,0,0,1-3.864-1.289,5.416,5.416,0,0,1,.036-7.222,5.8,5.8,0,0,1,3.983-1.29,9.322,9.322,0,0,1,1.989.209,8.871,8.871,0,0,1,1.85.618l.055.025-.019.057L185,150.887l-.023.072-.07-.032a8.076,8.076,0,0,0-1.657-.547,8.159,8.159,0,0,0-1.738-.19,4.346,4.346,0,0,0-2.956.934,3.373,3.373,0,0,0-1.02,2.64,3.437,3.437,0,0,0,.988,2.639,4.1,4.1,0,0,0,2.85.935,7.345,7.345,0,0,0,1.51-.16,7.9,7.9,0,0,0,1.443-.452v-2.383h-3.781v-1.187h5.062Z" transform="translate(-43.431 -133.702)"/>
      <path id="Path_2971" data-name="Path 2971" class="cls-4" d="M197.611,153.22v4.29a8.459,8.459,0,0,1-4.282,1.139,5.553,5.553,0,0,1-3.864-1.289,5.421,5.421,0,0,1,.035-7.222,5.807,5.807,0,0,1,3.984-1.29,9.3,9.3,0,0,1,1.988.209,8.881,8.881,0,0,1,1.851.618l.053.025-.017.057L197,150.887l-.023.072-.069-.032a8.343,8.343,0,0,0-3.4-.737,4.349,4.349,0,0,0-2.957.934,3.373,3.373,0,0,0-1.02,2.64,3.444,3.444,0,0,0,.987,2.639,4.1,4.1,0,0,0,2.851.935,7.347,7.347,0,0,0,1.511-.16,7.915,7.915,0,0,0,1.442-.452v-2.383h-3.781v-1.187h5.062Z" transform="translate(-43.063 -133.702)"/>
    </g>
  </g>
</svg>
