<?xml version="1.0" encoding="UTF-8"?>
<svg xmlns="http://www.w3.org/2000/svg" xmlns:xlink="http://www.w3.org/1999/xlink" width="190px" height="45px" viewBox="0 0 189 45" version="1.1">
<g id="surface1">
<path style=" stroke:none;fill-rule:nonzero;fill:rgb(89.803922%,90.196078%,90.196078%);fill-opacity:1;" d="M 35.726562 1.179688 L 16.0625 1.179688 C 9.675781 1.179688 4.484375 6.398438 4.484375 12.8125 L 4.484375 32.554688 C 4.484375 38.96875 9.6875 44.199219 16.0625 44.199219 L 35.734375 44.199219 C 42.132812 44.199219 47.324219 38.96875 47.324219 32.554688 L 47.324219 12.8125 C 47.316406 6.398438 42.121094 1.179688 35.726562 1.179688 Z M 43.539062 32.546875 C 43.539062 36.875 40.035156 40.394531 35.726562 40.394531 L 16.0625 40.394531 C 12.855469 40.394531 10.101562 38.441406 8.898438 35.660156 L 9.585938 35.0625 L 11.019531 30.96875 L 8.261719 26.28125 L 8.261719 12.8125 C 8.261719 8.484375 11.757812 4.964844 16.074219 4.964844 L 35.742188 4.964844 C 40.054688 4.964844 43.550781 8.484375 43.550781 12.8125 L 43.550781 32.546875 Z M 43.539062 32.546875 "/>
<path style=" stroke:none;fill-rule:nonzero;fill:rgb(94.117647%,40.784314%,13.72549%);fill-opacity:1;" d="M 39.074219 31.796875 C 39.460938 31.925781 39.929688 32 40.460938 32 C 42.554688 32 43.542969 31.164062 43.542969 30.167969 C 43.542969 29.003906 41.972656 29.003906 41.8125 27.980469 C 41.609375 26.703125 41.738281 21.035156 43.929688 17.902344 L 45.394531 18.5625 C 45.394531 18.5625 45.8125 18.800781 46.308594 18.777344 C 46.636719 18.757812 46.972656 18.613281 47.300781 18.261719 C 48.125 17.371094 50.398438 14.480469 51.128906 12.964844 C 51.308594 12.589844 48.222656 8.730469 46.496094 7.324219 C 45.320312 6.375 43.816406 5.808594 42.1875 5.808594 C 39.167969 5.808594 36.609375 7.75 35.660156 10.449219 C 33.738281 11.824219 29.894531 14.046875 25.871094 15.109375 C 21.148438 16.363281 16.257812 15.195312 12.941406 15.363281 C 8.667969 15.578125 6.128906 18.726562 6.234375 22.359375 C 6.339844 26.058594 8.867188 29.421875 8.867188 32.890625 C 8.867188 35.617188 6.660156 36.8125 5.144531 36.8125 C 3.328125 36.8125 3.207031 36.066406 2.65625 36.066406 C 2.4375 36.066406 2.175781 36.253906 2.175781 36.546875 C 2.175781 37.464844 4.425781 38.339844 5.703125 38.339844 C 9.101562 38.339844 10.527344 35.902344 10.527344 35.902344 C 10.527344 35.902344 11.394531 38.433594 14.75 38.433594 C 17.421875 38.433594 18.582031 37.144531 18.582031 36.074219 C 18.582031 35.210938 18.058594 34.832031 17.675781 34.324219 C 17.140625 33.59375 17.160156 32.710938 17.160156 32.710938 C 17.160156 32.710938 17.738281 32.8125 18.617188 32.8125 C 20.5625 32.8125 21.160156 32.015625 21.160156 31.238281 C 21.160156 30.242188 19.988281 30.304688 19.988281 28.664062 C 19.988281 27.417969 20.675781 27.007812 21.285156 27.007812 C 21.9375 27.007812 24.414062 27.246094 27.425781 27.554688 C 28.429688 27.652344 30.933594 28.636719 30.933594 32.53125 L 30.933594 33.929688 C 30.933594 36.3125 31.882812 39.257812 36.078125 39.257812 C 38.925781 39.257812 40.515625 37.664062 40.515625 36.507812 C 40.515625 35.757812 39.863281 35.425781 39.535156 34.976562 C 38.585938 33.644531 39.054688 31.796875 39.054688 31.796875 Z M 39.074219 31.796875 "/>
<path style=" stroke:none;fill-rule:nonzero;fill:rgb(100%,100%,100%);fill-opacity:1;" d="M 45.972656 14.75 C 45.695312 14.75 45.476562 14.972656 45.476562 15.242188 C 45.476562 15.511719 45.695312 15.742188 45.972656 15.742188 C 46.246094 15.742188 46.464844 15.523438 46.464844 15.242188 C 46.464844 14.972656 46.246094 14.75 45.972656 14.75 Z M 45.972656 14.75 "/>
<path style=" stroke:none;fill-rule:nonzero;fill:rgb(100%,100%,100%);fill-opacity:1;" d="M 47.691406 13.304688 C 47.445312 13.304688 47.242188 13.5 47.242188 13.753906 C 47.242188 14 47.441406 14.203125 47.691406 14.203125 C 47.9375 14.203125 48.144531 14 48.144531 13.753906 C 48.144531 13.507812 47.9375 13.304688 47.691406 13.304688 Z M 47.691406 13.304688 "/>
<path style=" stroke:none;fill-rule:nonzero;fill:rgb(100%,100%,100%);fill-opacity:1;" d="M 48.5 11.632812 C 48.296875 11.632812 48.132812 11.796875 48.132812 12.003906 C 48.132812 12.207031 48.296875 12.378906 48.5 12.378906 C 48.707031 12.378906 48.871094 12.214844 48.871094 12.003906 C 48.871094 11.804688 48.707031 11.632812 48.5 11.632812 Z M 48.5 11.632812 "/>
<path style=" stroke:none;fill-rule:nonzero;fill:rgb(100%,100%,100%);fill-opacity:1;" d="M 34.351562 13.988281 C 34.648438 13.988281 34.882812 13.753906 34.882812 13.449219 C 34.882812 13.15625 34.648438 12.910156 34.351562 12.910156 C 34.054688 12.910156 33.820312 13.148438 33.820312 13.449219 C 33.820312 13.753906 34.054688 13.988281 34.351562 13.988281 Z M 34.351562 13.988281 "/>
<path style=" stroke:none;fill-rule:nonzero;fill:rgb(100%,100%,100%);fill-opacity:1;" d="M 36.40625 26.957031 C 36.109375 26.957031 35.875 27.195312 35.875 27.492188 C 35.875 27.789062 36.109375 28.023438 36.40625 28.023438 C 36.699219 28.023438 36.933594 27.777344 36.933594 27.492188 C 36.933594 27.203125 36.699219 26.957031 36.40625 26.957031 Z M 36.40625 26.957031 "/>
<path style=" stroke:none;fill-rule:nonzero;fill:rgb(100%,100%,100%);fill-opacity:1;" d="M 39.585938 27.5 C 39.289062 27.5 39.054688 27.738281 39.054688 28.03125 C 39.054688 28.324219 39.289062 28.570312 39.585938 28.570312 C 39.882812 28.570312 40.117188 28.332031 40.117188 28.03125 C 40.117188 27.738281 39.882812 27.5 39.585938 27.5 Z M 39.585938 27.5 "/>
<path style=" stroke:none;fill-rule:nonzero;fill:rgb(100%,100%,100%);fill-opacity:1;" d="M 36.847656 22.082031 C 36.550781 22.082031 36.316406 22.328125 36.316406 22.625 C 36.316406 22.917969 36.550781 23.164062 36.847656 23.164062 C 37.140625 23.164062 37.378906 22.925781 37.378906 22.625 C 37.378906 22.328125 37.140625 22.082031 36.847656 22.082031 Z M 36.847656 22.082031 "/>
<path style=" stroke:none;fill-rule:nonzero;fill:rgb(100%,100%,100%);fill-opacity:1;" d="M 38.671875 18.457031 C 38.964844 18.457031 39.203125 18.222656 39.203125 17.925781 C 39.203125 17.632812 38.964844 17.394531 38.671875 17.394531 C 38.375 17.394531 38.136719 17.632812 38.136719 17.925781 C 38.136719 18.222656 38.375 18.457031 38.671875 18.457031 Z M 38.671875 18.457031 "/>
<path style=" stroke:none;fill-rule:nonzero;fill:rgb(100%,100%,100%);fill-opacity:1;" d="M 30.34375 16.289062 C 30.640625 16.289062 30.875 16.050781 30.875 15.757812 C 30.875 15.460938 30.640625 15.21875 30.34375 15.21875 C 30.046875 15.21875 29.8125 15.453125 29.8125 15.757812 C 29.804688 16.046875 30.039062 16.289062 30.34375 16.289062 Z M 30.34375 16.289062 "/>
<path style=" stroke:none;fill-rule:nonzero;fill:rgb(100%,100%,100%);fill-opacity:1;" d="M 33.328125 25.863281 C 33.035156 25.863281 32.789062 26.101562 32.789062 26.394531 C 32.789062 26.691406 33.027344 26.933594 33.328125 26.933594 C 33.625 26.933594 33.863281 26.699219 33.863281 26.394531 C 33.863281 26.101562 33.625 25.863281 33.328125 25.863281 Z M 33.328125 25.863281 "/>
<path style=" stroke:none;fill-rule:nonzero;fill:rgb(100%,100%,100%);fill-opacity:1;" d="M 31.859375 18.929688 C 32.144531 18.929688 32.390625 18.695312 32.390625 18.394531 C 32.390625 18.097656 32.148438 17.859375 31.859375 17.859375 C 31.5625 17.859375 31.316406 18.097656 31.316406 18.394531 C 31.316406 18.6875 31.5625 18.929688 31.859375 18.929688 Z M 31.859375 18.929688 "/>
<path style=" stroke:none;fill-rule:nonzero;fill:rgb(100%,100%,100%);fill-opacity:1;" d="M 28.480469 21.976562 C 28.183594 21.976562 27.949219 22.214844 27.949219 22.507812 C 27.949219 22.800781 28.183594 23.042969 28.480469 23.042969 C 28.773438 23.042969 29.011719 22.800781 29.011719 22.507812 C 29.019531 22.222656 28.773438 21.976562 28.480469 21.976562 Z M 28.480469 21.976562 "/>
<path style=" stroke:none;fill-rule:nonzero;fill:rgb(100%,100%,100%);fill-opacity:1;" d="M 34 21.402344 C 34.296875 21.402344 34.53125 21.167969 34.53125 20.871094 C 34.53125 20.578125 34.296875 20.339844 34 20.339844 C 33.703125 20.339844 33.46875 20.578125 33.46875 20.871094 C 33.46875 21.167969 33.703125 21.402344 34 21.402344 Z M 34 21.402344 "/>
<path style=" stroke:none;fill-rule:nonzero;fill:rgb(100%,100%,100%);fill-opacity:1;" d="M 25.570312 16.601562 C 25.273438 16.601562 25.035156 16.847656 25.035156 17.140625 C 25.035156 17.433594 25.273438 17.671875 25.570312 17.671875 C 25.859375 17.671875 26.101562 17.433594 26.101562 17.140625 C 26.101562 16.847656 25.859375 16.601562 25.570312 16.601562 Z M 25.570312 16.601562 "/>
<path style=" stroke:none;fill-rule:nonzero;fill:rgb(100%,100%,100%);fill-opacity:1;" d="M 26.730469 19.382812 C 26.433594 19.382812 26.199219 19.621094 26.199219 19.914062 C 26.199219 20.207031 26.433594 20.445312 26.730469 20.445312 C 27.023438 20.445312 27.261719 20.207031 27.261719 19.914062 C 27.261719 19.628906 27.023438 19.382812 26.730469 19.382812 Z M 26.730469 19.382812 "/>
<path style=" stroke:none;fill-rule:nonzero;fill:rgb(100%,100%,100%);fill-opacity:1;" d="M 30.640625 24.054688 C 30.34375 24.054688 30.109375 24.300781 30.109375 24.59375 C 30.109375 24.890625 30.34375 25.132812 30.640625 25.132812 C 30.933594 25.132812 31.167969 24.890625 31.167969 24.59375 C 31.179688 24.300781 30.933594 24.054688 30.640625 24.054688 Z M 30.640625 24.054688 "/>
<path style=" stroke:none;fill-rule:nonzero;fill:rgb(100%,100%,100%);fill-opacity:1;" d="M 36.125 16.476562 C 36.421875 16.476562 36.667969 16.238281 36.667969 15.945312 C 36.667969 15.652344 36.421875 15.40625 36.125 15.40625 C 35.832031 15.40625 35.59375 15.644531 35.59375 15.945312 C 35.59375 16.238281 35.832031 16.476562 36.125 16.476562 Z M 36.125 16.476562 "/>
<path style=" stroke:none;fill-rule:nonzero;fill:rgb(100%,100%,100%);fill-opacity:1;" d="M 40.054688 23.117188 C 39.757812 23.117188 39.523438 23.351562 39.523438 23.644531 C 39.523438 23.941406 39.757812 24.183594 40.054688 24.183594 C 40.34375 24.183594 40.585938 23.949219 40.585938 23.644531 C 40.585938 23.351562 40.34375 23.117188 40.054688 23.117188 Z M 40.054688 23.117188 "/>
<path style=" stroke:none;fill-rule:nonzero;fill:rgb(100%,100%,100%);fill-opacity:1;" d="M 41.394531 18.734375 C 41.101562 18.734375 40.863281 18.972656 40.863281 19.269531 C 40.863281 19.5625 41.109375 19.800781 41.394531 19.800781 C 41.6875 19.800781 41.921875 19.5625 41.921875 19.269531 C 41.921875 18.972656 41.6875 18.734375 41.394531 18.734375 Z M 41.394531 18.734375 "/>
<path style=" stroke:none;fill-rule:nonzero;fill:rgb(100%,100%,100%);fill-opacity:1;" d="M 41.050781 14.332031 C 40.757812 14.332031 40.515625 14.570312 40.515625 14.875 C 40.515625 15.171875 40.757812 15.414062 41.050781 15.414062 C 41.34375 15.414062 41.582031 15.171875 41.582031 14.875 C 41.582031 14.570312 41.335938 14.332031 41.050781 14.332031 Z M 41.050781 14.332031 "/>
<path style=" stroke:none;fill-rule:nonzero;fill:rgb(100%,100%,100%);fill-opacity:1;" d="M 43.585938 15.152344 C 43.292969 15.152344 43.054688 15.386719 43.054688 15.683594 C 43.054688 15.976562 43.292969 16.214844 43.585938 16.214844 C 43.882812 16.214844 44.117188 15.976562 44.117188 15.683594 C 44.117188 15.398438 43.871094 15.152344 43.585938 15.152344 Z M 43.585938 15.152344 "/>
<path style=" stroke:none;fill-rule:nonzero;fill:rgb(100%,100%,100%);fill-opacity:1;" d="M 39.144531 12.671875 C 38.851562 12.671875 38.605469 12.910156 38.605469 13.203125 C 38.605469 13.5 38.851562 13.734375 39.144531 13.734375 C 39.4375 13.734375 39.675781 13.488281 39.675781 13.203125 C 39.675781 12.921875 39.4375 12.671875 39.144531 12.671875 Z M 39.144531 12.671875 "/>
<path style=" stroke:none;fill-rule:nonzero;fill:rgb(100%,100%,100%);fill-opacity:1;" d="M 38.097656 10.660156 C 37.804688 10.660156 37.5625 10.898438 37.5625 11.191406 C 37.5625 11.484375 37.804688 11.730469 38.097656 11.730469 C 38.390625 11.730469 38.628906 11.496094 38.628906 11.191406 C 38.628906 10.898438 38.390625 10.660156 38.097656 10.660156 Z M 38.097656 10.660156 "/>
<path style=" stroke:none;fill-rule:nonzero;fill:rgb(100%,100%,100%);fill-opacity:1;" d="M 40.304688 10.660156 C 40.011719 10.660156 39.777344 10.898438 39.777344 11.191406 C 39.777344 11.484375 40.011719 11.730469 40.304688 11.730469 C 40.601562 11.730469 40.835938 11.496094 40.835938 11.191406 C 40.835938 10.898438 40.601562 10.660156 40.304688 10.660156 Z M 40.304688 10.660156 "/>
<path style=" stroke:none;fill-rule:nonzero;fill:rgb(100%,100%,100%);fill-opacity:1;" d="M 37.777344 9.1875 C 37.777344 8.941406 37.976562 8.734375 38.222656 8.734375 C 38.464844 8.734375 38.671875 8.941406 38.671875 9.1875 C 38.671875 9.4375 38.476562 9.636719 38.222656 9.636719 C 37.984375 9.636719 37.777344 9.4375 37.777344 9.1875 Z M 37.777344 9.1875 "/>
<path style=" stroke:none;fill-rule:nonzero;fill:rgb(100%,100%,100%);fill-opacity:1;" d="M 39.109375 7.558594 C 39.109375 7.378906 39.257812 7.226562 39.449219 7.226562 C 39.636719 7.226562 39.78125 7.367188 39.78125 7.558594 C 39.78125 7.75 39.636719 7.902344 39.449219 7.902344 C 39.25 7.902344 39.109375 7.75 39.109375 7.558594 Z M 39.109375 7.558594 "/>
<path style=" stroke:none;fill-rule:nonzero;fill:rgb(100%,100%,100%);fill-opacity:1;" d="M 40.832031 6.789062 C 40.832031 6.632812 40.960938 6.492188 41.125 6.492188 C 41.289062 6.492188 41.417969 6.632812 41.417969 6.789062 C 41.417969 6.953125 41.289062 7.085938 41.125 7.085938 C 40.960938 7.085938 40.832031 6.953125 40.832031 6.789062 Z M 40.832031 6.789062 "/>
<path style=" stroke:none;fill-rule:nonzero;fill:rgb(100%,100%,100%);fill-opacity:1;" d="M 48.167969 10.488281 C 48.167969 10.339844 48.289062 10.214844 48.433594 10.214844 C 48.582031 10.214844 48.707031 10.339844 48.707031 10.488281 C 48.707031 10.632812 48.582031 10.757812 48.433594 10.757812 C 48.289062 10.757812 48.167969 10.632812 48.167969 10.488281 Z M 48.167969 10.488281 "/>
<path style=" stroke:none;fill-rule:nonzero;fill:rgb(100%,100%,100%);fill-opacity:1;" d="M 47.78125 15.847656 C 47.773438 15.683594 47.902344 15.546875 48.058594 15.546875 C 48.21875 15.535156 48.355469 15.660156 48.359375 15.824219 C 48.371094 15.984375 48.25 16.125 48.082031 16.125 C 47.929688 16.132812 47.792969 16.011719 47.78125 15.847656 Z M 47.78125 15.847656 "/>
<path style=" stroke:none;fill-rule:nonzero;fill:rgb(100%,100%,100%);fill-opacity:1;" d="M 48.542969 14.808594 C 48.53125 14.644531 48.65625 14.503906 48.820312 14.503906 C 48.976562 14.5 49.113281 14.621094 49.125 14.78125 C 49.125 14.949219 49.007812 15.085938 48.847656 15.085938 C 48.679688 15.097656 48.542969 14.972656 48.542969 14.808594 Z M 48.542969 14.808594 "/>
<path style=" stroke:none;fill-rule:nonzero;fill:rgb(100%,100%,100%);fill-opacity:1;" d="M 46.980469 16.871094 C 46.972656 16.707031 47.09375 16.570312 47.257812 16.570312 C 47.414062 16.558594 47.550781 16.679688 47.558594 16.847656 C 47.558594 17.007812 47.445312 17.148438 47.28125 17.148438 C 47.125 17.15625 46.988281 17.027344 46.980469 16.871094 Z M 46.980469 16.871094 "/>
<path style=" stroke:none;fill-rule:nonzero;fill:rgb(100%,100%,100%);fill-opacity:1;" d="M 46.078125 17.835938 C 46.070312 17.671875 46.195312 17.53125 46.355469 17.53125 C 46.523438 17.523438 46.652344 17.648438 46.664062 17.808594 C 46.664062 17.976562 46.546875 18.113281 46.382812 18.113281 C 46.21875 18.113281 46.078125 17.992188 46.078125 17.835938 Z M 46.078125 17.835938 "/>
<path style=" stroke:none;fill-rule:nonzero;fill:rgb(100%,100%,100%);fill-opacity:1;" d="M 49.230469 13.785156 C 49.222656 13.625 49.34375 13.488281 49.507812 13.484375 C 49.671875 13.476562 49.800781 13.597656 49.808594 13.761719 C 49.820312 13.925781 49.695312 14.0625 49.53125 14.0625 C 49.375 14.074219 49.234375 13.9375 49.230469 13.785156 Z M 49.230469 13.785156 "/>
<path style=" stroke:none;fill-rule:nonzero;fill:rgb(100%,100%,100%);fill-opacity:1;" d="M 49.769531 12.878906 C 49.761719 12.710938 49.882812 12.582031 50.046875 12.574219 C 50.210938 12.566406 50.339844 12.6875 50.351562 12.851562 C 50.359375 13.015625 50.234375 13.15625 50.074219 13.15625 C 49.90625 13.164062 49.777344 13.039062 49.769531 12.878906 Z M 49.769531 12.878906 "/>
<path style=" stroke:none;fill-rule:nonzero;fill:rgb(100%,100%,100%);fill-opacity:1;" d="M 16.4375 35.523438 C 16.4375 35.523438 14.484375 32.140625 15.835938 28.664062 C 17.320312 24.816406 21.617188 25.324219 21.617188 25.324219 C 20.921875 25.015625 20.152344 24.847656 19.351562 24.878906 C 16.375 24.996094 14.058594 27.726562 14.1875 30.976562 C 14.261719 32.851562 15.136719 34.496094 16.4375 35.523438 Z M 16.4375 35.523438 "/>
<path style=" stroke:none;fill-rule:nonzero;fill:rgb(100%,100%,100%);fill-opacity:1;" d="M 9.234375 24.726562 C 8.390625 23.882812 7.875 22.722656 7.875 21.433594 C 7.875 18.867188 9.953125 16.910156 12.515625 16.78125 C 15.148438 16.644531 19.988281 17.433594 23.078125 17.027344 C 24.144531 21.8125 28.882812 26.457031 32.59375 28.570312 C 28.183594 26.597656 23.964844 22.117188 20.273438 20.058594 C 16.425781 17.917969 12.554688 17.597656 10.527344 19.472656 C 8.769531 21.082031 8.910156 23.375 9.234375 24.726562 Z M 9.234375 24.726562 "/>
<path style=" stroke:none;fill-rule:nonzero;fill:rgb(100%,100%,100%);fill-opacity:1;" d="M 20.144531 29.550781 C 20.382812 30.9375 17.90625 31.371094 17.90625 31.371094 C 20.164062 31.769531 20.996094 30.5625 20.996094 30.5625 Z M 20.144531 29.550781 "/>
<path style=" stroke:none;fill-rule:nonzero;fill:rgb(100%,100%,100%);fill-opacity:1;" d="M 38.089844 30.296875 L 38.089844 30.28125 C 38.089844 30.28125 36.625 32.375 37.632812 36.183594 C 37.019531 36.777344 35.90625 37.261719 35.023438 37.515625 C 35.023438 37.515625 38.425781 37.957031 39.488281 36.140625 C 37.433594 34.539062 38.050781 30.5625 38.089844 30.296875 Z M 38.089844 30.296875 "/>
<path style=" stroke:none;fill-rule:nonzero;fill:rgb(100%,100%,100%);fill-opacity:1;" d="M 44.871094 8.492188 C 43.542969 8.246094 42.3125 8.949219 42.113281 10.054688 C 41.917969 11.160156 42.816406 12.253906 44.148438 12.492188 C 45.476562 12.730469 46.707031 12.035156 46.914062 10.929688 C 47.101562 9.816406 46.195312 8.730469 44.871094 8.492188 Z M 46.53125 10.839844 C 46.390625 11.625 45.515625 12.125 44.566406 11.945312 C 43.625 11.773438 42.980469 10.996094 43.125 10.214844 C 43.273438 9.433594 44.140625 8.941406 45.089844 9.113281 C 46.03125 9.277344 46.675781 10.054688 46.53125 10.839844 Z M 46.53125 10.839844 "/>
<path style=" stroke:none;fill-rule:nonzero;fill:rgb(100%,100%,100%);fill-opacity:1;" d="M 44.753906 10.496094 C 44.828125 10.0625 45.320312 9.785156 45.835938 9.882812 C 46.355469 9.980469 46.707031 10.40625 46.636719 10.839844 C 46.554688 11.273438 46.070312 11.550781 45.546875 11.453125 C 45.035156 11.355469 44.671875 10.929688 44.753906 10.496094 Z M 44.753906 10.496094 "/>
<path style=" stroke:none;fill-rule:nonzero;fill:rgb(100%,100%,100%);fill-opacity:1;" d="M 41.984375 28.40625 C 42.800781 29.929688 40.191406 30.488281 40.191406 30.488281 C 42.007812 30.796875 43.046875 29.625 43.046875 29.136719 C 42.65625 27.5 42.230469 28.742188 41.984375 28.40625 Z M 41.984375 28.40625 "/>
<path style=" stroke:none;fill-rule:nonzero;fill:rgb(100%,100%,100%);fill-opacity:1;" d="M 47.441406 9.695312 C 46.773438 8.539062 45.53125 7.753906 44.117188 7.753906 C 42.824219 7.753906 41.679688 8.410156 40.984375 9.390625 C 40.765625 9.652344 40.378906 9.695312 40.109375 9.476562 C 39.851562 9.253906 39.808594 8.859375 40.027344 8.597656 C 40.835938 7.6875 42.046875 7.101562 43.382812 7.101562 C 45.195312 7.101562 46.757812 8.171875 47.441406 9.695312 Z M 47.441406 9.695312 "/>
<path style=" stroke:none;fill-rule:nonzero;fill:rgb(100%,100%,100%);fill-opacity:1;" d="M 43.292969 17.605469 C 41.921875 17.566406 40.164062 16.894531 38.53125 15.675781 C 37.15625 14.652344 36.121094 13.441406 35.5625 12.304688 C 35.449219 12.109375 35.515625 11.855469 35.707031 11.738281 C 35.90625 11.625 36.167969 11.683594 36.273438 11.886719 C 36.871094 13.082031 37.761719 14.40625 39.085938 15.503906 C 40.46875 16.644531 41.949219 17.351562 43.292969 17.605469 Z M 43.292969 17.605469 "/>
<path style=" stroke:none;fill-rule:nonzero;fill:rgb(100%,100%,100%);fill-opacity:1;" d="M 41.476562 21.355469 C 39.007812 21.199219 36.183594 19.90625 34.007812 17.664062 C 32.988281 16.609375 32.21875 15.484375 31.695312 14.359375 C 31.582031 14.160156 31.652344 13.90625 31.847656 13.800781 C 32.046875 13.6875 32.308594 13.761719 32.402344 13.964844 C 33.042969 15.339844 33.84375 16.773438 35.152344 18.085938 C 37.042969 19.980469 39.332031 21.101562 41.476562 21.355469 Z M 41.476562 21.355469 "/>
<path style=" stroke:none;fill-rule:nonzero;fill:rgb(100%,100%,100%);fill-opacity:1;" d="M 27.621094 15.734375 C 27.832031 15.660156 28.054688 15.773438 28.140625 15.984375 C 29.199219 18.613281 29.761719 19.683594 31.773438 21.820312 C 34.492188 24.707031 38.425781 25.75 40.609375 25.789062 C 38.757812 25.953125 34.1875 25.085938 31.023438 21.789062 C 29.238281 19.929688 27.9375 17.96875 27.375 16.25 C 27.292969 16.046875 27.40625 15.804688 27.621094 15.734375 Z M 27.621094 15.734375 "/>
<path style=" stroke:none;fill-rule:nonzero;fill:rgb(100%,100%,100%);fill-opacity:1;" d="M 42.089844 12.558594 C 42.621094 12.910156 43.40625 13.261719 44.460938 13.296875 C 46.675781 13.359375 47.441406 11.589844 47.527344 10.914062 C 47.558594 11.410156 46.890625 13.859375 44.167969 13.890625 C 43.117188 13.90625 42.292969 13.660156 41.710938 13.304688 C 41.507812 13.199219 41.429688 12.953125 41.523438 12.746094 C 41.640625 12.539062 41.902344 12.433594 42.089844 12.558594 Z M 42.089844 12.558594 "/>
<path style=" stroke:none;fill-rule:nonzero;fill:rgb(42.745098%,43.529412%,43.921569%);fill-opacity:1;" d="M 68.226562 16.101562 C 68.226562 17.164062 67.910156 17.949219 67.265625 18.46875 C 66.617188 18.992188 65.636719 19.246094 64.3125 19.246094 L 61.128906 19.246094 L 61.128906 8.492188 L 67.574219 8.492188 L 67.574219 9.6875 L 62.496094 9.6875 L 62.496094 13.039062 L 64.109375 13.039062 C 65.496094 13.039062 66.527344 13.285156 67.207031 13.769531 C 67.894531 14.253906 68.226562 15.03125 68.226562 16.101562 Z M 62.496094 18.085938 L 64.164062 18.085938 C 65.09375 18.085938 65.765625 17.933594 66.191406 17.625 C 66.609375 17.3125 66.820312 16.804688 66.820312 16.101562 C 66.820312 15.414062 66.601562 14.929688 66.167969 14.644531 C 65.734375 14.359375 64.988281 14.21875 63.941406 14.21875 L 62.496094 14.21875 Z M 62.496094 18.085938 "/>
<path style=" stroke:none;fill-rule:nonzero;fill:rgb(42.745098%,43.529412%,43.921569%);fill-opacity:1;" d="M 76 19.246094 L 69.929688 19.246094 L 69.929688 8.492188 L 76 8.492188 L 76 9.6875 L 71.296875 9.6875 L 71.296875 13.039062 L 75.71875 13.039062 L 75.71875 14.21875 L 71.296875 14.21875 L 71.296875 18.054688 L 76 18.054688 Z M 76 19.246094 "/>
<path style=" stroke:none;fill-rule:nonzero;fill:rgb(42.745098%,43.529412%,43.921569%);fill-opacity:1;" d="M 96.683594 19.246094 L 95.375 15.910156 L 91.066406 15.910156 L 89.773438 19.246094 L 88.390625 19.246094 L 92.636719 8.441406 L 93.871094 8.441406 L 98.105469 19.246094 Z M 94.96875 14.71875 L 93.746094 11.460938 L 93.222656 9.851562 C 93.078125 10.4375 92.921875 10.980469 92.757812 11.460938 L 91.523438 14.71875 Z M 94.96875 14.71875 "/>
<path style=" stroke:none;fill-rule:nonzero;fill:rgb(42.745098%,43.529412%,43.921569%);fill-opacity:1;" d="M 106.539062 11.65625 C 106.539062 12.753906 106.164062 13.597656 105.402344 14.1875 C 104.640625 14.777344 103.578125 15.0625 102.207031 15.0625 L 100.953125 15.0625 L 100.953125 19.25 L 99.585938 19.25 L 99.585938 8.492188 L 102.464844 8.492188 C 105.179688 8.492188 106.539062 9.546875 106.539062 11.65625 Z M 100.953125 13.902344 L 102.039062 13.902344 C 103.121094 13.902344 103.90625 13.726562 104.390625 13.382812 C 104.871094 13.039062 105.117188 12.484375 105.117188 11.714844 C 105.117188 11.023438 104.890625 10.503906 104.4375 10.160156 C 103.988281 9.816406 103.285156 9.648438 102.324219 9.648438 L 100.945312 9.648438 L 100.945312 13.902344 Z M 100.953125 13.902344 "/>
<path style=" stroke:none;fill-rule:nonzero;fill:rgb(42.745098%,43.529412%,43.921569%);fill-opacity:1;" d="M 109.746094 19.390625 C 109.1875 19.390625 108.6875 19.320312 108.265625 19.171875 L 108.265625 17.894531 C 108.714844 18.097656 109.1875 18.195312 109.699219 18.195312 C 110.230469 18.195312 110.65625 18.074219 110.980469 17.828125 C 111.308594 17.582031 111.617188 17.132812 111.921875 16.484375 L 107.742188 8.492188 L 109.238281 8.492188 L 112.34375 14.472656 C 112.46875 14.703125 112.574219 14.957031 112.664062 15.242188 L 112.722656 15.242188 L 112.78125 15.0625 L 113.007812 14.457031 L 115.609375 8.492188 L 117.054688 8.492188 L 113.589844 16.191406 C 113.183594 17.101562 112.804688 17.773438 112.46875 18.1875 C 112.132812 18.605469 111.75 18.90625 111.316406 19.105469 C 110.882812 19.300781 110.359375 19.390625 109.746094 19.390625 Z M 109.746094 19.390625 "/>
<path style=" stroke:none;fill-rule:nonzero;fill:rgb(42.745098%,43.529412%,43.921569%);fill-opacity:1;" d="M 122.824219 9.53125 C 121.65625 9.53125 120.738281 9.914062 120.070312 10.691406 C 119.398438 11.472656 119.058594 12.527344 119.058594 13.867188 C 119.058594 15.257812 119.386719 16.324219 120.035156 17.074219 C 120.679688 17.828125 121.605469 18.203125 122.808594 18.203125 C 123.585938 18.203125 124.453125 18.054688 125.417969 17.777344 L 125.417969 18.957031 C 124.960938 19.121094 124.515625 19.234375 124.085938 19.300781 C 123.660156 19.355469 123.167969 19.390625 122.609375 19.390625 C 121.007812 19.390625 119.78125 18.90625 118.914062 17.945312 C 118.046875 16.976562 117.617188 15.609375 117.617188 13.851562 C 117.617188 12.746094 117.820312 11.773438 118.234375 10.9375 C 118.644531 10.105469 119.25 9.464844 120.042969 9.007812 C 120.835938 8.558594 121.761719 8.328125 122.832031 8.328125 C 123.976562 8.328125 124.984375 8.539062 125.835938 8.957031 L 125.285156 10.105469 C 124.417969 9.726562 123.601562 9.53125 122.824219 9.53125 Z M 122.824219 9.53125 "/>
<path style=" stroke:none;fill-rule:nonzero;fill:rgb(42.745098%,43.529412%,43.921569%);fill-opacity:1;" d="M 135.769531 19.246094 L 134.117188 19.246094 L 129.214844 13.796875 L 129.214844 19.246094 L 127.84375 19.246094 L 127.84375 8.492188 L 129.214844 8.492188 L 129.214844 13.703125 L 134.003906 8.492188 L 135.558594 8.492188 L 130.835938 13.710938 Z M 135.769531 19.246094 "/>
<path style=" stroke:none;fill-rule:nonzero;fill:rgb(42.745098%,43.529412%,43.921569%);fill-opacity:1;" d="M 139.132812 19.246094 L 137.765625 19.246094 L 137.765625 8.492188 L 139.132812 8.492188 Z M 139.132812 19.246094 "/>
<path style=" stroke:none;fill-rule:nonzero;fill:rgb(42.745098%,43.529412%,43.921569%);fill-opacity:1;" d="M 70.003906 35.363281 L 67.714844 35.363281 L 67.714844 30.691406 L 63.429688 30.691406 L 63.429688 35.363281 L 61.128906 35.363281 L 61.128906 24.527344 L 63.429688 24.527344 L 63.429688 28.773438 L 67.714844 28.773438 L 67.714844 24.527344 L 70.003906 24.527344 Z M 70.003906 35.363281 "/>
<path style=" stroke:none;fill-rule:nonzero;fill:rgb(42.745098%,43.529412%,43.921569%);fill-opacity:1;" d="M 79.6875 35.363281 L 78.902344 32.785156 L 74.960938 32.785156 L 74.175781 35.363281 L 71.703125 35.363281 L 75.527344 24.488281 L 78.332031 24.488281 L 82.167969 35.363281 Z M 78.355469 30.851562 C 77.628906 28.515625 77.21875 27.195312 77.128906 26.894531 C 77.039062 26.59375 76.972656 26.347656 76.933594 26.167969 C 76.765625 26.796875 76.304688 28.355469 75.53125 30.851562 Z M 78.355469 30.851562 "/>
<path style=" stroke:none;fill-rule:nonzero;fill:rgb(42.745098%,43.529412%,43.921569%);fill-opacity:1;" d="M 91.335938 27.90625 C 91.335938 29.070312 90.96875 29.964844 90.238281 30.585938 C 89.511719 31.199219 88.46875 31.511719 87.132812 31.511719 L 86.140625 31.511719 L 86.140625 35.363281 L 83.84375 35.363281 L 83.84375 24.527344 L 87.304688 24.527344 C 88.617188 24.527344 89.617188 24.816406 90.296875 25.378906 C 91 25.945312 91.335938 26.789062 91.335938 27.90625 Z M 86.15625 29.625 L 86.910156 29.625 C 87.613281 29.625 88.144531 29.488281 88.496094 29.210938 C 88.847656 28.929688 89.019531 28.523438 89.019531 27.992188 C 89.019531 27.449219 88.871094 27.054688 88.578125 26.796875 C 88.285156 26.542969 87.828125 26.414062 87.195312 26.414062 L 86.148438 26.414062 L 86.148438 29.625 Z M 86.15625 29.625 "/>
<path style=" stroke:none;fill-rule:nonzero;fill:rgb(42.745098%,43.529412%,43.921569%);fill-opacity:1;" d="M 93.039062 29.929688 C 93.039062 28.128906 93.476562 26.738281 94.371094 25.78125 C 95.257812 24.832031 96.535156 24.355469 98.207031 24.355469 C 99.863281 24.355469 101.140625 24.832031 102.023438 25.796875 C 102.910156 26.753906 103.347656 28.140625 103.347656 29.929688 C 103.347656 31.726562 102.910156 33.101562 102.023438 34.0625 C 101.140625 35.019531 99.871094 35.5 98.207031 35.5 C 96.546875 35.5 95.257812 35.027344 94.371094 34.078125 C 93.476562 33.128906 93.039062 31.726562 93.039062 29.929688 Z M 100.9375 29.929688 C 100.9375 27.492188 100.03125 26.273438 98.207031 26.273438 C 96.078125 26.273438 95.441406 27.90625 95.441406 29.929688 C 95.441406 31.949219 96.070312 33.589844 98.207031 33.589844 C 100.03125 33.589844 100.9375 32.367188 100.9375 29.929688 Z M 100.9375 29.929688 "/>
<path style=" stroke:none;fill-rule:nonzero;fill:rgb(42.745098%,43.529412%,43.921569%);fill-opacity:1;" d="M 126.136719 35.363281 L 123.84375 35.363281 L 123.84375 30.691406 L 119.558594 30.691406 L 119.558594 35.363281 L 117.265625 35.363281 L 117.265625 24.527344 L 119.558594 24.527344 L 119.558594 28.773438 L 123.84375 28.773438 L 123.84375 24.527344 L 126.136719 24.527344 Z M 126.136719 35.363281 "/>
<path style=" stroke:none;fill-rule:nonzero;fill:rgb(42.745098%,43.529412%,43.921569%);fill-opacity:1;" d="M 135.542969 31.976562 C 135.542969 33.101562 135.164062 33.945312 134.421875 34.511719 C 133.667969 35.074219 132.5625 35.363281 131.101562 35.363281 L 128.140625 35.363281 L 128.140625 24.527344 L 130.4375 24.527344 L 130.4375 28.6875 L 131.183594 28.6875 C 132.574219 28.6875 133.644531 28.972656 134.40625 29.546875 C 135.15625 30.125 135.542969 30.9375 135.542969 31.976562 Z M 130.414062 33.480469 L 131.007812 33.480469 C 131.761719 33.480469 132.320312 33.359375 132.671875 33.101562 C 133.023438 32.859375 133.191406 32.472656 133.191406 31.976562 C 133.191406 31.476562 133.023438 31.109375 132.6875 30.894531 C 132.351562 30.679688 131.753906 30.570312 130.90625 30.570312 L 130.40625 30.570312 L 130.40625 33.480469 Z M 139.132812 35.363281 L 136.84375 35.363281 L 136.84375 24.527344 L 139.132812 24.527344 Z M 139.132812 35.363281 "/>
<path style=" stroke:none;fill-rule:nonzero;fill:rgb(42.745098%,43.529412%,43.921569%);fill-opacity:1;" d="M 148.785156 28.6875 L 149.683594 28.6875 C 151.097656 28.6875 152.1875 28.972656 152.953125 29.546875 C 153.722656 30.117188 154.109375 30.925781 154.109375 31.976562 C 154.109375 34.234375 152.621094 35.363281 149.636719 35.363281 L 146.476562 35.363281 L 146.476562 24.527344 L 153.324219 24.527344 L 153.324219 26.425781 L 148.773438 26.425781 L 148.773438 28.6875 Z M 148.785156 33.480469 L 149.550781 33.480469 C 150.328125 33.480469 150.894531 33.359375 151.253906 33.101562 C 151.613281 32.859375 151.792969 32.472656 151.792969 31.976562 C 151.792969 31.476562 151.613281 31.117188 151.246094 30.894531 C 150.875 30.671875 150.253906 30.570312 149.363281 30.570312 L 148.785156 30.570312 Z M 148.785156 33.480469 "/>
<path style=" stroke:none;fill-rule:nonzero;fill:rgb(42.745098%,43.529412%,43.921569%);fill-opacity:1;" d="M 163.300781 35.363281 L 162.515625 32.785156 L 158.566406 32.785156 L 157.78125 35.363281 L 155.308594 35.363281 L 159.132812 24.488281 L 161.9375 24.488281 L 165.773438 35.363281 Z M 161.96875 30.851562 C 161.242188 28.515625 160.832031 27.195312 160.742188 26.894531 C 160.648438 26.59375 160.585938 26.347656 160.542969 26.167969 C 160.382812 26.796875 159.914062 28.355469 159.144531 30.851562 Z M 161.96875 30.851562 "/>
<path style=" stroke:none;fill-rule:nonzero;fill:rgb(42.745098%,43.529412%,43.921569%);fill-opacity:1;" d="M 175.839844 35.363281 L 173.546875 35.363281 L 173.546875 30.691406 L 169.261719 30.691406 L 169.261719 35.363281 L 166.964844 35.363281 L 166.964844 24.527344 L 169.261719 24.527344 L 169.261719 28.773438 L 173.546875 28.773438 L 173.546875 24.527344 L 175.839844 24.527344 Z M 175.839844 35.363281 "/>
<path style=" stroke:none;fill-rule:nonzero;fill:rgb(42.745098%,43.529412%,43.921569%);fill-opacity:1;" d="M 186.359375 35.363281 L 183.746094 35.363281 L 179.824219 29.871094 L 179.824219 35.363281 L 177.523438 35.363281 L 177.523438 24.527344 L 179.824219 24.527344 L 179.824219 29.773438 L 183.710938 24.527344 L 186.152344 24.527344 L 182.203125 29.730469 Z M 186.359375 35.363281 "/>
<path style=" stroke:none;fill-rule:nonzero;fill:rgb(42.745098%,43.529412%,43.921569%);fill-opacity:1;" d="M 80.195312 8.492188 C 80.195312 9.9375 80.175781 11.199219 80.144531 12.347656 C 80.113281 13.523438 80.039062 14.546875 79.917969 15.40625 C 79.792969 16.261719 79.597656 16.933594 79.335938 17.410156 C 79.066406 17.902344 78.691406 18.148438 78.207031 18.148438 C 78.003906 18.148438 77.808594 18.125 77.628906 18.074219 L 77.628906 19.28125 C 77.714844 19.324219 77.839844 19.355469 77.988281 19.382812 C 78.148438 19.40625 78.3125 19.417969 78.460938 19.417969 C 78.925781 19.417969 79.335938 19.300781 79.664062 19.0625 C 79.992188 18.828125 80.269531 18.480469 80.492188 18.054688 C 80.710938 17.625 80.890625 17.09375 81.019531 16.496094 C 81.152344 15.898438 81.25 15.226562 81.316406 14.5 C 81.378906 13.796875 81.429688 13.015625 81.453125 12.1875 C 81.476562 11.410156 81.496094 10.554688 81.511719 9.660156 L 81.511719 9.613281 L 85.609375 9.613281 L 85.609375 19.277344 L 86.886719 19.277344 L 86.886719 8.492188 Z M 80.195312 8.492188 "/>
<path style=" stroke:none;fill-rule:nonzero;fill:rgb(42.745098%,43.529412%,43.921569%);fill-opacity:1;" d="M 104.539062 33.097656 L 105.417969 33.097656 C 107.171875 30.714844 106.84375 27.386719 106.859375 24.527344 L 114.421875 24.527344 L 114.421875 33.097656 L 115.570312 33.097656 L 115.570312 36.949219 L 113.246094 36.949219 L 113.246094 35.035156 L 106.75 35.035156 L 106.75 36.949219 L 104.539062 36.949219 Z M 112.273438 33.097656 L 112.273438 26.425781 L 109.007812 26.425781 C 109.015625 28.75 108.976562 31.074219 107.847656 33.097656 Z M 112.273438 33.097656 "/>
</g>
</svg>
