<svg xmlns="http://www.w3.org/2000/svg" width="164.118" height="40" viewBox="0 0 164.118 40">
  <defs>
    <style>
      .cls-1, .cls-2 {
        fill: #909295;
      }

      .cls-1 {
        fill-rule: evenodd;
      }

      .cls-3 {
        fill: #fff;
      }
    </style>
  </defs>
  <g id="Group_1493" data-name="Group 1493" transform="translate(-21.883 -27.344)">
    <path id="Path_1829" data-name="Path 1829" class="cls-1" d="M54.047,59.526c-.165-.072-.33-.054-.37.047s.055.23.215.3.326.045.368-.051-.053-.229-.212-.3Z" transform="translate(-13.087 -13.279)"/>
    <path id="Path_1830" data-name="Path 1830" class="cls-1" d="M55.938,53.053a.577.577,0,0,0-.493-.639l-.156-.016h-.068l-.008.038.066.045a.335.335,0,0,1,.132.348.381.381,0,0,1-.491.2l-.1-.041-.046-.03-.038-.015.03.131.088.125a.735.735,0,0,0,.363.206.574.574,0,0,0,.724-.355Z" transform="translate(-13.527 -10.352)"/>
    <path id="Path_1831" data-name="Path 1831" class="cls-1" d="M56.985,60.119c.054-.131-.075-.312-.3-.408s-.446-.066-.5.065.076.319.3.415.445.062.5-.072Z" transform="translate(-14.119 -13.35)"/>
    <path id="Path_1832" data-name="Path 1832" class="cls-1" d="M57.145,55.547a.706.706,0,0,0,.366.207.519.519,0,1,0,.231-.989l-.158-.019h-.066l-.008.038.065.046a.335.335,0,0,1,.13.346.379.379,0,0,1-.487.2l-.1-.044-.046-.028-.037-.017.028.134.086.121Z" transform="translate(-14.473 -11.322)"/>
    <path id="Path_1833" data-name="Path 1833" class="cls-1" d="M54.2,50.514a.573.573,0,0,0-.494-.635l-.156-.022h-.068l-.008.039.066.043a.34.34,0,0,1,.13.348.377.377,0,0,1-.488.2l-.1-.045-.044-.027-.039-.015.029.132.087.125a.748.748,0,0,0,.365.205.577.577,0,0,0,.725-.353Z" transform="translate(-12.81 -9.303)"/>
    <path id="Path_1834" data-name="Path 1834" class="cls-1" d="M56.062,58.375c.163.068.327.046.369-.054s-.055-.228-.214-.3-.327-.054-.369.048.055.23.215.3Z" transform="translate(-13.981 -12.659)"/>
    <path id="Path_1835" data-name="Path 1835" class="cls-1" d="M65.752,68.436a.259.259,0,0,0-.258-.258.255.255,0,1,0,.258.258Z" transform="translate(-17.853 -16.872)"/>
    <path id="Path_1836" data-name="Path 1836" class="cls-1" d="M62.359,68.793a.256.256,0,1,0-.511,0,.256.256,0,0,0,.511,0Z" transform="translate(-16.456 -17.019)"/>
    <path id="Path_1837" data-name="Path 1837" class="cls-1" d="M59.51,68.044a.217.217,0,1,0-.217.216.216.216,0,0,0,.217-.216Z" transform="translate(-15.315 -16.727)"/>
    <path id="Path_1838" data-name="Path 1838" class="cls-1" d="M59.391,57.508a.688.688,0,0,0,.364.205.519.519,0,1,0,.231-.99l-.157-.021h-.066l-.008.039.066.045a.341.341,0,0,1,.13.348.379.379,0,0,1-.489.206l-.1-.048-.046-.023-.039-.018.03.134.088.122Z" transform="translate(-15.396 -12.131)"/>
    <path id="Path_1839" data-name="Path 1839" class="cls-1" d="M59.142,60.781c.159.068.324.049.366-.052s-.056-.228-.215-.3-.326-.044-.369.056.056.227.217.3Z" transform="translate(-15.249 -13.653)"/>
    <path id="Path_1840" data-name="Path 1840" class="cls-1" d="M57.369,61.613c-.159-.068-.324-.048-.371.054-.035.078.034.191.153.262l.069.039c.157.066.322.042.361-.054s-.052-.235-.211-.3Z" transform="translate(-14.455 -14.143)"/>
    <path id="Path_1841" data-name="Path 1841" class="cls-1" d="M62.2,65.255A.255.255,0,1,0,61.945,65a.255.255,0,0,0,.254.256Z" transform="translate(-16.496 -15.454)"/>
    <path id="Path_1842" data-name="Path 1842" class="cls-1" d="M58.969,64.345a.254.254,0,0,0,.509,0,.254.254,0,0,0-.509,0Z" transform="translate(-15.271 -15.184)"/>
    <path id="Path_1843" data-name="Path 1843" class="cls-1" d="M57.109,45.791a.471.471,0,0,0-.4-.522l-.127-.016h-.055l-.007.031.054.039a.272.272,0,0,1,.107.284.31.31,0,0,1-.4.167l-.085-.039-.039-.024-.03-.011.025.109.071.1a.571.571,0,0,0,.3.168.468.468,0,0,0,.592-.287Z" transform="translate(-14.099 -7.4)"/>
    <path id="Path_1844" data-name="Path 1844" class="cls-1" d="M49.876,37.168c-.281-.07-.479-.228-.444-.365s.282-.18.564-.114.475.234.441.365-.279.179-.562.115Zm-.686.622c.318.034.595-.059.614-.215s-.232-.3-.552-.335-.6.058-.616.209.229.3.554.341Zm7.572,1.973.006.028,0,.025a7.394,7.394,0,0,1-1.927,3.619l-.026.029s-.134.018-.225.028l.072.2.024.077-.832.741-.064-.024a14.85,14.85,0,0,1-2.008-.824,4.153,4.153,0,0,0-.3,1.225l-.085.511a4.517,4.517,0,0,0-.083.989l-.025.806a6.679,6.679,0,0,1-.261,1.462l-.084.316a4.645,4.645,0,0,0-.088,1.006c0,.269.014.575.039.909.045.68.151.725.4.835l.041.018.13.058c.244.106.47.205.47.494a.445.445,0,0,1-.055.226l.022.084a.6.6,0,0,1-.31.48.45.45,0,0,1-.476.4c-.093.369-.333.385-.966.385,0,0-1.418.014-1.6.014-.028.254-.093.955-.093,1.541,0,.086,0,.17.007.247a2.066,2.066,0,0,1,1,1.184,1.592,1.592,0,0,1,.052.358.538.538,0,0,1-.19.429l-.028.028-.048.051c-.225.241-.9.959-1.475.959-.144.139-.409.37-1.3.318a4.25,4.25,0,0,1-2.788-1.3c-.862-.859-.942-1.63-1.028-3.144l-.018-.388c-.072-1.472-.148-2.992-1.461-3.5a14.975,14.975,0,0,0-5.046-.454l-.236.009-.5.369a1.433,1.433,0,0,1-.476.3l-.4.024a4.273,4.273,0,0,0,.309,1.251c.036.014.165.044.289.07.415.084,1.044.209,1.179.663a.8.8,0,0,1,.04.235c0,.395-.338.609-.641.8l-.154.1a7.779,7.779,0,0,1-3.133.281,1.555,1.555,0,0,0,.934,1.224c.512.3.844.594.844.982a.948.948,0,0,1-.136.456,2.3,2.3,0,0,1-1.988,1.358,6.039,6.039,0,0,1-2.762-.307,4.19,4.19,0,0,1-1.119-1.144l-.021.021a4.617,4.617,0,0,1-1.935,1.34,5.457,5.457,0,0,1-4.144-.266c-.221-.124-.2-.569-.189-.658l.01-.126.122.019c.029.008,3,.471,3.836.038l.024-.014c.852-.442,2.146-1.1,1.026-4.389a9.918,9.918,0,0,0-.754-1.584c-.791-1.442-1.679-3.07-1.125-5.371.543-2.251,3.167-3.186,4.454-3.186l.556.01c1.762.029,6.222.1,8.925-.973a2.3,2.3,0,0,1,2.216-1.011,1.717,1.717,0,0,1,2.175-1.145c.547-.879.945-1.179,2.388-1.1a1.533,1.533,0,0,1,.535-.659l.118-.029A3.394,3.394,0,0,1,48.6,35.55a6.023,6.023,0,0,1,2.852.053l.355.066c.7,0,2.124.247,2.53,1.158a1.867,1.867,0,0,1,.569.985l.2.148a4.384,4.384,0,0,1,1.654,1.8ZM35.718,53.193c.347-.033.224.344,0,.321l-.08-.024c-.147-.071-.136-.28.081-.3ZM55.774,39.6a.292.292,0,1,1-.292-.292.292.292,0,0,1,.292.292Zm-.874.979a.293.293,0,1,1,.294.289.292.292,0,0,1-.294-.289Zm.165.947a.324.324,0,0,1-.323.324.324.324,0,1,1,0-.648.322.322,0,0,1,.323.324ZM54.6,39.46c0,.091-.117.168-.265.168s-.266-.077-.266-.168.121-.171.266-.171.265.076.265.171Zm-.392,1.062c0,.131-.166.234-.365.234s-.368-.1-.368-.234.165-.234.368-.234.365.105.365.234Zm-.054-2.481a1.336,1.336,0,0,0-.069.686c.144.051.211.351.056.438s-.34.351-.214.459.3.222.1.43-.225-.071-.458.008-.282.291-.177.571-.375.275-.495.119-.282-.233-.356.1-.2.386-.459.419-.466-.1-.409-.354-.505-.271-.408-.018.059.418-.3.427-.416-.234-.214-.409.012-.437-.271-.464-.419.164-.37.251.147.282-.057.3a.768.768,0,0,0-.2-.177l-.166-.081c-.078-.1.025-.292.1-.37.094-.09.277-.015.411-.045.214-.053.125-.229-.142-.312s-.032-.135.2-.135.458.191.266.379a8.1,8.1,0,0,0,1.711.176,1.564,1.564,0,0,0,1.372-.944,2.09,2.09,0,0,1-1.73.389A1.618,1.618,0,0,1,50.641,38a1.359,1.359,0,0,1,1.741-.994,1.158,1.158,0,0,1,.922.826c-.7-.595-1.28-.779-1.974-.351a1.17,1.17,0,0,0,.314,1.965,1.129,1.129,0,0,0,1.438-.857c-.323.689-.945.263-.972-.178-.03-.765.649-.882.827-.738,1.009.994-.059,1.744-.526,1.969a1.137,1.137,0,0,0,1.255-.654,1.8,1.8,0,0,0-.2-1.526s.5.4.693.575Zm-.8,3.326c0,.152-.2.279-.435.279s-.431-.128-.431-.279.194-.275.431-.275.435.12.435.275Zm-1.31.393c0,.174-.216.309-.479.309s-.477-.135-.477-.309.212-.3.477-.3.479.137.479.3Zm-3.295-2.089a7.152,7.152,0,0,0-.888.052c-.264,0-.476-.125-.476-.283s.212-.284.476-.284.476.125.476.284c0,.12.678.183.822.135.2-.064.222-.294.462-.294.259,0,.486.2.226.42l-.048.048c-.044.055-.017.083-.03.176a.225.225,0,0,1-.235.182c-.2.011-.546.209-.771.1s.441-.125.412-.328c-.022-.145-.321-.182-.426-.207Zm-.465-.789c0-.186.252-.335.557-.335s.557.149.557.335-.247.336-.557.336-.557-.151-.557-.336Zm1.736,2.368c.332,0,.6.173.6.385s-.267.385-.6.385-.6-.169-.6-.385.27-.385.6-.385Zm1.869-2.921c-.081.242-.594.614-.594.614a1.1,1.1,0,0,1-.177-.985s.848.131.771.371ZM49.98,36.155a1.31,1.31,0,0,0,.074-.188c.253.012.507.038.759.06.378.032.758.071,1.135.115a2.7,2.7,0,0,1,2.076,1.216l-.092.023c-.134.009-.266-.03-.294-.082-.059-.105.018-.3-.108-.381s-.389.126-.507.109-.164-.332-.31-.416-.274.182-.478.153-.3-.274-.388-.371-.274-.018-.233.118.135.278.03.283a1.381,1.381,0,0,0-1.352,1.119A2.054,2.054,0,0,0,51.661,40.2,1.942,1.942,0,0,1,50.1,39.165a2.252,2.252,0,0,1-.126-1l-.282.008c-.015.5-.781.207-1.046.159a1.01,1.01,0,0,0-.446,0c-.194.026-.252-.069-.238-.261a1.543,1.543,0,0,1,.48-.924,3.614,3.614,0,0,1,1.131-.724.87.87,0,0,0,.411-.268Zm-1.4.158c.147,0,.268.069.268.16s-.117.159-.263.159-.269-.068-.267-.156.116-.156.262-.163Zm-.728.522c.174-.022.324.044.336.149s-.118.209-.293.226-.324-.046-.339-.149.122-.209.3-.226Zm-.415.694c.149,0,.27.073.27.159s-.121.164-.27.164-.272-.072-.272-.164.123-.159.272-.159Zm-.185.744c-.2,0-.362.1-.362.218s.162.219.362.219.361-.1.361-.219-.163-.218-.361-.218Zm-1.332.533a.432.432,0,0,1,.209-.106.5.5,0,0,0-.141.229c-.091.359.095.744.64.89a1.5,1.5,0,0,1,.989.878,1.853,1.853,0,0,1-1.045-.56,4.082,4.082,0,0,0,2.434,1.511c-.122-.23-.229-.493.011-.274a2.794,2.794,0,0,0-.279-.851,1.827,1.827,0,0,1,.415,1.306A4.978,4.978,0,0,1,46.536,40.3c-.825-.791-.685-1.319-.617-1.5Zm2.976,3.638c-.069.164-.351.2-.626.085s-.438-.351-.364-.515.349-.2.623-.084.44.346.368.514Zm-4.861-2.855a1.373,1.373,0,0,1,.334-.309,1.2,1.2,0,0,1,.809-.2c-.129,1.476,1.706,3.118,2.155,3.544a.731.731,0,0,1,.155.581.744.744,0,0,1-.846.619.762.762,0,0,1-.409-.216c-.6-.641-2.159-2.043-2.258-3.927l.062-.088Zm-.3.4c-.046.072-.094.145-.144.221a7.013,7.013,0,0,0,2.1,3.469c.08.086.154.159.217.227l0,0,0,0a1.187,1.187,0,0,0,.658.344l0,0v0l.147.012a1.18,1.18,0,0,0,1.2-.994l.015-.148a1.2,1.2,0,0,0-.263-.783l-.014-.021-.009-.006-.016-.016-.087-.081a10.774,10.774,0,0,1-1.175-1.262,3.038,3.038,0,0,1-.761-1.773l0-.068v-.026c-.059-.009-.118-.015-.174-.021l0,.031,0,.082a3.183,3.183,0,0,0,.8,1.884,11.522,11.522,0,0,0,1.2,1.285l.084.076.013.011.011.015a1.014,1.014,0,0,1,.223.669l-.011.124a1.01,1.01,0,0,1-1.026.846l-.126-.012a1,1,0,0,1-.558-.29h0c-.064-.074-.138-.149-.221-.234a6.646,6.646,0,0,1-2.081-3.565Zm-1.912.837.009-.014a1.525,1.525,0,0,1,.57-.546.935.935,0,0,1,.478-.1l.086.01c-.075,2.255,2.307,4.1,3.088,4.868a.755.755,0,0,1-.61,1.256.588.588,0,0,1-.388-.135c-.9-.861-3.469-2.956-3.234-5.34Zm-.269.207,0,.11c-.006,2.112,1.938,3.929,3.029,4.931.112.1.214.195.3.279a.812.812,0,0,0,.549.205h.061a1.014,1.014,0,0,0,1.01-.952v-.061a1.008,1.008,0,0,0-.255-.674l-.007-.006-.007-.008c-.1-.1-.222-.208-.366-.341-.914-.844-2.636-2.4-2.644-4.236v-.054a1.775,1.775,0,0,1,.207.066c0,1.693,1.659,3.234,2.575,4.071.147.13.271.246.374.348l.009.009.006,0,.007.01a1.22,1.22,0,0,1,.309.813l0,.069a1.224,1.224,0,0,1-1.216,1.154l-.072,0V46.76l0,.005a1.032,1.032,0,0,1-.681-.262c-.084-.081-.185-.175-.3-.276-1.058-.982-2.992-2.752-3.089-4.924.07-.092.136-.18.206-.271Zm-1.935,1A.834.834,0,0,1,40,41.622a2.2,2.2,0,0,1,.608-.177c-.178,2.764,3.276,5.438,4.564,6.494a.788.788,0,0,1,.255.558.75.75,0,0,1-.715.787.6.6,0,0,1-.364-.083c-.722-.407-4.714-3.355-4.9-6.74a2.663,2.663,0,0,1,.165-.433ZM30.1,45.818c.439.994.335,1.267-.044,2.406,1.3-1.634.044-2.406.044-2.406ZM25.415,57.951c-1.219.186-1.18-.226-1.18-.226s2.171.108,3.148-1.194a2.4,2.4,0,0,1-1.968,1.42Zm3.154-1.888a2.067,2.067,0,0,0,2.176.624,3.209,3.209,0,0,1-1.285-3.735,2.134,2.134,0,0,0-.524.805,6.559,6.559,0,0,1,.045-3.664c.978-3.646-.275-5.22-1.459-5.527s-1.968,1.312-1.968,1.312.858-.439,1.341-.135-.175,2.279.379,4.7a14.362,14.362,0,0,0,2.778,6.028c-.611.277-1.482-.408-1.482-.408Zm6.115-3.491a.316.316,0,1,1-.394.307.358.358,0,0,1,.394-.307Zm2.758-4.123a3.9,3.9,0,0,1,1.311.141,5.038,5.038,0,0,0-3-.328,2.11,2.11,0,0,0-.829.409,9.429,9.429,0,0,1-.654.7,22.441,22.441,0,0,0-2.052,1.274,3.894,3.894,0,0,0-.991,3.806,16.14,16.14,0,0,1,.4,1.738c.034.184.012,1.135.33,1.053.136-.034.206-.191.344-.213.1-.02.324.082.4.03.132-.088,0-.33-.028-.445a8.18,8.18,0,0,0-.408-1.189,4.892,4.892,0,0,1-.633-1.876c.028-.8.321-.135.552.3a3.519,3.519,0,0,1,.859-3.24A4.967,4.967,0,0,1,34.56,49.57a9.133,9.133,0,0,0,1.628-.722,1.982,1.982,0,0,1,1.254-.4Zm4.025,1.471c-.082.194-.41.239-.733.1s-.512-.406-.426-.6.408-.236.732-.1.511.409.428.6Zm-1.441-2.671a3.04,3.04,0,0,0-2.341-1.224c-.824-.091-4.471-.191-4.756-.923-.134-.344.207-.5.606-.565-1.138.076-2.669.282-.931.8-.769.174-2.2-.308-1.258-.7a26.786,26.786,0,0,1,4.623-.744,9.149,9.149,0,0,0,2.47-.629,8.569,8.569,0,0,0,2.095,3.973,14.321,14.321,0,0,0,.984,1.051c-.694.1-.711-.111-1.492-1.036Zm1.651,2.22c-.115.263.147.631.592.821s.886.129,1-.137-.149-.636-.592-.821-.886-.128-1,.136Zm-.093-.927c.083-.2.409-.239.734-.105s.509.409.426.6-.409.235-.729.095-.514-.405-.431-.593Zm1.105,2.708.018.006a2.058,2.058,0,0,0,2.067.11c.479-.358.4-1.019-.141-1.589l.053,0h.047a1.25,1.25,0,0,0,1.194-1.258V48.48a1.274,1.274,0,0,0-.417-.9l0-.01-.008,0-.005-.006c-.059-.047-.123-.1-.191-.155a21.05,21.05,0,0,1-2.588-2.408,5.494,5.494,0,0,1-1.613-3.34c0-.061,0-.116.009-.174v-.044c-.082-.008-.162-.016-.234-.019l0,.045c0,.065-.006.128-.006.191a5.717,5.717,0,0,0,1.671,3.5,21.277,21.277,0,0,0,2.615,2.431c.068.054.132.108.192.155l0,0,0,.006a1.032,1.032,0,0,1,.338.74v.032a1.012,1.012,0,0,1-.965,1.023h-.04a.828.828,0,0,1-.468-.122l-.007-.006a13.666,13.666,0,0,1-2.749-2.34,8.62,8.62,0,0,1-2.132-4.229.834.834,0,0,1-.312.2,9.067,9.067,0,0,0,2.27,4.185,14.779,14.779,0,0,0,1.059,1.051,12.176,12.176,0,0,0,1.744,1.334l.008,0c.789.608,1.023,1.381.517,1.729a1.776,1.776,0,0,1-1.539-.024.368.368,0,0,0,.347-.176c.081-.194-.112-.462-.432-.6s-.646-.09-.732.1.111.462.429.6Zm.705-1.294c.082-.192.408-.239.729-.1s.514.409.432.6-.414.245-.735.1-.511-.408-.426-.6Zm2.164,2.321a.64.64,0,0,0-.64.638.642.642,0,1,0,.64-.638Zm-1.109.253a.642.642,0,1,1-.642-.641.646.646,0,0,1,.642.641Zm-1.622,2.485a3.042,3.042,0,0,0,2.3,1.211A4.752,4.752,0,0,0,48,55.9a4.188,4.188,0,0,0,.375-.244v-.018c0-.075,0-.152,0-.232v-.018l-.493.316a4.559,4.559,0,0,1-2.722.3,3.407,3.407,0,0,1-2.348-1.334l.016.335v.017Zm.479-.324a.548.548,0,0,1,1.1,0,.548.548,0,1,1-1.1,0Zm1.551.456a.643.643,0,1,1,.641.64.643.643,0,0,1-.641-.64Zm2-.209a.642.642,0,1,1,1.285,0,.642.642,0,0,1-1.285,0ZM48.465,56a1.276,1.276,0,0,1,.307.2.566.566,0,0,1,.187.337c.022.219-.123.32-.206.5a.647.647,0,0,0-.078.284c0,.069.059.146,0,.2l-.114,0a.259.259,0,0,0-.194.026c-.051.029-.123.071-.121.131s.059.09.056.145c-.014.265-.446-.044-.549-.025a1.178,1.178,0,0,0-.477.273,2.339,2.339,0,0,1-1.855.068,2.24,2.24,0,0,1-1.168-.562,5.9,5.9,0,0,0,2.74.34c.589-.221-.019-.364-.186-.34s-.3-.211.075-.276,1.324-.2,1.441-.735c0-.1-.4-.051-.959.212a3.637,3.637,0,0,1-1.116.262.984.984,0,0,1-.234-.289,1.17,1.17,0,0,0,.178-.014,10.454,10.454,0,0,0,2.118-.791l.161.062Zm.008-2.41,0-.012a2.447,2.447,0,0,1-.715.256,13.165,13.165,0,0,1-3.105.039,3.594,3.594,0,0,1-1.912-1.1l0,.063c.008.071.011.146.019.218l0,.074a3.1,3.1,0,0,0,1.862.977,13.206,13.206,0,0,0,3.182-.048,1.739,1.739,0,0,0,.642-.226v-.013c0-.089.012-.158.016-.229ZM46.809,53.1a.641.641,0,1,0,.64-.642.644.644,0,0,0-.64.642Zm1.9-1.783a.513.513,0,0,0-.5-.262l.047.024a.188.188,0,1,1-.185.309l-.086-.079a.418.418,0,0,0,.224.334.383.383,0,0,0,.444,0c-.125.822-.219,1.8-.219,1.8l-.06-.138v-.232l0-.107c0-.106,0-.21.006-.312s.005-.226.012-.336a5.476,5.476,0,0,1-2-.251,1.319,1.319,0,0,1-.966-1.486.79.79,0,0,1,.377-.594,1.315,1.315,0,0,1,1.031-.119,4.24,4.24,0,0,0,1.988.284,1.241,1.241,0,0,1,.179-.3l.072.168c.048.045.17,0,.491-.116a7.727,7.727,0,0,1,.876-.334l-.023.142a5.942,5.942,0,0,1-1.157.436c-.318.078-.277.1-.446.644a5.023,5.023,0,0,0-.112.527Zm.687.7a.287.287,0,0,1-.04.232.338.338,0,0,0,.275.075.406.406,0,0,0-.2-.772.335.335,0,0,0-.222.271.258.258,0,0,1,.188.194Zm-.473-.624a4.193,4.193,0,0,0,1.534-.613l0-.085a4.362,4.362,0,0,1-1.519.5l-.01.2Zm.787-.791a.273.273,0,0,0-.191-.2.335.335,0,0,1,.224-.268.37.37,0,0,1,.421.3.364.364,0,0,1-.219.466.307.307,0,0,1-.278-.071.264.264,0,0,0,.044-.231Zm1.068,2.721a.19.19,0,0,0-.041-.27l-.3-.219a.205.205,0,0,0-.277.043.2.2,0,0,0,.046.276l.293.215a.2.2,0,0,0,.276-.045Zm-1.594-.495c-.175-.054-.369-.242-.281-.281.049-.068.175.176.321.164a3.673,3.673,0,0,0,1.382-1.1,1.3,1.3,0,0,0,.211.408,7,7,0,0,1-1.634.812ZM50.779,48c-.045.208-.091.409-.13.6a7.5,7.5,0,0,1-1.019.552,6.053,6.053,0,0,1-2.3-.035c-.334-.042-.554-.486-.488-.975s.393-.858.729-.812a11.653,11.653,0,0,0,2.71-.061,5.277,5.277,0,0,0,.628-.262,6.649,6.649,0,0,1-.133.991Zm.146-1.238c0-.093.007-.184.007-.269a5.247,5.247,0,0,1-.793.359,10.327,10.327,0,0,1-2.489.035h-.026c-.581-.076-1.122.447-1.222,1.2a1.51,1.51,0,0,0,.256,1.108.9.9,0,0,0,.348.286,6.518,6.518,0,0,0,1.989.218,3.467,3.467,0,0,0,1.518-.465c.036-.108.044-.221.07-.336a7.025,7.025,0,0,1-.866.456,5.547,5.547,0,0,1-2.411-.018.714.714,0,0,1-.462-.28,1.259,1.259,0,0,1-.206-.937c.079-.618.505-1.056.967-.994h.034a11,11,0,0,0,2.575-.048,5.665,5.665,0,0,0,.714-.309Zm.023-1.1c.029-.316.1-.757.175-1.157a10.708,10.708,0,0,1-2.594.188c-.26-.015-.488.295-.512.685s.168.728.422.744l.2.009a4.73,4.73,0,0,0,2.306-.468Zm.211-1.347-.024.006c-.129.025-.264.048-.4.064-.277.038-.554.066-.833.083-.26.018-.518.025-.779.03-.194,0-.389,0-.584-.012-.378-.02-.7.365-.732.879s.244.938.623.961l.2.009a4.2,4.2,0,0,0,1.11-.071,6.337,6.337,0,0,0,.862-.255l.333-.129c0,.076,0,.156,0,.25l-.091.039a3.437,3.437,0,0,1-1.2.342,2.641,2.641,0,0,1-1.656-.122,1.206,1.206,0,0,1-.412-1.039,1.43,1.43,0,0,1,.107-.468l.041-.056.062-.138a.867.867,0,0,1,.764-.436,13.235,13.235,0,0,0,1.969-.071,3.532,3.532,0,0,0,.471-.069c.074-.011.145-.025.211-.038-.014.074-.03.154-.045.239Zm.455-1.451c.193-.661.6-.612.932-.153.11-.644.351-.778.915-.313-.078-.814.388-.818.835-.524-.279-.858.274-.925.653-.847-.272-.272-.517-.936.3-.993-.456-.33-.506-.619.031-1.01-.422-.2-.5-.388-.436-.51-.093-.063-.241-.178-.241-.178a1.939,1.939,0,0,1,.14.736,3.363,3.363,0,0,1-1.885,2.9,8.306,8.306,0,0,1-2.938.261c-.5.01-.808.488-.323.673a16.248,16.248,0,0,0,1.868.415,11.869,11.869,0,0,0-1.214-.368c-.615-.148-.665-.512-.34-.554a.778.778,0,0,1,.846.4c.241-.664.726-.382.855.066Zm2.693-.574a.326.326,0,1,1-.324-.322.324.324,0,0,1,.324.322ZM52.9,43.565c-.31.021-.572-.116-.582-.3s.229-.351.539-.372.569.114.581.3-.227.353-.538.376Zm1.2.584-.048.048h-.229l-.046-.048v-.032l.046-.048h.229l.048.046v.034Zm.409-.455-.049.047h-.228l-.046-.047v-.039l.046-.045h.228l.049.045v.039ZM53.6,44.1a12.56,12.56,0,0,0,2.789-4.356,2.319,2.319,0,0,0-.151-.256A14.214,14.214,0,0,1,53.361,44l.238.1ZM55.064,43l-.047.047h-.229L54.742,43v-.036l.046-.047h.229l.047.047V43Zm.551-.731-.049.046h-.228l-.048-.046v-.039l.048-.046h.228l.049.046v.039Zm.341-.591-.046.048h-.228l-.047-.048v-.037l.047-.049h.228l.046.049v.037Zm.319-.616-.051.049H56l-.048-.049v-.037L56,40.979h.226l.051.048v.037Zm.254-.565-.047.048h-.228l-.046-.048v-.036l.046-.048h.228l.047.048V40.5Zm-5.88-3.8c.23.056.44.009.468-.1s-.14-.242-.372-.3-.438-.015-.466.1.138.245.371.3Z" transform="translate(0 -3.316)"/>
    <path id="Path_1845" data-name="Path 1845" class="cls-1" d="M60.157,50.4a.574.574,0,0,0-.493-.634l-.157-.023h-.068l-.005.036.064.046a.335.335,0,0,1,.131.348.376.376,0,0,1-.489.2l-.1-.041-.046-.028-.038-.018.03.134.085.122a.715.715,0,0,0,.366.208.574.574,0,0,0,.724-.354Z" transform="translate(-15.264 -9.256)"/>
    <path id="Path_1846" data-name="Path 1846" class="cls-1" d="M66.523,46.938c-.036.079.047.2.185.256s.278.041.312-.042-.044-.2-.185-.256-.276-.039-.313.042Z" transform="translate(-18.378 -8.064)"/>
    <path id="Path_1847" data-name="Path 1847" class="cls-1" d="M78.946,42.577a.161.161,0,0,0,.161-.161.161.161,0,1,0-.322,0,.161.161,0,0,0,.161.161Z" transform="translate(-23.46 -6.16)"/>
    <path id="Path_1848" data-name="Path 1848" class="cls-1" d="M77.678,45.5a.175.175,0,0,0-.176.176.182.182,0,0,0,.176.184.185.185,0,0,0,.182-.184.178.178,0,0,0-.182-.176Z" transform="translate(-22.931 -7.501)"/>
    <path id="Path_1849" data-name="Path 1849" class="cls-1" d="M78.615,44.077a.162.162,0,1,0-.324,0,.162.162,0,0,0,.324,0Z" transform="translate(-23.257 -6.847)"/>
    <path id="Path_1850" data-name="Path 1850" class="cls-1" d="M60.831,52.221l-.036-.015.028.131.087.125a.712.712,0,0,0,.364.206.519.519,0,1,0,.231-.989l-.158-.017h-.039l-.028,0-.009.037.066.045a.338.338,0,0,1,.131.349.381.381,0,0,1-.489.2l-.1-.044-.046-.029Z" transform="translate(-16.023 -10.047)"/>
    <path id="Path_1851" data-name="Path 1851" class="cls-1" d="M65.674,65.317a.253.253,0,0,0-.258-.252.25.25,0,0,0-.252.252.255.255,0,1,0,.51,0Z" transform="translate(-17.822 -15.586)"/>
    <path id="Path_1852" data-name="Path 1852" class="cls-1" d="M58.316,48.331a.573.573,0,0,0-.493-.635l-.157-.021H57.6l-.008.039.065.044a.339.339,0,0,1,.131.35.381.381,0,0,1-.487.2l-.106-.045-.046-.026-.037-.016.029.132.088.125a.732.732,0,0,0,.363.206.573.573,0,0,0,.724-.356Z" transform="translate(-14.507 -8.401)"/>
    <path id="Path_1853" data-name="Path 1853" class="cls-1" d="M64.18,48.142a.578.578,0,0,0-.494-.636l-.158-.019h-.065l-.008.038.065.045a.332.332,0,0,1,.131.346.376.376,0,0,1-.489.2l-.1-.041-.045-.031-.036-.015.028.134.086.122a.71.71,0,0,0,.363.209.58.58,0,0,0,.725-.356Z" transform="translate(-16.921 -8.323)"/>
    <path id="Path_1854" data-name="Path 1854" class="cls-1" d="M60.806,43.326a.468.468,0,0,0-.4-.522l-.129-.018h-.053l-.009.033.055.035a.281.281,0,0,1,.107.285.307.307,0,0,1-.4.165l-.086-.036-.037-.021-.032-.012.025.108.071.1a.575.575,0,0,0,.3.166.469.469,0,0,0,.593-.286Z" transform="translate(-15.621 -6.381)"/>
    <path id="Path_1855" data-name="Path 1855" class="cls-1" d="M61.655,45.115a.672.672,0,0,0-.157-.02h-.039l-.027,0-.008.041.065.044a.336.336,0,0,1,.131.349.375.375,0,0,1-.488.2l-.1-.046-.047-.028-.037-.013.029.134.089.122a.713.713,0,0,0,.361.206.519.519,0,1,0,.232-.989Z" transform="translate(-16.084 -7.333)"/>
    <path id="Path_1856" data-name="Path 1856" class="cls-1" d="M53.07,47.877a.473.473,0,0,0-.4-.522l-.127-.015h-.056l0,.029.052.04a.273.273,0,0,1,.106.284.307.307,0,0,1-.4.168l-.085-.034-.038-.026-.03-.012.023.111.074.1a.59.59,0,0,0,.3.166.468.468,0,0,0,.592-.289Z" transform="translate(-12.436 -8.262)"/>
    <path id="Path_1857" data-name="Path 1857" class="cls-1" d="M63.321,61.647a.4.4,0,0,1-.135-.125.646.646,0,0,0,.344.522.489.489,0,1,0,.479-.812.678.678,0,0,0-.478-.095l.075.03a.335.335,0,0,1,.178.429.338.338,0,0,1-.463.05Z" transform="translate(-17.007 -13.959)"/>
    <path id="Path_1858" data-name="Path 1858" class="cls-1" d="M67.213,51.658l.053-.006a.317.317,0,0,1,0,.626.246.246,0,0,1-.2-.106.507.507,0,0,0,.471.458.567.567,0,0,0,0-1.122.442.442,0,0,0-.324.149Z" transform="translate(-18.605 -9.985)"/>
    <path id="Path_1859" data-name="Path 1859" class="cls-1" d="M65.7,56.205a.478.478,0,0,0-.345.158l.056-.005a.339.339,0,0,1,0,.669.269.269,0,0,1-.214-.114.539.539,0,0,0,.5.483A.553.553,0,0,0,66.2,56.8a.562.562,0,0,0-.509-.6Z" transform="translate(-17.834 -11.926)"/>
    <path id="Path_1860" data-name="Path 1860" class="cls-1" d="M68.366,56.266a.485.485,0,0,0-.346.155l.058,0a.338.338,0,0,1,0,.668.284.284,0,0,1-.213-.114.535.535,0,0,0,.5.482.6.6,0,0,0,0-1.189Z" transform="translate(-18.934 -11.951)"/>
    <path id="Path_1861" data-name="Path 1861" class="cls-1" d="M69.5,52.095A.206.206,0,0,1,69.34,52a.415.415,0,0,0,.387.378.466.466,0,0,0,0-.921.361.361,0,0,0-.266.12l.044,0a.242.242,0,0,1,.223.258.246.246,0,0,1-.223.259Z" transform="translate(-19.541 -9.965)"/>
    <path id="Path_1862" data-name="Path 1862" class="cls-1" d="M74.276,48.6c-.156.012-.276.092-.272.187s.139.159.293.152.279-.1.271-.188-.138-.164-.292-.152Z" transform="translate(-21.462 -8.781)"/>
    <path id="Path_1863" data-name="Path 1863" class="cls-1" d="M76.387,46.8a.176.176,0,0,0-.178.179.179.179,0,0,0,.357,0,.177.177,0,0,0-.179-.179Z" transform="translate(-22.37 -8.04)"/>
    <path id="Path_1864" data-name="Path 1864" class="cls-1" d="M63.4,60.338a1.048,1.048,0,0,0-.832.1.54.54,0,0,0-.27.416,1.1,1.1,0,0,0,.825,1.255,5.454,5.454,0,0,0,1.93.225l.009-.12.008-.092a5.282,5.282,0,0,1-1.862-.212c-.645-.271-.744-.6-.7-1.032a.348.348,0,0,1,.174-.262.851.851,0,0,1,.642-.075,4.966,4.966,0,0,0,1.959.337c.025-.084.049-.156.074-.224a4.71,4.71,0,0,1-1.96-.316Z" transform="translate(-16.636 -13.616)"/>
    <path id="Path_1865" data-name="Path 1865" class="cls-1" d="M96.254,42.782a.872.872,0,0,0-.569-.616.962.962,0,0,0,.62-.622,3.065,3.065,0,0,0,.1-.917,1.539,1.539,0,0,0-.442-1.1,2.18,2.18,0,0,0-1.115-.61,5.808,5.808,0,0,0-1.281-.112H88.311v6.7h5.395a3.854,3.854,0,0,0,1.794-.372,1.589,1.589,0,0,0,.9-1.478,2.518,2.518,0,0,0-.148-.871Zm-1.328.981c0,.368-.5.469-1.311.469H89.785V42.823h3.938c.774,0,1.2.118,1.2.517v.424Zm0-2.664c0,.3-.37.452-1.11.452H89.81V40.067H93.68c.834,0,1.249.171,1.249.5V41.1Z" transform="translate(-27.39 -4.739)"/>
    <path id="Path_1866" data-name="Path 1866" class="cls-1" d="M108.774,38.737a.905.905,0,0,0-.785.455l-4.356,6.283h1.731l.972-1.452h4.835l1,1.452h1.652l-4.268-6.286a.887.887,0,0,0-.781-.452Zm-1.588,4.02,1.537-2.3,1.576,2.3Z" transform="translate(-33.708 -4.71)"/>
    <path id="Path_1867" data-name="Path 1867" class="cls-1" d="M129.15,43.408l-5-4.287a1.387,1.387,0,0,0-.921-.384c-.468,0-.7.281-.7.853v5.881H124V40.786l5.069,4.342a1.254,1.254,0,0,0,.834.346q.724,0,.725-.882V38.778H129.15v4.63Z" transform="translate(-41.496 -4.71)"/>
    <path id="Path_1868" data-name="Path 1868" class="cls-1" d="M166.5,39.091a5.592,5.592,0,0,0-2.054-.285h-1.691q-3.092,0-3.093,1.889v2.943a1.583,1.583,0,0,0,1.092,1.525,5.028,5.028,0,0,0,2,.341h1.691q3.1,0,3.1-1.867V40.695a1.586,1.586,0,0,0-1.048-1.6Zm-.427,4.518q0,.625-1.594.625h-1.727q-1.616,0-1.615-.625V40.718c0-.431.538-.651,1.615-.651h1.721c1.068,0,1.6.22,1.6.651v2.891Z" transform="translate(-56.808 -4.739)"/>
    <path id="Path_1869" data-name="Path 1869" class="cls-1" d="M176.282,39.167a1.512,1.512,0,0,0-1.005,1.423V45.5h1.475V42.822h4.607V41.551h-4.618V40.59c0-.347.487-.524,1.459-.524h4.426V38.806h-4.494a4.3,4.3,0,0,0-1.85.361Z" transform="translate(-63.247 -4.739)"/>
    <path id="Path_1870" data-name="Path 1870" class="cls-1" d="M237.392,39.091a5.6,5.6,0,0,0-2.054-.285H233.65q-3.094,0-3.095,1.889v2.943a1.584,1.584,0,0,0,1.089,1.525,5.043,5.043,0,0,0,2.006.341h1.689c2.071,0,3.1-.621,3.1-1.867V40.695a1.588,1.588,0,0,0-1.048-1.6Zm-.425,4.518c0,.416-.531.625-1.6.625h-1.724q-1.616,0-1.616-.625V40.718c0-.431.539-.651,1.616-.651h1.719c1.066,0,1.6.22,1.6.651v2.891Z" transform="translate(-86.039 -4.739)"/>
    <path id="Path_1871" data-name="Path 1871" class="cls-1" d="M217.152,39.167a1.516,1.516,0,0,0-1.008,1.423v3.164a1.5,1.5,0,0,0,.968,1.395,4.148,4.148,0,0,0,1.785.355h4.638V44.232h-4.583c-.888,0-1.328-.172-1.328-.518v-.892h4.607V41.551h-4.618V40.59c0-.347.487-.524,1.459-.524h4.464V38.806H219a4.3,4.3,0,0,0-1.848.361Z" transform="translate(-80.097 -4.739)"/>
    <rect id="Rectangle_728" data-name="Rectangle 728" class="cls-2" width="126.763" height="7.415" rx="2" transform="translate(59.237 44.515)"/>
    <path id="Path_1872" data-name="Path 1872" class="cls-1" d="M253.21,39.132a4.835,4.835,0,0,0-1.9-.326H246.2v6.7h1.469V43.067h1.984l2.491,2.438h2l-2.6-2.438a4.182,4.182,0,0,0,1.748-.332,1.45,1.45,0,0,0,.95-1.384v-.771a1.507,1.507,0,0,0-1.034-1.449Zm-.441,2.231c0,.3-.342.442-1.025.442h-4.075V40.067h3.815c.856,0,1.285.162,1.285.485v.811Z" transform="translate(-92.512 -4.739)"/>
    <path id="Path_1873" data-name="Path 1873" class="cls-1" d="M277.973,45.5h1.475v-6.7h-1.475v6.7Z" transform="translate(-105.596 -4.739)"/>
    <path id="Path_1874" data-name="Path 1874" class="cls-1" d="M265.7,42.782H268.7v.988c0,.14-.164.26-.5.355a2.424,2.424,0,0,1-.676.107H265c-.936,0-1.409-.16-1.409-.488v-3.2c0-.319.382-.481,1.142-.481h5.262V38.806h-5a4.482,4.482,0,0,0-1.843.346,1.483,1.483,0,0,0-1.036,1.4v3.2a1.492,1.492,0,0,0,1.014,1.427,4.542,4.542,0,0,0,1.848.332h2.552a3.77,3.77,0,0,0,1.745-.364,1.509,1.509,0,0,0,.9-1.413V41.519H265.7v1.264Z" transform="translate(-99.067 -4.739)"/>
    <path id="Path_1875" data-name="Path 1875" class="cls-1" d="M203.773,42.782h3.009v.988c0,.14-.166.26-.5.355a2.43,2.43,0,0,1-.676.107h-2.532c-.938,0-1.409-.16-1.409-.488v-3.2c0-.319.381-.481,1.141-.481h5.262V38.806h-5a4.491,4.491,0,0,0-1.844.346,1.485,1.485,0,0,0-1.035,1.4v3.2a1.493,1.493,0,0,0,1.014,1.427,4.554,4.554,0,0,0,1.852.332h2.553a3.76,3.76,0,0,0,1.741-.364,1.507,1.507,0,0,0,.9-1.413V41.519h-4.483v1.264Z" transform="translate(-73.521 -4.739)"/>
    <path id="Path_1876" data-name="Path 1876" class="cls-1" d="M290.118,45.474h1.652L287.5,39.188a.889.889,0,0,0-.78-.452.9.9,0,0,0-.787.455l-4.355,6.283h1.728l.971-1.451h4.84l1,1.451Zm-4.985-2.717,1.537-2.3,1.576,2.3Z" transform="translate(-107.081 -4.71)"/>
    <path id="Path_1877" data-name="Path 1877" class="cls-1" d="M146.243,38.806H144.22l-3.662,3.39v-3.39h-1.474v6.7h1.474V43.792l1.091-.956,2.69,2.627h2.028l-3.718-3.5,3.594-3.152Z" transform="translate(-48.324 -4.739)"/>
    <path id="Path_1878" data-name="Path 1878" class="cls-1" d="M55.382,66.273V49.718l.045-.112.7-.752.285-.366V66.273a3.187,3.187,0,0,1-3.185,3.183H26.194a3.187,3.187,0,0,1-3.184-3.183V64.059a9.108,9.108,0,0,0,.884.309l.153.016v1.888h0a2.148,2.148,0,0,0,2.147,2.146H53.231a2.152,2.152,0,0,0,2.152-2.146Z" transform="translate(-0.464 -8.768)"/>
    <path id="Path_1879" data-name="Path 1879" class="cls-1" d="M24.044,30.528V53.561l-.171-.007c-.119,0-.235-.012-.346-.018l-.368-.027-.153-.015V30.528a3.189,3.189,0,0,1,3.187-3.184H53.23a3.191,3.191,0,0,1,3.184,3.184v3.8l-.253-.164-.042-.032h0l-.014-.011-.062-.085a2.122,2.122,0,0,0-.226-.477,2.86,2.86,0,0,0-.373-.476l-.025-.035-.007-.012-.008-.014-.019-.079V30.528a2.151,2.151,0,0,0-2.149-2.146v0l-27.037,0a2.151,2.151,0,0,0-2.149,2.146Z" transform="translate(-0.463 0)"/>
    <path id="Path_1880" data-name="Path 1880" class="cls-1" d="M175.822,88.881h2.012l1.105-5.329h.933l.285-1.391h-.932l.088-.422c.087-.386.211-.509.757-.509h.286l.274-1.354a5.916,5.916,0,0,0-.882-.038c-1.652,0-2.149.522-2.422,1.764l-.113.559h-.832l-.285,1.391h.832l-1.105,5.329Zm68.981-4.2c.187-.906.41-1.454,1.068-1.454.559,0,.584.509.385,1.454Zm3.144,1.168c.459-2.286.633-3.864-1.864-3.864-2.2,0-3.019,1.4-3.417,3.291-.434,1.988-.571,3.776,1.951,3.776a2.889,2.889,0,0,0,3.118-2.471h-1.864c-.235.845-.459,1.23-.994,1.23-.584,0-.622-.509-.411-1.553l.088-.409ZM237.7,88.881h2.013l.782-3.814a1.432,1.432,0,0,1,1.59-1.217,2.722,2.722,0,0,1,.546.049l.385-1.888a.863.863,0,0,0-.161-.025H242.7a2.221,2.221,0,0,0-1.851,1.118h-.025l.2-.944h-1.938L237.7,88.881Zm.274-6.721h-2.012l-.919,4.4c-.138.658-.535.956-.92.956s-.522-.285-.422-.77l.956-4.584h-2.012L231.6,87.191c-.285,1.293.224,1.864,1.367,1.864a2.188,2.188,0,0,0,1.813-.968h.025l-.162.795h1.938l1.392-6.721Zm-10.012,4.981c-.336,1.565.012,1.814,1.4,1.814a9.587,9.587,0,0,0,1.18-.075l.273-1.342a2.106,2.106,0,0,1-.285.025c-.485,0-.622-.136-.523-.622l.709-3.391h.932l.286-1.391H231l.41-1.975H229.4l-.41,1.975h-.832l-.286,1.391h.832l-.745,3.59Zm-.348-4.981H225.6l-.919,4.4c-.137.658-.534.956-.919.956s-.521-.285-.422-.77l.957-4.584h-2.013l-1.044,5.031c-.286,1.293.223,1.864,1.366,1.864a2.189,2.189,0,0,0,1.814-.968h.025l-.161.795h1.938l1.391-6.721Zm-10.136,6.721h2.012l1.105-5.329h.932l.286-1.391h-.932l.087-.422c.088-.386.212-.509.758-.509h.286l.274-1.354a5.907,5.907,0,0,0-.881-.038c-1.654,0-2.15.522-2.424,1.764l-.111.559h-.833l-.285,1.391h.832l-1.105,5.329Zm-6.808-4.2c.186-.906.41-1.454,1.068-1.454.559,0,.584.509.385,1.454Zm3.143,1.168c.46-2.286.634-3.864-1.864-3.864-2.2,0-3.018,1.4-3.415,3.291-.436,1.988-.572,3.776,1.949,3.776a2.889,2.889,0,0,0,3.118-2.471h-1.864c-.235.845-.459,1.23-.994,1.23-.584,0-.621-.509-.411-1.553l.088-.409Zm-12.248,3.031h2.013l.906-4.4c.136-.658.534-.956.919-.956s.522.285.423.769l-.944,4.584h2.013l1.043-5.031c.261-1.293-.224-1.864-1.367-1.864a1.96,1.96,0,0,0-1.727.906h-.024l.6-2.882H203.4l-1.838,8.869Zm-3.293-1.739c-.335,1.565.013,1.814,1.4,1.814a9.616,9.616,0,0,0,1.18-.075l.274-1.342a2.123,2.123,0,0,1-.285.025c-.485,0-.621-.136-.522-.622l.709-3.391h.932l.286-1.391h-.933l.411-1.975H199.71L199.3,82.16h-.832l-.286,1.391h.832l-.746,3.59Zm-7.031,1.739h2.013l1.838-8.869h-2.012l-1.839,8.869Zm-3.365-4.2c.186-.906.41-1.454,1.068-1.454.558,0,.584.509.385,1.454Zm3.142,1.168c.46-2.286.635-3.864-1.864-3.864-2.2,0-3.018,1.4-3.415,3.291-.435,1.988-.572,3.776,1.951,3.776a2.889,2.889,0,0,0,3.117-2.471H188.94c-.236.845-.461,1.23-.995,1.23-.584,0-.621-.509-.409-1.553l.088-.409ZM181.9,84.682c.186-.906.411-1.454,1.069-1.454.558,0,.584.509.385,1.454Zm3.142,1.168c.459-2.286.634-3.864-1.864-3.864-2.2,0-3.018,1.4-3.415,3.291-.435,1.988-.571,3.776,1.951,3.776a2.891,2.891,0,0,0,3.118-2.471h-1.864c-.237.845-.459,1.23-.994,1.23-.585,0-.621-.509-.41-1.553l.088-.409Z" transform="translate(-63.534 -21.71)"/>
    <g id="Group_1492" data-name="Group 1492" transform="translate(61.005 46.469)">
      <path id="Path_1881" data-name="Path 1881" class="cls-3" d="M93.123,63.625H91.659l-2.22-1.234v1.234h-.8V59.95H91.5a2.331,2.331,0,0,1,1.184.251.79.79,0,0,1,.424.715v.421a.76.76,0,0,1-.1.4.863.863,0,0,1-.3.293,1.567,1.567,0,0,1-.472.181,2.837,2.837,0,0,1-.622.063h-.935ZM92.3,61.34V60.9q0-.261-.7-.261H89.439v.945h2.294Q92.3,61.582,92.3,61.34Z" transform="translate(-88.64 -59.945)"/>
      <path id="Path_1882" data-name="Path 1882" class="cls-3" d="M100.934,63.621H98.354a2.65,2.65,0,0,1-.61-.065,1.536,1.536,0,0,1-.474-.191.952.952,0,0,1-.308-.3.757.757,0,0,1-.109-.4V60.92a.754.754,0,0,1,.114-.409.966.966,0,0,1,.319-.308,1.7,1.7,0,0,1,.494-.194,2.782,2.782,0,0,1,.632-.068h2.522v.7H98.451q-.8,0-.8.281v.528h2.561v.7H97.652v.489c0,.191.242.286.726.286h2.556Z" transform="translate(-92.022 -59.942)"/>
      <path id="Path_1883" data-name="Path 1883" class="cls-3" d="M108.814,61.352a.832.832,0,0,1-.412.754,2.207,2.207,0,0,1-1.163.256h-2.114v1.264h-.8V59.95h2.944a2.943,2.943,0,0,1,.615.061,1.883,1.883,0,0,1,.489.171.939.939,0,0,1,.324.271.6.6,0,0,1,.116.362Zm-.8-.018v-.389a.169.169,0,0,0-.063-.122.5.5,0,0,0-.17-.1,1.435,1.435,0,0,0-.24-.063,1.47,1.47,0,0,0-.269-.025h-2.148v1.036h2.153Q108.015,61.674,108.015,61.334Z" transform="translate(-95.099 -59.945)"/>
      <path id="Path_1884" data-name="Path 1884" class="cls-3" d="M116.931,63.625h-1.464l-2.221-1.234v1.234h-.8V59.95H115.3a2.327,2.327,0,0,1,1.184.251.79.79,0,0,1,.424.715v.421a.749.749,0,0,1-.1.4.864.864,0,0,1-.3.293,1.583,1.583,0,0,1-.472.181,2.842,2.842,0,0,1-.622.063h-.934ZM116.1,61.34V60.9q0-.261-.7-.261h-2.154v.945h2.294Q116.1,61.582,116.1,61.34Z" transform="translate(-98.443 -59.945)"/>
      <path id="Path_1885" data-name="Path 1885" class="cls-3" d="M124.735,63.621h-2.58a2.646,2.646,0,0,1-.61-.065,1.539,1.539,0,0,1-.475-.191.95.95,0,0,1-.307-.3.752.752,0,0,1-.109-.4V60.92a.754.754,0,0,1,.114-.409.966.966,0,0,1,.319-.308,1.7,1.7,0,0,1,.494-.194,2.791,2.791,0,0,1,.632-.068h2.522v.7h-2.483q-.8,0-.8.281v.528h2.561v.7h-2.561v.489c0,.191.242.286.726.286h2.556Z" transform="translate(-101.822 -59.942)"/>
      <path id="Path_1886" data-name="Path 1886" class="cls-3" d="M132.215,62.608a1.28,1.28,0,0,1-.077.47.67.67,0,0,1-.264.314,1.351,1.351,0,0,1-.494.177,4.447,4.447,0,0,1-.771.055h-2.5v-.7h2.624q.682,0,.682-.276V62.41q0-.3-.774-.3h-1.114a2.3,2.3,0,0,1-.564-.065,1.5,1.5,0,0,1-.448-.186.973.973,0,0,1-.3-.289.682.682,0,0,1-.109-.377v-.265a.99.99,0,0,1,.092-.442.725.725,0,0,1,.3-.3,1.608,1.608,0,0,1,.529-.176,4.649,4.649,0,0,1,.8-.058h2.389v.688h-2.488q-.818,0-.818.286v.212q0,.267.862.267h.847a2.982,2.982,0,0,1,.761.082,1.269,1.269,0,0,1,.491.237.861.861,0,0,1,.266.377A1.5,1.5,0,0,1,132.215,62.608Z" transform="translate(-104.892 -59.945)"/>
      <path id="Path_1887" data-name="Path 1887" class="cls-3" d="M140.186,63.143q0,.479-.392.479a.693.693,0,0,1-.46-.189l-2.813-2.378v2.566h-.8V60.407q0-.464.388-.465a.774.774,0,0,1,.5.208l2.778,2.353V59.942h.8Z" transform="translate(-108.027 -59.942)"/>
      <path id="Path_1888" data-name="Path 1888" class="cls-3" d="M147.911,60.638h-1.636v2.987h-.8V60.638h-1.632V59.95h4.066Z" transform="translate(-111.371 -59.945)"/>
      <path id="Path_1889" data-name="Path 1889" class="cls-3" d="M156.816,63.621h-.9l-.668-.949H152.76l-.649.949h-.949l2.4-3.428a.534.534,0,0,1,.45-.252.523.523,0,0,1,.451.247Zm-2.832-2.74-.746,1.094h1.516Z" transform="translate(-114.384 -59.942)"/>
      <path id="Path_1890" data-name="Path 1890" class="cls-3" d="M163.441,60.638H161.8v2.987h-.8V60.638h-1.631V59.95h4.066Z" transform="translate(-117.766 -59.945)"/>
      <path id="Path_1891" data-name="Path 1891" class="cls-3" d="M167.613,63.621h-.8V59.942h.8Z" transform="translate(-120.829 -59.942)"/>
      <path id="Path_1892" data-name="Path 1892" class="cls-3" d="M174.352,59.95l-2.4,3.428a.531.531,0,0,1-.455.247.506.506,0,0,1-.441-.247l-2.353-3.428h.9l1.932,2.741,1.873-2.741Z" transform="translate(-121.609 -59.945)"/>
      <path id="Path_1893" data-name="Path 1893" class="cls-3" d="M182.565,63.621h-2.581a2.657,2.657,0,0,1-.61-.065,1.542,1.542,0,0,1-.474-.191.957.957,0,0,1-.308-.3.757.757,0,0,1-.109-.4V60.92a.754.754,0,0,1,.114-.409.961.961,0,0,1,.319-.308,1.683,1.683,0,0,1,.494-.194,2.776,2.776,0,0,1,.631-.068h2.522v.7h-2.484q-.8,0-.8.281v.528h2.561v.7h-2.561v.489c0,.191.242.286.726.286h2.556Z" transform="translate(-125.635 -59.942)"/>
      <path id="Path_1894" data-name="Path 1894" class="cls-3" d="M197.047,62.595q0,1.027-1.692,1.026h-.986a2.46,2.46,0,0,1-1.248-.261.838.838,0,0,1-.44-.765V60.978q0-1.037,1.688-1.036h.986a4.332,4.332,0,0,1,.781.061,1.5,1.5,0,0,1,.525.189.758.758,0,0,1,.295.324,1.075,1.075,0,0,1,.092.463Zm-.8-.014V60.993q0-.353-.878-.354h-1q-.888,0-.888.354v1.588q0,.343.888.344h1Q196.248,62.924,196.249,62.581Z" transform="translate(-131.48 -59.942)"/>
      <path id="Path_1895" data-name="Path 1895" class="cls-3" d="M204.094,62.144h-2.565v1.481h-.8V60.849a.607.607,0,0,1,.121-.368,1.024,1.024,0,0,1,.326-.282,1.811,1.811,0,0,1,.483-.184,2.527,2.527,0,0,1,.585-.065H204.8v.688q-.422,0-.826,0t-.766,0c-.243,0-.466.008-.671.019a4.692,4.692,0,0,0-.529.056,1.151,1.151,0,0,0-.349.107.2.2,0,0,0-.126.174v.461h2.565Z" transform="translate(-134.794 -59.945)"/>
      <path id="Path_1896" data-name="Path 1896" class="cls-3" d="M211.468,62.144H208.9v1.481h-.8V60.849a.607.607,0,0,1,.121-.368,1.024,1.024,0,0,1,.326-.282,1.811,1.811,0,0,1,.483-.184,2.528,2.528,0,0,1,.585-.065h2.551v.688q-.422,0-.826,0t-.766,0c-.243,0-.466.008-.671.019a4.706,4.706,0,0,0-.529.056,1.151,1.151,0,0,0-.349.107.2.2,0,0,0-.126.174v.461h2.565Z" transform="translate(-137.831 -59.945)"/>
      <path id="Path_1897" data-name="Path 1897" class="cls-3" d="M216.285,63.621h-.8V59.942h.8Z" transform="translate(-140.871 -59.942)"/>
      <path id="Path_1898" data-name="Path 1898" class="cls-3" d="M221.586,63.621h-2.479q-1.622,0-1.622-.992V60.886a.769.769,0,0,1,.1-.395.864.864,0,0,1,.3-.3,1.575,1.575,0,0,1,.48-.186,2.891,2.891,0,0,1,.643-.065h2.576v.7h-2.662q-.64,0-.639.242V62.62q0,.3.823.3h2.479Z" transform="translate(-141.694 -59.942)"/>
      <path id="Path_1899" data-name="Path 1899" class="cls-3" d="M229.031,63.621h-2.581a2.654,2.654,0,0,1-.61-.065,1.535,1.535,0,0,1-.474-.191.957.957,0,0,1-.308-.3.757.757,0,0,1-.109-.4V60.92a.754.754,0,0,1,.114-.409.955.955,0,0,1,.319-.308,1.685,1.685,0,0,1,.494-.194,2.785,2.785,0,0,1,.632-.068h2.522v.7h-2.484q-.8,0-.8.281v.528h2.561v.7h-2.561v.489c0,.191.242.286.726.286h2.556Z" transform="translate(-144.768 -59.942)"/>
      <path id="Path_1900" data-name="Path 1900" class="cls-3" d="M243.661,63.621h-.8V62.146h-2.9v1.476h-.8V59.942h.8v1.516h2.9V59.942h.8Z" transform="translate(-150.62 -59.942)"/>
      <path id="Path_1901" data-name="Path 1901" class="cls-3" d="M251.89,62.552a.878.878,0,0,1-.428.811,2.722,2.722,0,0,1-1.361.259h-.875a4.912,4.912,0,0,1-.835-.06,1.606,1.606,0,0,1-.551-.189.762.762,0,0,1-.3-.331,1.156,1.156,0,0,1-.095-.489v-2.61h.809v2.575q0,.417.891.417h1.08q.871,0,.871-.417V59.942h.8Z" transform="translate(-154.029 -59.942)"/>
      <path id="Path_1902" data-name="Path 1902" class="cls-3" d="M260.111,63.143q0,.479-.392.479a.692.692,0,0,1-.459-.189l-2.813-2.378v2.566h-.8V60.407q0-.464.388-.465a.773.773,0,0,1,.5.208l2.779,2.353V59.942h.8Z" transform="translate(-157.408 -59.942)"/>
      <path id="Path_1903" data-name="Path 1903" class="cls-3" d="M268.332,62.644a.812.812,0,0,1-.1.409.917.917,0,0,1-.293.308,1.461,1.461,0,0,1-.458.194,2.437,2.437,0,0,1-.6.068h-1.443a2.984,2.984,0,0,1-.653-.065,1.65,1.65,0,0,1-.494-.188.919.919,0,0,1-.312-.3.779.779,0,0,1-.109-.411V60.9a.726.726,0,0,1,.116-.4.961.961,0,0,1,.327-.3,1.725,1.725,0,0,1,.5-.189,2.88,2.88,0,0,1,.636-.065h2.784v.7H265.3c-.416,0-.625.087-.625.262v1.753q0,.27.77.271h1.433a1.135,1.135,0,0,0,.213-.021,1.325,1.325,0,0,0,.208-.059.654.654,0,0,0,.16-.082.123.123,0,0,0,.063-.094V62.14h-1.656v-.712H268.3l.029.005Z" transform="translate(-160.793 -59.942)"/>
      <path id="Path_1904" data-name="Path 1904" class="cls-3" d="M277.341,63.621h-.9l-.668-.949h-2.489l-.648.949h-.949l2.4-3.428a.534.534,0,0,1,.45-.252.524.524,0,0,1,.451.247Zm-2.832-2.74-.745,1.094h1.515Z" transform="translate(-164.012 -59.942)"/>
      <path id="Path_1905" data-name="Path 1905" class="cls-3" d="M286.3,63.625h-1.464l-2.22-1.234v1.234h-.8V59.95h2.856a2.328,2.328,0,0,1,1.184.251.79.79,0,0,1,.424.715v.421a.755.755,0,0,1-.1.4.866.866,0,0,1-.3.293,1.579,1.579,0,0,1-.472.181,2.846,2.846,0,0,1-.622.063h-.935Zm-.828-2.285V60.9q0-.261-.7-.261h-2.153v.945h2.294Q285.473,61.582,285.473,61.34Z" transform="translate(-168.184 -59.945)"/>
      <path id="Path_1906" data-name="Path 1906" class="cls-3" d="M294.969,59.942,292.7,62.116v1.505h-.8V62.116l-2.285-2.174h1.094l1.589,1.52,1.607-1.52Z" transform="translate(-171.396 -59.942)"/>
    </g>
  </g>
</svg>
