<svg xmlns="http://www.w3.org/2000/svg" width="194.386" height="40" viewBox="0 0 194.386 40">
  <defs>
    <style>
      .cls-1, .cls-4 {
        fill: #f16112;
      }

      .cls-1, .cls-2, .cls-3 {
        fill-rule: evenodd;
      }

      .cls-2 {
        fill: #ee6525;
      }

      .cls-3 {
        fill: #909295;
      }
    </style>
  </defs>
  <g id="Group_1491" data-name="Group 1491" transform="translate(-21.883 -27.344)">
    <path id="Path_1757" data-name="Path 1757" class="cls-1" d="M54.12,59.535c-.2-.086-.394-.065-.441.056s.065.274.256.357.389.053.439-.061-.063-.274-.253-.352Z" transform="translate(-9.479 -9.5)"/>
    <path id="Path_1758" data-name="Path 1758" class="cls-1" d="M56.17,53.18a.688.688,0,0,0-.588-.762L55.4,52.4h-.081l-.01.045.079.054a.4.4,0,0,1,.158.415.455.455,0,0,1-.585.243l-.124-.049-.055-.036-.046-.018.036.156.1.149a.877.877,0,0,0,.433.246.685.685,0,0,0,.863-.424Z" transform="translate(-9.798 -7.405)"/>
    <path id="Path_1759" data-name="Path 1759" class="cls-1" d="M57.142,60.209c.065-.156-.089-.373-.355-.487s-.532-.079-.6.078.091.38.354.495.531.074.6-.086Z" transform="translate(-10.227 -9.551)"/>
    <path id="Path_1760" data-name="Path 1760" class="cls-1" d="M57.167,55.7a.842.842,0,0,0,.437.247.619.619,0,1,0,.275-1.18l-.189-.023h-.079l-.009.045.078.055a.4.4,0,0,1,.155.413.453.453,0,0,1-.581.244l-.125-.052-.055-.033-.044-.02.033.16.1.145Z" transform="translate(-10.483 -8.099)"/>
    <path id="Path_1761" data-name="Path 1761" class="cls-1" d="M54.43,50.641a.684.684,0,0,0-.589-.757l-.186-.026h-.081l-.009.047.079.051a.406.406,0,0,1,.155.415.45.45,0,0,1-.582.244l-.125-.054-.052-.032-.047-.018.034.158.1.149a.892.892,0,0,0,.435.245.688.688,0,0,0,.865-.421Z" transform="translate(-9.278 -6.654)"/>
    <path id="Path_1762" data-name="Path 1762" class="cls-1" d="M56.105,58.451c.194.081.39.055.44-.064s-.066-.272-.255-.353-.39-.064-.441.057.065.274.256.36Z" transform="translate(-10.127 -9.057)"/>
    <path id="Path_1763" data-name="Path 1763" class="cls-1" d="M65.851,68.485a.309.309,0,0,0-.308-.307.3.3,0,1,0,.308.307Z" transform="translate(-12.931 -12.07)"/>
    <path id="Path_1764" data-name="Path 1764" class="cls-1" d="M62.458,68.843a.3.3,0,1,0-.61,0,.3.3,0,0,0,.61,0Z" transform="translate(-11.919 -12.176)"/>
    <path id="Path_1765" data-name="Path 1765" class="cls-1" d="M59.594,68.086a.259.259,0,1,0-.259.258.258.258,0,0,0,.259-.258Z" transform="translate(-11.093 -11.967)"/>
    <path id="Path_1766" data-name="Path 1766" class="cls-1" d="M59.413,57.663a.821.821,0,0,0,.434.245.619.619,0,1,0,.275-1.181l-.187-.025h-.079l-.01.046.079.054a.407.407,0,0,1,.155.415.452.452,0,0,1-.584.246l-.122-.057-.055-.027-.047-.022.036.16.1.146Z" transform="translate(-11.152 -8.677)"/>
    <path id="Path_1767" data-name="Path 1767" class="cls-1" d="M59.186,60.856c.19.081.387.059.437-.062s-.067-.272-.256-.362-.389-.053-.44.067.067.271.259.356Z" transform="translate(-11.045 -9.768)"/>
    <path id="Path_1768" data-name="Path 1768" class="cls-1" d="M57.442,61.621c-.189-.081-.387-.057-.443.065-.041.093.04.228.182.313l.082.046c.187.079.384.051.43-.064s-.062-.281-.252-.36Z" transform="translate(-10.47 -10.118)"/>
    <path id="Path_1769" data-name="Path 1769" class="cls-1" d="M62.248,65.354a.3.3,0,1,0-.3-.306.3.3,0,0,0,.3.306Z" transform="translate(-11.948 -11.056)"/>
    <path id="Path_1770" data-name="Path 1770" class="cls-1" d="M58.969,64.394a.3.3,0,0,0,.607,0,.3.3,0,0,0-.607,0Z" transform="translate(-11.061 -10.863)"/>
    <path id="Path_1771" data-name="Path 1771" class="cls-1" d="M57.3,45.9a.562.562,0,0,0-.483-.622l-.152-.02H56.6l-.008.037.065.047a.324.324,0,0,1,.128.338.37.37,0,0,1-.476.2l-.1-.046-.046-.029-.036-.013.03.13.085.121a.682.682,0,0,0,.355.2A.559.559,0,0,0,57.3,45.9Z" transform="translate(-10.212 -5.293)"/>
    <path id="Path_1772" data-name="Path 1772" class="cls-1" d="M55.278,37.521c-.335-.084-.572-.273-.529-.438s.337-.216.673-.137.567.28.526.437-.333.215-.67.138Zm-.818.746c.38.04.709-.071.732-.257s-.277-.364-.658-.4-.711.069-.735.251.273.365.661.408Zm9.034,2.366.008.033,0,.03a8.883,8.883,0,0,1-2.3,4.34l-.032.035s-.16.021-.268.033l.086.243.029.092-.992.888-.076-.029a17.665,17.665,0,0,1-2.4-.988,5,5,0,0,0-.361,1.469l-.1.613a5.445,5.445,0,0,0-.1,1.187l-.03.967a8.048,8.048,0,0,1-.311,1.753l-.1.38a5.6,5.6,0,0,0-.105,1.206c0,.322.016.69.046,1.091.054.815.18.87.473,1L57.01,55l.155.069c.291.127.561.246.561.593a.535.535,0,0,1-.066.272l.026.1a.72.72,0,0,1-.37.576.538.538,0,0,1-.568.478c-.111.442-.4.461-1.152.461,0,0-1.691.017-1.908.017-.033.3-.111,1.145-.111,1.848,0,.1,0,.2.008.3a2.474,2.474,0,0,1,1.2,1.42,1.919,1.919,0,0,1,.062.429.647.647,0,0,1-.227.515l-.034.033-.058.061c-.269.289-1.076,1.151-1.76,1.151-.171.166-.488.444-1.552.382a5.057,5.057,0,0,1-3.326-1.553c-1.028-1.03-1.124-1.955-1.226-3.771l-.022-.466c-.086-1.765-.177-3.589-1.743-4.193-1.662-.648-4.285-.583-6.02-.544l-.281.011L38,53.625a1.708,1.708,0,0,1-.568.359l-.481.028a5.146,5.146,0,0,0,.369,1.5c.044.016.2.052.345.084.495.1,1.246.251,1.406.8a.97.97,0,0,1,.048.281c0,.473-.4.731-.765.962l-.183.118a9.234,9.234,0,0,1-3.738.337,1.864,1.864,0,0,0,1.114,1.467c.611.365,1.006.713,1.006,1.177a1.141,1.141,0,0,1-.163.547,2.75,2.75,0,0,1-2.371,1.628,7.169,7.169,0,0,1-3.3-.368,5.012,5.012,0,0,1-1.335-1.371l-.025.025A5.51,5.51,0,0,1,27.058,62.8a6.479,6.479,0,0,1-4.944-.319c-.263-.149-.236-.683-.226-.789l.012-.152.145.023c.034.009,3.578.564,4.577.045l.029-.016c1.017-.53,2.56-1.324,1.224-5.263a11.923,11.923,0,0,0-.9-1.9c-.943-1.729-2-3.682-1.342-6.441.648-2.7,3.778-3.821,5.314-3.821l.663.012c2.1.035,7.423.126,10.647-1.167A2.732,2.732,0,0,1,44.9,41.8,2.047,2.047,0,0,1,47.5,40.429c.653-1.054,1.128-1.414,2.849-1.315a1.836,1.836,0,0,1,.638-.791l.141-.035a4.06,4.06,0,0,1,2.634-2.708,7.149,7.149,0,0,1,3.4.063l.424.079c.84,0,2.534.3,3.018,1.389a2.241,2.241,0,0,1,.679,1.181l.237.177a5.247,5.247,0,0,1,1.973,2.163ZM38.387,56.738c.414-.04.267.412,0,.385l-.1-.029c-.175-.085-.162-.336.1-.356Zm23.927-16.3a.349.349,0,1,1-.348-.351.349.349,0,0,1,.348.351Zm-1.043,1.175a.349.349,0,1,1,.351.346.35.35,0,0,1-.351-.346Zm.2,1.136a.388.388,0,0,1-.385.389.388.388,0,1,1,0-.777.386.386,0,0,1,.385.388Zm-.555-2.482c0,.109-.14.2-.316.2s-.318-.092-.318-.2.144-.2.318-.2.316.091.316.2Zm-.467,1.274c0,.157-.2.28-.436.28s-.439-.123-.439-.28.2-.28.439-.28.436.126.436.28Zm-.065-2.976a1.61,1.61,0,0,0-.082.823c.171.061.252.421.067.525s-.406.421-.255.55.359.267.118.516-.268-.085-.547.009-.337.349-.211.685-.448.329-.59.143-.336-.279-.425.118-.234.463-.548.5-.556-.119-.488-.424-.6-.325-.486-.021.07.5-.361.512-.5-.28-.255-.491.014-.524-.324-.557-.5.2-.441.3.175.339-.068.365a.918.918,0,0,0-.233-.212l-.2-.1c-.093-.121.03-.35.122-.444.112-.108.331-.018.491-.054.255-.063.149-.274-.17-.374s-.038-.162.237-.162.547.229.318.454a9.609,9.609,0,0,0,2.041.212,1.867,1.867,0,0,0,1.636-1.132,2.483,2.483,0,0,1-2.064.466,1.94,1.94,0,0,1-1.474-2.262,1.62,1.62,0,0,1,2.076-1.191,1.386,1.386,0,0,1,1.1.991c-.834-.713-1.527-.934-2.355-.42a1.407,1.407,0,0,0,.375,2.357A1.347,1.347,0,0,0,59.1,39.228c-.385.826-1.127.315-1.159-.213-.036-.918.774-1.058.987-.885,1.2,1.192-.07,2.092-.628,2.362a1.355,1.355,0,0,0,1.5-.784,2.171,2.171,0,0,0-.244-1.831s.594.475.827.69Zm-.956,3.989c0,.182-.233.335-.519.335s-.514-.153-.514-.335.232-.33.514-.33.519.144.519.33Zm-1.563.471c0,.209-.258.37-.571.37s-.569-.162-.569-.37.253-.364.569-.364.571.164.571.364Zm-3.931-2.505a8.488,8.488,0,0,0-1.06.062c-.315,0-.568-.15-.568-.339s.253-.341.568-.341.568.15.568.341c0,.144.808.219.981.162.24-.076.265-.353.551-.353.309,0,.58.244.27.5l-.058.058c-.052.066-.02.1-.036.212a.269.269,0,0,1-.281.218c-.244.013-.651.251-.92.119s.526-.15.492-.394c-.026-.174-.382-.219-.508-.248Zm-.555-.946c0-.223.3-.4.665-.4s.665.179.665.4-.295.4-.665.4-.665-.181-.665-.4Zm2.071,2.84c.4,0,.714.207.714.461s-.319.461-.714.461-.719-.2-.719-.461.322-.461.719-.461Zm2.23-3.5c-.1.29-.709.736-.709.736a1.328,1.328,0,0,1-.211-1.181s1.012.157.92.444ZM55.4,36.306a1.577,1.577,0,0,0,.088-.226c.3.014.6.045.906.072.451.039.9.085,1.354.138a3.216,3.216,0,0,1,2.476,1.458l-.109.028c-.16.011-.318-.036-.351-.1-.071-.126.021-.363-.128-.456s-.464.152-.6.131-.2-.4-.37-.5-.326.219-.571.183-.359-.329-.463-.445-.326-.022-.278.141.161.333.036.339a1.649,1.649,0,0,0-1.613,1.342,2.466,2.466,0,0,0,1.634,2.739,2.316,2.316,0,0,1-1.867-1.237,2.714,2.714,0,0,1-.151-1.2l-.336.01c-.018.6-.932.248-1.248.191a1.2,1.2,0,0,0-.532,0c-.232.032-.3-.083-.284-.313a1.853,1.853,0,0,1,.573-1.108,4.309,4.309,0,0,1,1.349-.868,1.038,1.038,0,0,0,.491-.322Zm-1.673.189c.175,0,.319.083.319.192s-.14.19-.314.19-.321-.082-.319-.187.139-.188.313-.2Zm-.868.626c.207-.027.387.052.4.179s-.141.251-.349.271-.387-.055-.4-.178.146-.25.354-.272Zm-.495.832c.178,0,.322.087.322.19s-.144.2-.322.2-.325-.086-.325-.2.147-.19.325-.19Zm-.22.892c-.239,0-.432.119-.432.262s.193.262.432.262.43-.118.43-.262-.194-.262-.43-.262Zm-1.589.639a.514.514,0,0,1,.25-.128.6.6,0,0,0-.168.274c-.108.43.113.892.764,1.067a1.787,1.787,0,0,1,1.18,1.053,2.207,2.207,0,0,1-1.247-.672c1.425,1.429,2.032,1.648,2.9,1.812-.145-.276-.274-.591.013-.329a3.363,3.363,0,0,0-.333-1.021,2.2,2.2,0,0,1,.495,1.566,5.931,5.931,0,0,1-3.121-1.83c-.984-.948-.817-1.582-.736-1.794Zm3.55,4.362c-.082.2-.418.241-.747.1s-.522-.42-.434-.617.417-.243.743-.1.525.416.439.616Zm-5.8-3.424a1.642,1.642,0,0,1,.4-.371,1.426,1.426,0,0,1,.965-.243c-.154,1.771,2.036,3.739,2.571,4.25a.88.88,0,0,1,.185.7.888.888,0,0,1-1.01.742.907.907,0,0,1-.488-.259c-.711-.769-2.576-2.45-2.694-4.71l.074-.106Zm-.358.48c-.055.087-.112.174-.171.265a8.418,8.418,0,0,0,2.5,4.16c.1.1.183.19.259.272l0,0,0,0a1.414,1.414,0,0,0,.785.412l0,0v0l.175.014a1.41,1.41,0,0,0,1.437-1.192l.018-.177a1.439,1.439,0,0,0-.314-.939l-.017-.025-.011-.008-.019-.019-.1-.1a12.894,12.894,0,0,1-1.4-1.514,3.653,3.653,0,0,1-.907-2.126l0-.082v-.032c-.07-.011-.14-.018-.207-.025l0,.037,0,.1a3.827,3.827,0,0,0,.951,2.26,13.79,13.79,0,0,0,1.427,1.541l.1.092.015.013.013.018a1.22,1.22,0,0,1,.266.8l-.013.148a1.207,1.207,0,0,1-1.225,1.015l-.15-.015a1.194,1.194,0,0,1-.665-.348H50.7c-.076-.088-.164-.178-.263-.281A7.978,7.978,0,0,1,47.95,40.9Zm-2.281,1,.011-.017a1.824,1.824,0,0,1,.68-.655,1.111,1.111,0,0,1,.57-.119l.1.012c-.089,2.7,2.752,4.918,3.684,5.838a.907.907,0,0,1-.728,1.506.7.7,0,0,1-.462-.162c-1.074-1.032-4.139-3.545-3.858-6.4Zm-.321.248,0,.132C45.337,44.821,47.657,47,48.958,48.2c.134.124.255.234.359.335a.966.966,0,0,0,.655.246h.073a1.212,1.212,0,0,0,1.2-1.142v-.073a1.212,1.212,0,0,0-.3-.808l-.008-.008-.008-.009c-.119-.116-.265-.249-.437-.409-1.091-1.012-3.145-2.88-3.154-5.08v-.065a2.109,2.109,0,0,1,.247.079c0,2.03,1.979,3.878,3.072,4.882.175.156.324.3.446.417l.011.011.007,0,.008.012a1.468,1.468,0,0,1,.368.975l0,.083a1.464,1.464,0,0,1-1.451,1.384l-.086,0v-.006l0,.006a1.228,1.228,0,0,1-.813-.314c-.1-.1-.221-.21-.355-.332-1.262-1.178-3.569-3.3-3.686-5.9.084-.111.163-.216.246-.325ZM43.041,43.35a1,1,0,0,1,.46-.487,2.62,2.62,0,0,1,.726-.212c-.213,3.315,3.909,6.521,5.445,7.788a.947.947,0,0,1,.3.669.9.9,0,0,1-.853.944.713.713,0,0,1-.434-.1c-.862-.488-5.624-4.024-5.846-8.083a3.2,3.2,0,0,1,.2-.519ZM31.688,47.895c.524,1.192.4,1.52-.052,2.885,1.55-1.959.052-2.885.052-2.885ZM26.1,62.445c-1.455.224-1.408-.272-1.408-.272s2.59.129,3.755-1.431a2.863,2.863,0,0,1-2.347,1.7Zm3.762-2.264a2.458,2.458,0,0,0,2.6.748,3.861,3.861,0,0,1-1.533-4.48,2.559,2.559,0,0,0-.625.966c-.5-1.474-.275-2.519.053-4.394,1.166-4.373-.328-6.26-1.74-6.628s-2.348,1.574-2.348,1.574,1.024-.526,1.6-.162-.209,2.734.453,5.636a17.264,17.264,0,0,0,3.314,7.229c-.728.332-1.768-.489-1.768-.489Zm7.295-4.186a.378.378,0,1,1-.47.368.427.427,0,0,1,.47-.368Zm3.291-4.944a4.632,4.632,0,0,1,1.564.169,5.982,5.982,0,0,0-3.578-.394,2.512,2.512,0,0,0-.989.49,11.285,11.285,0,0,1-.78.843,26.748,26.748,0,0,0-2.448,1.527A4.687,4.687,0,0,0,33.03,58.25a19.443,19.443,0,0,1,.482,2.084c.04.221.014,1.362.394,1.263.163-.04.246-.229.41-.255.119-.024.386.1.475.036.158-.106,0-.4-.033-.533a9.846,9.846,0,0,0-.486-1.426,5.888,5.888,0,0,1-.755-2.25c.033-.963.382-.162.659.365A4.235,4.235,0,0,1,35.2,53.647a5.925,5.925,0,0,1,1.806-1.253,10.867,10.867,0,0,0,1.942-.866,2.356,2.356,0,0,1,1.5-.479Zm4.8,1.764c-.1.232-.489.286-.874.118s-.611-.487-.509-.715.487-.283.873-.122.61.49.51.72Zm-1.719-3.2a3.62,3.62,0,0,0-2.792-1.467c-.982-.109-5.334-.229-5.674-1.107-.16-.413.247-.6.724-.678-1.358.091-3.184.338-1.11.96-.918.208-2.63-.369-1.5-.844s3.532-.609,5.515-.892a10.869,10.869,0,0,0,2.947-.754,10.293,10.293,0,0,0,2.5,4.765,17.139,17.139,0,0,0,1.173,1.26c-.828.115-.848-.133-1.78-1.243ZM45.5,52.272c-.137.315.175.756.706.985s1.057.154,1.2-.164-.178-.763-.706-.984-1.058-.154-1.2.164Zm-.111-1.112c.1-.236.488-.286.876-.126s.607.491.509.724-.488.282-.87.114-.613-.486-.514-.711ZM46.7,54.408l.022.008a2.444,2.444,0,0,0,2.466.132c.571-.43.479-1.223-.168-1.906l.063,0h.056a1.5,1.5,0,0,0,1.424-1.509v-.049a1.531,1.531,0,0,0-.5-1.084l-.006-.012-.01,0-.006-.007c-.07-.056-.147-.117-.228-.186a25.162,25.162,0,0,1-3.088-2.888A6.6,6.6,0,0,1,44.806,42.9c0-.073,0-.14.011-.208v-.053c-.1-.01-.193-.02-.279-.023l0,.054c0,.078-.007.153-.007.229a6.871,6.871,0,0,0,1.993,4.2,25.434,25.434,0,0,0,3.12,2.915c.081.065.157.129.229.186l.006,0,0,.008a1.241,1.241,0,0,1,.4.887v.039a1.21,1.21,0,0,1-1.152,1.227h-.048a.984.984,0,0,1-.558-.146l-.008-.007a16.323,16.323,0,0,1-3.28-2.806A10.358,10.358,0,0,1,42.7,44.33a1,1,0,0,1-.373.243,10.891,10.891,0,0,0,2.708,5.019,17.677,17.677,0,0,0,1.264,1.26,14.532,14.532,0,0,0,2.081,1.6l.009,0c.942.729,1.22,1.656.617,2.074a2.109,2.109,0,0,1-1.836-.029.438.438,0,0,0,.414-.211c.1-.232-.134-.554-.515-.722s-.771-.108-.873.122.133.554.512.718Zm.841-1.552c.1-.23.487-.287.87-.121s.613.49.516.715-.493.293-.877.125-.61-.49-.509-.719Zm2.581,2.784a.765.765,0,0,0-.764.765.766.766,0,1,0,.764-.765Zm-1.323.3a.766.766,0,1,1-.766-.769.773.773,0,0,1,.766.769Zm-1.935,2.98a3.624,3.624,0,0,0,2.745,1.453,5.642,5.642,0,0,0,3.432-.394,5,5,0,0,0,.447-.293v-.022c-.006-.09-.006-.182-.006-.278v-.022l-.588.379a5.414,5.414,0,0,1-3.247.355,4.061,4.061,0,0,1-2.8-1.6l.019.4v.02Zm.572-.388a.654.654,0,1,1,1.307,0,.654.654,0,1,1-1.307,0Zm1.851.547a.767.767,0,1,1,.764.768.769.769,0,0,1-.764-.768Zm2.385-.25a.766.766,0,1,1,1.533,0,.766.766,0,1,1-1.533,0Zm1.92,1.273a1.522,1.522,0,0,1,.366.236.68.68,0,0,1,.223.4c.026.263-.147.384-.246.6a.779.779,0,0,0-.093.341c0,.083.071.176-.006.239l-.135,0a.307.307,0,0,0-.231.032c-.061.035-.147.085-.144.157s.07.108.067.174c-.016.317-.532-.052-.655-.03a1.4,1.4,0,0,0-.569.327,2.778,2.778,0,0,1-2.213.081,2.666,2.666,0,0,1-1.393-.674,7,7,0,0,0,3.269.408c.7-.265-.023-.437-.222-.408s-.362-.253.089-.332,1.579-.244,1.719-.882c0-.124-.472-.061-1.145.255a4.32,4.32,0,0,1-1.332.314,1.179,1.179,0,0,1-.279-.346,1.388,1.388,0,0,0,.212-.017,12.432,12.432,0,0,0,2.526-.949l.192.075Zm.01-2.89,0-.014a2.911,2.911,0,0,1-.853.308,15.624,15.624,0,0,1-3.7.047,4.284,4.284,0,0,1-2.281-1.317l0,.075c.009.085.013.175.023.261l0,.089a3.69,3.69,0,0,0,2.222,1.172,15.673,15.673,0,0,0,3.8-.058,2.068,2.068,0,0,0,.766-.272v-.016c0-.107.015-.19.019-.275Zm-1.985-.586a.765.765,0,1,0,.764-.77.77.77,0,0,0-.764.77Zm2.262-2.138a.574.574,0,0,0-.229-.234.567.567,0,0,0-.366-.08l.056.029a.225.225,0,1,1-.221.37l-.1-.095a.5.5,0,0,0,.267.4.455.455,0,0,0,.529,0c-.149.986-.262,2.158-.262,2.158l-.072-.165V56.6l.006-.128c.006-.127,0-.252.007-.374s.006-.272.015-.4a6.5,6.5,0,0,1-2.385-.3,1.583,1.583,0,0,1-1.153-1.783.948.948,0,0,1,.45-.712,1.562,1.562,0,0,1,1.229-.143,5.034,5.034,0,0,0,2.371.34,1.49,1.49,0,0,1,.213-.363l.086.2c.058.054.2,0,.585-.14a9.19,9.19,0,0,1,1.045-.4l-.027.171a7.065,7.065,0,0,1-1.38.523c-.38.093-.331.124-.532.772a6.052,6.052,0,0,0-.133.632Zm.82.838a.346.346,0,0,1-.048.279.4.4,0,0,0,.328.09.488.488,0,0,0-.24-.926.4.4,0,0,0-.265.325.309.309,0,0,1,.225.232Zm-.564-.748a4.986,4.986,0,0,0,1.829-.735l-.006-.1a5.185,5.185,0,0,1-1.812.6l-.012.236Zm.939-.948a.326.326,0,0,0-.228-.236.4.4,0,0,1,.267-.322.441.441,0,0,1,.5.361.437.437,0,0,1-.262.559.365.365,0,0,1-.332-.085.318.318,0,0,0,.053-.277Zm1.274,3.263a.229.229,0,0,0-.049-.324l-.354-.263a.244.244,0,0,0-.331.051.239.239,0,0,0,.055.332l.349.257a.234.234,0,0,0,.329-.054Zm-1.9-.593c-.208-.065-.44-.29-.335-.336.058-.081.208.212.382.2a4.384,4.384,0,0,0,1.649-1.323,1.564,1.564,0,0,0,.252.49,8.334,8.334,0,0,1-1.949.974Zm1.905-5.789c-.053.25-.108.491-.155.722a8.928,8.928,0,0,1-1.215.662,7.183,7.183,0,0,1-2.74-.042c-.4-.05-.66-.583-.582-1.17s.469-1.029.869-.974a13.829,13.829,0,0,0,3.233-.073,6.276,6.276,0,0,0,.749-.314,8.014,8.014,0,0,1-.159,1.188Zm.174-1.484c0-.111.008-.22.008-.323a6.245,6.245,0,0,1-.946.43,12.256,12.256,0,0,1-2.97.042H52.59c-.693-.091-1.338.536-1.458,1.433a1.818,1.818,0,0,0,.306,1.328,1.073,1.073,0,0,0,.415.344,7.737,7.737,0,0,0,2.373.261,4.122,4.122,0,0,0,1.811-.558c.044-.13.052-.265.084-.4a8.366,8.366,0,0,1-1.034.547,6.583,6.583,0,0,1-2.876-.022.851.851,0,0,1-.552-.336,1.516,1.516,0,0,1-.246-1.124c.095-.741.6-1.266,1.154-1.191h.04a13.049,13.049,0,0,0,3.072-.058,6.741,6.741,0,0,0,.851-.371Zm.027-1.314c.034-.38.121-.908.208-1.388a12.709,12.709,0,0,1-3.095.225c-.31-.018-.582.353-.611.821s.2.873.5.892l.243.011a5.617,5.617,0,0,0,2.751-.562Zm.252-1.615-.029.008c-.154.03-.315.058-.472.077-.331.046-.661.079-.994.1-.31.022-.618.03-.93.036-.232,0-.465,0-.7-.014-.451-.024-.834.437-.873,1.055s.291,1.124.743,1.153l.236.011a4.99,4.99,0,0,0,1.324-.085,7.53,7.53,0,0,0,1.028-.305l.4-.154c0,.091,0,.188,0,.3l-.109.047a4.085,4.085,0,0,1-1.428.41,3.136,3.136,0,0,1-1.976-.146,1.45,1.45,0,0,1-.491-1.247,1.723,1.723,0,0,1,.128-.561l.049-.068.074-.165a1.033,1.033,0,0,1,.912-.523,15.707,15.707,0,0,0,2.349-.085,4.194,4.194,0,0,0,.562-.083c.088-.013.173-.03.251-.046-.017.088-.036.185-.054.287Zm.543-1.74c.23-.792.718-.734,1.112-.183.131-.772.418-.933,1.092-.375-.093-.976.462-.981,1-.629-.333-1.029.326-1.109.779-1.016-.325-.326-.617-1.122.36-1.191-.544-.4-.6-.743.037-1.211-.5-.244-.6-.466-.521-.612-.111-.075-.288-.213-.288-.213a2.336,2.336,0,0,1,.167.883,4.034,4.034,0,0,1-2.249,3.477,9.859,9.859,0,0,1-3.5.313c-.594.012-.964.585-.385.807a19.3,19.3,0,0,0,2.229.5,14.1,14.1,0,0,0-1.448-.442c-.733-.178-.794-.614-.406-.665a.926.926,0,0,1,1.009.48c.288-.8.866-.458,1.02.079Zm3.213-.688a.388.388,0,1,1-.387-.387.388.388,0,0,1,.387.387Zm-1.676,1.522c-.37.025-.682-.14-.695-.363s.273-.421.643-.447.679.136.693.358-.271.423-.641.451Zm1.432.7-.058.058h-.274l-.055-.058v-.038l.055-.058h.274l.058.055v.041Zm.488-.546-.059.056h-.272l-.055-.056V45.3l.055-.054h.272l.059.054v.047Zm-1.09.487a15.075,15.075,0,0,0,3.328-5.225,2.784,2.784,0,0,0-.18-.308,17.062,17.062,0,0,1-3.432,5.411l.284.121Zm1.749-1.317-.056.056h-.273l-.055-.056v-.043l.055-.056h.273l.056.056v.043Zm.657-.877-.059.056h-.272l-.058-.056v-.047l.058-.055h.272l.059.055v.047Zm.407-.709-.055.058h-.272l-.056-.058v-.044l.056-.059h.272l.055.059v.044Zm.381-.739-.06.059h-.27l-.058-.059v-.044l.056-.057h.27l.06.057v.044Zm.3-.678-.056.057h-.272l-.055-.057v-.043l.055-.058h.272l.056.058v.043ZM56.2,36.963c.274.068.525.011.558-.117s-.167-.29-.444-.362-.522-.018-.556.114.165.294.443.365Z" transform="translate(0 -2.402)"/>
    <path id="Path_1773" data-name="Path 1773" class="cls-1" d="M60.389,50.527a.684.684,0,0,0-.588-.756l-.187-.027h-.081l-.006.044.076.055a.4.4,0,0,1,.156.415.448.448,0,0,1-.584.241l-.122-.049L59,50.416l-.046-.022.036.16.1.146a.853.853,0,0,0,.436.248.685.685,0,0,0,.863-.422Z" transform="translate(-11.056 -6.62)"/>
    <path id="Path_1774" data-name="Path 1774" class="cls-1" d="M66.525,46.953c-.044.094.056.236.221.305s.331.048.373-.05-.052-.239-.22-.306-.329-.047-.373.051Z" transform="translate(-13.311 -5.769)"/>
    <path id="Path_1775" data-name="Path 1775" class="cls-2" d="M78.977,42.639a.192.192,0,0,0,.192-.192.192.192,0,1,0-.384,0,.192.192,0,0,0,.192.192Z" transform="translate(-16.974 -4.407)"/>
    <path id="Path_1776" data-name="Path 1776" class="cls-2" d="M77.712,45.5a.209.209,0,0,0-.21.211.217.217,0,0,0,.21.219.22.22,0,0,0,.218-.219.213.213,0,0,0-.218-.211Z" transform="translate(-16.591 -5.367)"/>
    <path id="Path_1777" data-name="Path 1777" class="cls-2" d="M78.678,44.109a.193.193,0,1,0-.387,0,.193.193,0,0,0,.387,0Z" transform="translate(-16.826 -4.899)"/>
    <path id="Path_1778" data-name="Path 1778" class="cls-1" d="M60.839,52.33l-.044-.018.033.156.1.149a.849.849,0,0,0,.434.246.619.619,0,1,0,.276-1.18l-.188-.02h-.046l-.033,0-.011.044.079.054a.4.4,0,0,1,.156.417.454.454,0,0,1-.584.244l-.121-.053-.055-.034Z" transform="translate(-11.605 -7.186)"/>
    <path id="Path_1779" data-name="Path 1779" class="cls-1" d="M65.772,65.365a.3.3,0,0,0-.308-.3.3.3,0,0,0-.3.3.3.3,0,1,0,.608,0Z" transform="translate(-12.908 -11.15)"/>
    <path id="Path_1780" data-name="Path 1780" class="cls-1" d="M58.548,48.457a.683.683,0,0,0-.588-.757l-.187-.025h-.079l-.009.047.078.052a.4.4,0,0,1,.156.418.454.454,0,0,1-.581.242l-.126-.054-.055-.032-.044-.019.034.157.1.149a.874.874,0,0,0,.433.246.684.684,0,0,0,.863-.425Z" transform="translate(-10.507 -6.009)"/>
    <path id="Path_1781" data-name="Path 1781" class="cls-1" d="M64.412,48.269a.689.689,0,0,0-.589-.759l-.188-.023h-.078l-.01.045.078.054a.4.4,0,0,1,.156.413.448.448,0,0,1-.584.243l-.124-.049-.053-.037-.044-.018.034.16.1.146a.847.847,0,0,0,.433.25.692.692,0,0,0,.865-.425Z" transform="translate(-12.256 -5.953)"/>
    <path id="Path_1782" data-name="Path 1782" class="cls-1" d="M61,43.43a.559.559,0,0,0-.481-.622l-.154-.022H60.3l-.011.039.066.042a.335.335,0,0,1,.128.34.367.367,0,0,1-.476.2l-.1-.043-.044-.025-.039-.015.03.128.085.121a.686.686,0,0,0,.354.2A.559.559,0,0,0,61,43.43Z" transform="translate(-11.315 -4.564)"/>
    <path id="Path_1783" data-name="Path 1783" class="cls-1" d="M61.792,45.119A.8.8,0,0,0,61.6,45.1h-.047l-.032,0-.01.049.078.052a.4.4,0,0,1,.156.416.448.448,0,0,1-.582.244l-.122-.055-.056-.034-.044-.015.034.159.106.145a.85.85,0,0,0,.43.246.619.619,0,1,0,.276-1.18Z" transform="translate(-11.65 -5.246)"/>
    <path id="Path_1784" data-name="Path 1784" class="cls-1" d="M53.26,47.98a.564.564,0,0,0-.483-.623l-.152-.018h-.067l0,.035.062.048a.326.326,0,0,1,.126.338.366.366,0,0,1-.476.2l-.1-.041-.045-.032-.036-.014.027.132.088.121a.7.7,0,0,0,.355.2.558.558,0,0,0,.706-.345Z" transform="translate(-9.007 -5.91)"/>
    <path id="Path_1785" data-name="Path 1785" class="cls-1" d="M63.347,61.747a.48.48,0,0,1-.161-.149.77.77,0,0,0,.41.622.584.584,0,1,0,.571-.968.809.809,0,0,0-.57-.113l.09.036a.4.4,0,0,1,.213.512.4.4,0,0,1-.552.06Z" transform="translate(-12.319 -9.984)"/>
    <path id="Path_1786" data-name="Path 1786" class="cls-1" d="M67.241,51.687l.063-.007a.378.378,0,0,1,0,.747.293.293,0,0,1-.239-.126.6.6,0,0,0,.562.547.677.677,0,0,0,0-1.338.528.528,0,0,0-.387.178Z" transform="translate(-13.476 -7.142)"/>
    <path id="Path_1787" data-name="Path 1787" class="cls-1" d="M65.792,56.205a.57.57,0,0,0-.411.188l.067-.006a.4.4,0,0,1,0,.8.321.321,0,0,1-.255-.136.643.643,0,0,0,.6.576.66.66,0,0,0,.607-.7.671.671,0,0,0-.607-.715Z" transform="translate(-12.917 -8.53)"/>
    <path id="Path_1788" data-name="Path 1788" class="cls-1" d="M68.463,56.266a.578.578,0,0,0-.413.185l.069,0a.4.4,0,0,1,0,.8.338.338,0,0,1-.254-.135.638.638,0,0,0,.6.575.718.718,0,0,0,0-1.419Z" transform="translate(-13.714 -8.548)"/>
    <path id="Path_1789" data-name="Path 1789" class="cls-1" d="M69.536,52.217a.245.245,0,0,1-.2-.109.5.5,0,0,0,.462.451.556.556,0,0,0,0-1.1.43.43,0,0,0-.318.143l.052,0a.288.288,0,0,1,.266.308.293.293,0,0,1-.266.309Z" transform="translate(-14.154 -7.128)"/>
    <path id="Path_1790" data-name="Path 1790" class="cls-2" d="M74.329,48.6c-.187.014-.329.109-.325.223s.166.189.349.182.333-.114.324-.224-.164-.2-.348-.181Z" transform="translate(-15.545 -6.282)"/>
    <path id="Path_1791" data-name="Path 1791" class="cls-2" d="M76.422,46.8a.21.21,0,0,0-.213.213.213.213,0,0,0,.426,0,.211.211,0,0,0-.213-.213Z" transform="translate(-16.203 -5.752)"/>
    <path id="Path_1792" data-name="Path 1792" class="cls-1" d="M63.612,60.346a1.25,1.25,0,0,0-.992.119.644.644,0,0,0-.322.5,1.315,1.315,0,0,0,.984,1.5,6.506,6.506,0,0,0,2.3.269l.011-.143.01-.109a6.3,6.3,0,0,1-2.222-.253c-.769-.323-.887-.712-.831-1.231a.415.415,0,0,1,.207-.313,1.015,1.015,0,0,1,.766-.089,5.924,5.924,0,0,0,2.337.4c.03-.1.059-.186.088-.267a5.619,5.619,0,0,1-2.338-.378Z" transform="translate(-12.05 -9.735)"/>
    <path id="Path_1793" data-name="Path 1793" class="cls-3" d="M235.856,56.245H88.311V54.929H236.052v1.315Z" transform="translate(-19.825 -8.153)"/>
    <g id="Group_1489" data-name="Group 1489" transform="translate(68.485 35.584)">
      <path id="Path_1794" data-name="Path 1794" class="cls-1" d="M97.787,43.845a1.037,1.037,0,0,0-.679-.735,1.149,1.149,0,0,0,.74-.743,3.651,3.651,0,0,0,.117-1.093,1.838,1.838,0,0,0-.528-1.312,2.606,2.606,0,0,0-1.331-.728,6.929,6.929,0,0,0-1.528-.133H88.311v7.99h6.436a4.589,4.589,0,0,0,2.14-.444,1.9,1.9,0,0,0,1.077-1.763,3,3,0,0,0-.177-1.039ZM96.2,45.015c0,.439-.592.559-1.564.559h-4.57V43.892h4.7c.924,0,1.436.14,1.436.617v.506Zm0-3.179c0,.361-.441.539-1.324.539H90.1V40.6h4.618c.994,0,1.491.2,1.491.6v.63Z" transform="translate(-88.311 -39.052)"/>
      <path id="Path_1795" data-name="Path 1795" class="cls-1" d="M109.766,39.032a1.079,1.079,0,0,0-.936.542l-5.2,7.5H105.7l1.16-1.733h5.768l1.192,1.733h1.971l-5.092-7.5a1.057,1.057,0,0,0-.932-.538Zm-1.894,4.8,1.834-2.742,1.881,2.742Z" transform="translate(-92.881 -39.031)"/>
      <path id="Path_1796" data-name="Path 1796" class="cls-1" d="M130.429,44.6l-5.969-5.114a1.657,1.657,0,0,0-1.1-.457c-.558,0-.838.335-.838,1.017v7.017h1.759V41.476l6.048,5.18a1.5,1.5,0,0,0,.994.413q.864,0,.865-1.053V39.08h-1.76V44.6Z" transform="translate(-98.515 -39.031)"/>
      <path id="Path_1797" data-name="Path 1797" class="cls-1" d="M167.818,39.441a6.656,6.656,0,0,0-2.451-.34H163.35q-3.688,0-3.69,2.253v3.512a1.889,1.889,0,0,0,1.3,1.819,6.011,6.011,0,0,0,2.387.406h2.018q3.7,0,3.7-2.228V41.354a1.892,1.892,0,0,0-1.25-1.912Zm-.509,5.389q0,.745-1.9.746h-2.06q-1.928,0-1.927-.746V41.382c0-.514.641-.776,1.927-.776H165.4c1.274,0,1.908.262,1.908.776V44.83Z" transform="translate(-109.591 -39.052)"/>
      <path id="Path_1798" data-name="Path 1798" class="cls-1" d="M176.476,39.531a1.8,1.8,0,0,0-1.2,1.7V47.09h1.76v-3.2h5.5V42.375h-5.509V41.228c0-.414.581-.624,1.74-.624h5.281V39.1h-5.361a5.132,5.132,0,0,0-2.207.431Z" transform="translate(-114.248 -39.052)"/>
      <path id="Path_1799" data-name="Path 1799" class="cls-1" d="M238.711,39.441a6.664,6.664,0,0,0-2.45-.34h-2.015q-3.692,0-3.692,2.253v3.512a1.891,1.891,0,0,0,1.3,1.819,6.029,6.029,0,0,0,2.393.406h2.015c2.47,0,3.7-.742,3.7-2.228V41.354a1.9,1.9,0,0,0-1.25-1.912ZM238.2,44.83c0,.5-.633.746-1.905.746h-2.057q-1.927,0-1.928-.746V41.382c0-.514.643-.776,1.928-.776h2.051c1.272,0,1.911.262,1.911.776V44.83Z" transform="translate(-130.735 -39.052)"/>
      <path id="Path_1800" data-name="Path 1800" class="cls-1" d="M217.346,39.531a1.809,1.809,0,0,0-1.2,1.7V45a1.789,1.789,0,0,0,1.154,1.664,4.938,4.938,0,0,0,2.13.424h5.533V45.574h-5.467c-1.06,0-1.585-.2-1.585-.618V43.892h5.5V42.375H217.9V41.228c0-.414.581-.624,1.74-.624h5.325V39.1H219.55a5.132,5.132,0,0,0-2.2.431Z" transform="translate(-126.437 -39.052)"/>
      <path id="Path_1801" data-name="Path 1801" class="cls-1" d="M254.563,39.489a5.754,5.754,0,0,0-2.272-.389H246.2v7.992h1.753V44.183h2.367l2.972,2.909h2.392l-3.1-2.909a5,5,0,0,0,2.085-.4,1.731,1.731,0,0,0,1.133-1.651v-.919a1.8,1.8,0,0,0-1.234-1.728Zm-.526,2.661c0,.354-.408.527-1.222.527h-4.862V40.6H252.5c1.021,0,1.533.192,1.533.578v.968Z" transform="translate(-135.4 -39.052)"/>
      <path id="Path_1802" data-name="Path 1802" class="cls-1" d="M277.973,47.091h1.76V39.1h-1.76v7.99Z" transform="translate(-144.877 -39.052)"/>
      <path id="Path_1803" data-name="Path 1803" class="cls-1" d="M266.389,43.845h3.585v1.179c0,.167-.2.31-.593.422a2.9,2.9,0,0,1-.806.128h-3.02c-1.117,0-1.681-.192-1.681-.582V41.179c0-.381.456-.574,1.362-.574h6.278V39.1h-5.962a5.358,5.358,0,0,0-2.2.413,1.771,1.771,0,0,0-1.236,1.665v3.813a1.78,1.78,0,0,0,1.209,1.7,5.418,5.418,0,0,0,2.2.4h3.044a4.5,4.5,0,0,0,2.082-.434,1.8,1.8,0,0,0,1.076-1.686V42.336h-5.344v1.508Z" transform="translate(-140.148 -39.052)"/>
      <path id="Path_1804" data-name="Path 1804" class="cls-1" d="M204.463,43.845h3.59v1.179c0,.167-.2.31-.592.422a2.9,2.9,0,0,1-.806.128h-3.02c-1.119,0-1.681-.192-1.681-.582V41.179c0-.381.454-.574,1.361-.574h6.277V39.1H203.63a5.37,5.37,0,0,0-2.2.413,1.773,1.773,0,0,0-1.235,1.665v3.813a1.781,1.781,0,0,0,1.209,1.7,5.433,5.433,0,0,0,2.209.4h3.046a4.485,4.485,0,0,0,2.076-.434,1.8,1.8,0,0,0,1.076-1.686V42.336h-5.348v1.508Z" transform="translate(-121.68 -39.052)"/>
      <path id="Path_1805" data-name="Path 1805" class="cls-1" d="M291.765,47.07h1.971l-5.091-7.5a1.061,1.061,0,0,0-.931-.538,1.078,1.078,0,0,0-.939.542l-5.2,7.5h2.062l1.158-1.732h5.774l1.192,1.732Zm-5.947-3.241,1.834-2.743,1.881,2.743Z" transform="translate(-145.953 -39.031)"/>
      <path id="Path_1806" data-name="Path 1806" class="cls-1" d="M147.624,39.1h-2.414l-4.368,4.044V39.1h-1.758v7.99h1.758V45.049l1.3-1.141,3.209,3.134h2.419l-4.435-4.181,4.287-3.76Z" transform="translate(-103.454 -39.052)"/>
    </g>
    <path id="Path_1807" data-name="Path 1807" class="cls-3" d="M61.63,69.7V49.955l.053-.133.839-.9.34-.436V69.7a3.8,3.8,0,0,1-3.8,3.8H26.808a3.8,3.8,0,0,1-3.8-3.8V67.064a10.866,10.866,0,0,0,1.054.369l.182.019V69.7h0a2.562,2.562,0,0,0,2.561,2.56H59.063A2.567,2.567,0,0,0,61.63,69.7Z" transform="translate(-0.336 -6.158)"/>
    <path id="Path_1808" data-name="Path 1808" class="cls-3" d="M24.244,31.143V58.62l-.2-.008c-.142,0-.28-.014-.413-.021l-.439-.032-.182-.018v-27.4a3.8,3.8,0,0,1,3.8-3.8H59.063a3.807,3.807,0,0,1,3.8,3.8v4.529l-.3-.2-.051-.039h0l-.016-.013-.074-.1a2.531,2.531,0,0,0-.27-.569,3.412,3.412,0,0,0-.445-.568l-.03-.041-.008-.014-.01-.017-.023-.095V31.143a2.566,2.566,0,0,0-2.564-2.561v0l-32.255,0a2.566,2.566,0,0,0-2.564,2.561Z" transform="translate(-0.335)"/>
    <g id="Group_1490" data-name="Group 1490" transform="translate(68.095 52.316)">
      <path id="Path_1809" data-name="Path 1809" class="cls-4" d="M93.314,66.409H89.075v2.448h-1.32V64.272a1.006,1.006,0,0,1,.2-.607,1.709,1.709,0,0,1,.541-.467,3.008,3.008,0,0,1,.8-.3,4.206,4.206,0,0,1,.967-.107h4.215v1.135q-.7,0-1.364-.008t-1.268,0q-.6,0-1.108.032a7.881,7.881,0,0,0-.876.091,1.972,1.972,0,0,0-.575.176.33.33,0,0,0-.208.288v.76h4.239Z" transform="translate(-87.755 -62.778)"/>
      <path id="Path_1810" data-name="Path 1810" class="cls-4" d="M99.3,68.853H97.979V62.774H99.3Z" transform="translate(-90.804 -62.774)"/>
      <path id="Path_1811" data-name="Path 1811" class="cls-4" d="M108.145,68.062q0,.792-.648.792a1.148,1.148,0,0,1-.76-.312l-4.647-3.927v4.239h-1.319V63.542c0-.511.213-.768.64-.768a1.276,1.276,0,0,1,.823.345l4.591,3.887V62.774h1.32Z" transform="translate(-91.637 -62.774)"/>
      <path id="Path_1812" data-name="Path 1812" class="cls-4" d="M121.35,68.853h-1.488l-1.1-1.568h-4.111l-1.072,1.568h-1.568l3.968-5.663a.883.883,0,0,1,.744-.416.861.861,0,0,1,.743.408Zm-4.679-4.528-1.232,1.808h2.5Z" transform="translate(-94.988 -62.774)"/>
      <path id="Path_1813" data-name="Path 1813" class="cls-4" d="M133.413,68.062q0,.792-.648.792a1.148,1.148,0,0,1-.76-.312l-4.647-3.927v4.239h-1.319V63.542c0-.511.213-.768.64-.768a1.279,1.279,0,0,1,.824.345l4.591,3.887V62.774h1.319Z" transform="translate(-99.173 -62.774)"/>
      <path id="Path_1814" data-name="Path 1814" class="cls-4" d="M144.2,68.853H140.1q-2.68,0-2.679-1.64V64.334a1.27,1.27,0,0,1,.171-.652,1.438,1.438,0,0,1,.493-.492,2.6,2.6,0,0,1,.792-.307,4.759,4.759,0,0,1,1.063-.109H144.2v1.152h-4.4q-1.056,0-1.056.4V67.2q0,.5,1.36.5H144.2Z" transform="translate(-102.569 -62.774)"/>
      <path id="Path_1815" data-name="Path 1815" class="cls-4" d="M149.1,68.853h-1.32V62.774h1.32Z" transform="translate(-105.659 -62.774)"/>
      <path id="Path_1816" data-name="Path 1816" class="cls-4" d="M159.748,68.853h-1.488l-1.1-1.568h-4.112l-1.072,1.568h-1.568l3.968-5.663a.883.883,0,0,1,.744-.416.861.861,0,0,1,.743.408Zm-4.679-4.528-1.232,1.808h2.5Z" transform="translate(-106.44 -62.774)"/>
      <path id="Path_1817" data-name="Path 1817" class="cls-4" d="M170.7,68.853h-3.352a7.925,7.925,0,0,1-1.334-.1,2.745,2.745,0,0,1-.905-.3,1.282,1.282,0,0,1-.517-.519,1.621,1.621,0,0,1-.163-.749V62.774h1.32v4.415a.356.356,0,0,0,.088.244.6.6,0,0,0,.283.161,2.474,2.474,0,0,0,.512.084q.316.024.772.024h3.3Z" transform="translate(-110.621 -62.774)"/>
      <path id="Path_1818" data-name="Path 1818" class="cls-4" d="M184.641,68.853h-1.32V62.774h1.32Z" transform="translate(-116.257 -62.774)"/>
      <path id="Path_1819" data-name="Path 1819" class="cls-4" d="M193.489,68.062q0,.792-.648.792a1.146,1.146,0,0,1-.759-.312l-4.647-3.927v4.239h-1.32V63.542c0-.511.213-.768.64-.768a1.277,1.277,0,0,1,.824.345l4.591,3.887V62.774h1.32Z" transform="translate(-117.09 -62.774)"/>
      <path id="Path_1820" data-name="Path 1820" class="cls-4" d="M206.678,62.786l-3.96,5.662a.881.881,0,0,1-.752.408.836.836,0,0,1-.728-.408l-3.887-5.662h1.479l3.192,4.526,3.1-4.526Z" transform="translate(-120.442 -62.778)"/>
      <path id="Path_1821" data-name="Path 1821" class="cls-4" d="M217.635,68.853h-4.262a4.364,4.364,0,0,1-1.008-.109,2.534,2.534,0,0,1-.783-.316,1.569,1.569,0,0,1-.509-.5,1.252,1.252,0,0,1-.179-.668V64.39a1.246,1.246,0,0,1,.187-.676,1.6,1.6,0,0,1,.528-.507,2.76,2.76,0,0,1,.816-.32,4.568,4.568,0,0,1,1.044-.112h4.166v1.152h-4.1q-1.32,0-1.319.464v.872h4.232v1.16h-4.232v.808q0,.472,1.2.472h4.223Z" transform="translate(-124.48 -62.774)"/>
      <path id="Path_1822" data-name="Path 1822" class="cls-4" d="M228,67.177a2.078,2.078,0,0,1-.128.775,1.1,1.1,0,0,1-.435.521,2.244,2.244,0,0,1-.815.292,7.359,7.359,0,0,1-1.274.092h-4.13V67.7h4.335q1.128,0,1.128-.455v-.4q0-.488-1.279-.488h-1.84a3.824,3.824,0,0,1-.932-.108,2.479,2.479,0,0,1-.74-.307,1.591,1.591,0,0,1-.492-.479,1.12,1.12,0,0,1-.18-.622v-.439a1.633,1.633,0,0,1,.152-.731,1.191,1.191,0,0,1,.487-.5,2.652,2.652,0,0,1,.875-.291,7.646,7.646,0,0,1,1.322-.1H228v1.135H223.89q-1.352,0-1.351.472v.352q0,.44,1.423.44h1.4a4.944,4.944,0,0,1,1.256.135,2.12,2.12,0,0,1,.811.392,1.42,1.42,0,0,1,.44.625A2.464,2.464,0,0,1,228,67.177Z" transform="translate(-127.56 -62.778)"/>
      <path id="Path_1823" data-name="Path 1823" class="cls-4" d="M238.32,63.921h-2.7v4.935H234.3V63.921H231.6V62.786h6.718Z" transform="translate(-130.657 -62.778)"/>
      <path id="Path_1824" data-name="Path 1824" class="cls-4" d="M251.83,68.837h-1.32V64.958l-2.834,3.519a1,1,0,0,1-1.561,0l-2.891-3.542v3.9H241.9V63.446a.624.624,0,0,1,.2-.491.743.743,0,0,1,.508-.18.912.912,0,0,1,.727.328l3.564,4.239,3.476-4.247a.9.9,0,0,1,.7-.32.728.728,0,0,1,.54.2.71.71,0,0,1,.2.524Z" transform="translate(-133.729 -62.774)"/>
      <path id="Path_1825" data-name="Path 1825" class="cls-4" d="M263.669,68.853h-4.262a4.368,4.368,0,0,1-1.008-.109,2.534,2.534,0,0,1-.783-.316,1.566,1.566,0,0,1-.508-.5,1.246,1.246,0,0,1-.18-.668V64.39a1.252,1.252,0,0,1,.187-.676,1.6,1.6,0,0,1,.528-.507,2.768,2.768,0,0,1,.816-.32,4.576,4.576,0,0,1,1.044-.112h4.166v1.152h-4.1q-1.32,0-1.319.464v.872h4.231v1.16h-4.231v.808q0,.472,1.2.472h4.222Z" transform="translate(-138.21 -62.774)"/>
      <path id="Path_1826" data-name="Path 1826" class="cls-4" d="M274.649,68.062q0,.792-.648.792a1.146,1.146,0,0,1-.759-.312l-4.647-3.927v4.239h-1.32V63.542c0-.511.213-.768.641-.768a1.277,1.277,0,0,1,.823.345l4.591,3.887V62.774h1.32Z" transform="translate(-141.296 -62.774)"/>
      <path id="Path_1827" data-name="Path 1827" class="cls-4" d="M285.243,63.921h-2.7v4.935h-1.32V63.921h-2.7V62.786h6.719Z" transform="translate(-144.651 -62.778)"/>
      <path id="Path_1828" data-name="Path 1828" class="cls-4" d="M295.587,67.177a2.077,2.077,0,0,1-.128.775,1.1,1.1,0,0,1-.435.521,2.244,2.244,0,0,1-.815.292,7.36,7.36,0,0,1-1.274.092H288.8V67.7h4.335q1.128,0,1.128-.455v-.4q0-.488-1.279-.488h-1.84a3.824,3.824,0,0,1-.932-.108,2.479,2.479,0,0,1-.74-.307,1.584,1.584,0,0,1-.492-.479,1.12,1.12,0,0,1-.18-.622v-.439a1.633,1.633,0,0,1,.152-.731,1.187,1.187,0,0,1,.487-.5,2.652,2.652,0,0,1,.875-.291,7.646,7.646,0,0,1,1.322-.1h3.947v1.135h-4.112q-1.352,0-1.351.472v.352q0,.44,1.423.44h1.4a4.944,4.944,0,0,1,1.256.135,2.12,2.12,0,0,1,.811.392,1.42,1.42,0,0,1,.44.625A2.464,2.464,0,0,1,295.587,67.177Z" transform="translate(-147.717 -62.778)"/>
    </g>
  </g>
</svg>
