<svg xmlns="http://www.w3.org/2000/svg" width="64" height="64" viewBox="0 0 64 64">
  <g id="Group_1469" data-name="Group 1469" transform="translate(-452 -3489)">
    <circle id="Ellipse_1_copy_5" data-name="Ellipse 1 copy 5" cx="32" cy="32" r="32" transform="translate(452 3489)" fill="#ff671d"/>
    <g id="Group_1459" data-name="Group 1459" transform="translate(224.503 2702.226)">
      <path id="Path_575" data-name="Path 575" d="M30.83,5.231C30.611,4.88,27.326,0,21.633,0H9.459A7.153,7.153,0,0,0,2.321,7.166V20.574c0,.4-.613.176-.613.176a1.875,1.875,0,0,0-.526-.088A1.18,1.18,0,0,0,0,21.849c0,1.407,2.19,1.978,3.065,1.978a3.992,3.992,0,0,0,.744-.044,7.217,7.217,0,0,0,5.649,2.77H21.59a7.153,7.153,0,0,0,7.138-7.166V12.046s1.489-1.89,1.664-2.066h0s1.182-1.627,1.489-2.242.044-.879-1.051-2.506" transform="translate(243 806)" fill="#fff"/>
      <path id="Path_576" data-name="Path 576" d="M24.811,22.547a2.623,2.623,0,0,0,.876.132c1.314,0,1.883-.528,1.883-1.143,0-.7-.963-.7-1.051-1.363-.131-.791-.044-4.309,1.314-6.243l.919.4a1.42,1.42,0,0,0,.569.132.827.827,0,0,0,.613-.308A17.78,17.78,0,0,0,32.3,10.9c.131-.22-1.8-2.638-2.846-3.473A4.368,4.368,0,0,0,26.781,6.5a4.228,4.228,0,0,0-4.028,2.858,20.419,20.419,0,0,1-6.042,2.9c-2.933.791-5.955.044-7.969.176a4.16,4.16,0,0,0-4.159,4.309C4.627,19.03,6.2,21.1,6.2,23.25a2.348,2.348,0,0,1-2.321,2.418c-1.138,0-1.182-.44-1.532-.44a.281.281,0,0,0-.35.264c0,.572,1.4,1.1,2.189,1.1A3.471,3.471,0,0,0,7.166,25.1a2.617,2.617,0,0,0,2.627,1.539c1.664,0,2.364-.791,2.364-1.451,0-.528-.306-.747-.569-1.1a1.6,1.6,0,0,1-.306-1.011,7.774,7.774,0,0,0,.876.044c1.182,0,1.576-.484,1.576-.967,0-.616-.7-.572-.7-1.583,0-.791.438-1.011.788-1.011.394,0,1.926.132,3.809.352.613.044,2.145.659,2.145,3.078v.879c0,1.451.569,3.3,3.2,3.3,1.751,0,2.758-.967,2.758-1.715,0-.484-.394-.659-.613-.967a2.28,2.28,0,0,1-.306-1.934" transform="translate(241.879 802.357)" fill="#f26724"/>
      <path id="Path_577" data-name="Path 577" d="M63.408,19.1a.308.308,0,1,0,.308.308.3.3,0,0,0-.308-.308" transform="translate(207.517 795.297)" fill="#fff"/>
      <path id="Path_578" data-name="Path 578" d="M65.864,17a.264.264,0,1,0,.264.264A.253.253,0,0,0,65.864,17" transform="translate(206.116 796.474)" fill="#fff"/>
      <path id="Path_579" data-name="Path 579" d="M67.12,14.7a.22.22,0,1,0,.22.22.235.235,0,0,0-.22-.22" transform="translate(205.387 797.762)" fill="#fff"/>
      <path id="Path_580" data-name="Path 580" d="M46.952,17.1a.352.352,0,1,0-.352-.352c.044.22.176.352.352.352" transform="translate(216.806 796.81)" fill="#fff"/>
      <path id="Path_581" data-name="Path 581" d="M49.908,36.2a.314.314,0,0,0-.308.352.34.34,0,0,0,.308.352.347.347,0,0,0,.352-.352c-.044-.176-.176-.352-.352-.352" transform="translate(215.119 785.714)" fill="#fff"/>
      <path id="Path_582" data-name="Path 582" d="M54.352,37a.352.352,0,1,0,.352.352c-.044-.22-.176-.352-.352-.352" transform="translate(212.646 785.266)" fill="#fff"/>
      <path id="Path_583" data-name="Path 583" d="M50.452,29.4a.352.352,0,1,0,0,.7.323.323,0,0,0,.352-.352.347.347,0,0,0-.352-.352" transform="translate(214.838 789.525)" fill="#fff"/>
      <path id="Path_584" data-name="Path 584" d="M53.1,23.4a.352.352,0,0,0,0-.7.355.355,0,0,0,0,.7" transform="translate(213.329 793.279)" fill="#fff"/>
      <path id="Path_585" data-name="Path 585" d="M41.252,20.3a.352.352,0,1,0-.352-.352c.044.22.176.352.352.352" transform="translate(220.01 795.017)" fill="#fff"/>
      <path id="Path_586" data-name="Path 586" d="M45.552,34.7a.352.352,0,1,0,.352.352c-.044-.22-.176-.352-.352-.352" transform="translate(217.593 786.555)" fill="#fff"/>
      <path id="Path_587" data-name="Path 587" d="M43.452,24a.314.314,0,0,0,.308-.352.34.34,0,0,0-.308-.352.352.352,0,0,0,0,.7" transform="translate(218.773 792.943)" fill="#fff"/>
      <path id="Path_588" data-name="Path 588" d="M38.652,29.2a.352.352,0,1,0,.352.352.378.378,0,0,0-.352-.352" transform="translate(221.471 789.637)" fill="#fff"/>
      <path id="Path_589" data-name="Path 589" d="M46.452,27.5a.352.352,0,1,0-.352-.352c.044.22.176.352.352.352" transform="translate(217.087 790.982)" fill="#fff"/>
      <path id="Path_590" data-name="Path 590" d="M34.552,21.7a.352.352,0,1,0,.352.352.347.347,0,0,0-.352-.352" transform="translate(223.776 793.84)" fill="#fff"/>
      <path id="Path_591" data-name="Path 591" d="M36.252,25.6a.352.352,0,1,0,.352.352c-.044-.22-.176-.352-.352-.352" transform="translate(222.82 791.654)" fill="#fff"/>
      <path id="Path_592" data-name="Path 592" d="M41.752,32.1a.352.352,0,1,0,.352.352c-.044-.176-.176-.352-.352-.352" transform="translate(219.729 788.012)" fill="#fff"/>
      <path id="Path_593" data-name="Path 593" d="M49.452,20.6a.352.352,0,1,0-.352-.352c.044.22.176.352.352.352" transform="translate(215.4 794.848)" fill="#fff"/>
      <path id="Path_594" data-name="Path 594" d="M54.952,30.8a.352.352,0,1,0,.352.352.347.347,0,0,0-.352-.352" transform="translate(212.309 788.74)" fill="#fff"/>
      <path id="Path_595" data-name="Path 595" d="M56.852,24.7a.352.352,0,1,0,0,.7.323.323,0,0,0,.352-.352.347.347,0,0,0-.352-.352" transform="translate(211.241 792.159)" fill="#fff"/>
      <path id="Path_596" data-name="Path 596" d="M56.352,18.5a.352.352,0,1,0,.352.352.323.323,0,0,0-.352-.352" transform="translate(211.522 795.633)" fill="#fff"/>
      <path id="Path_597" data-name="Path 597" d="M59.952,19.6a.352.352,0,1,0,.352.352.378.378,0,0,0-.352-.352" transform="translate(209.479 795.017)" fill="#fff"/>
      <path id="Path_598" data-name="Path 598" d="M53.752,16.2a.352.352,0,1,0,.352.352c-.044-.22-.176-.352-.352-.352" transform="translate(212.983 796.922)" fill="#fff"/>
      <path id="Path_599" data-name="Path 599" d="M52.252,13.3a.352.352,0,1,0,.352.352c-.044-.176-.176-.352-.352-.352" transform="translate(213.826 798.547)" fill="#fff"/>
      <path id="Path_600" data-name="Path 600" d="M55.352,13.3a.352.352,0,1,0,.352.352.378.378,0,0,0-.352-.352" transform="translate(212.084 798.547)" fill="#fff"/>
      <path id="Path_601" data-name="Path 601" d="M52.2,10.964a.284.284,0,0,1,.264-.264.253.253,0,0,1,.264.264.264.264,0,1,1-.527,0" transform="translate(213.658 800.003)" fill="#fff"/>
      <path id="Path_602" data-name="Path 602" d="M54.1,8.72a.22.22,0,1,1,.22.22.235.235,0,0,1-.22-.22" transform="translate(212.591 801.236)" fill="#fff"/>
      <path id="Path_603" data-name="Path 603" d="M56.5,7.676a.176.176,0,1,1,.176.176.189.189,0,0,1-.176-.176" transform="translate(211.242 801.797)" fill="#fff"/>
      <path id="Path_604" data-name="Path 604" d="M66.9,12.876a.176.176,0,1,1,.176.176.189.189,0,0,1-.176-.176" transform="translate(205.387 798.883)" fill="#fff"/>
      <path id="Path_605" data-name="Path 605" d="M66.3,20.376a.176.176,0,1,1,.176.176c-.044,0-.132-.088-.176-.176" transform="translate(205.723 794.68)" fill="#fff"/>
      <path id="Path_606" data-name="Path 606" d="M67.4,18.976a.176.176,0,1,1,.176.176.189.189,0,0,1-.176-.176" transform="translate(205.107 795.465)" fill="#fff"/>
      <path id="Path_607" data-name="Path 607" d="M65.2,21.876a.176.176,0,1,1,.176.176.189.189,0,0,1-.176-.176" transform="translate(206.34 793.84)" fill="#fff"/>
      <path id="Path_608" data-name="Path 608" d="M63.9,23.176a.176.176,0,1,1,.176.176c-.088,0-.132-.088-.176-.176" transform="translate(207.069 793.111)" fill="#fff"/>
      <path id="Path_609" data-name="Path 609" d="M68.4,17.476a.176.176,0,1,1,.176.176.189.189,0,0,1-.176-.176" transform="translate(204.546 796.305)" fill="#fff"/>
      <path id="Path_610" data-name="Path 610" d="M69.1,16.176a.176.176,0,1,1,.176.176c-.088,0-.132-.044-.176-.176" transform="translate(204.154 797.034)" fill="#fff"/>
      <path id="Path_611" data-name="Path 611" d="M20.3,39.938a5.323,5.323,0,0,1-.4-4.22,3.515,3.515,0,0,1,3.6-2.066,3.088,3.088,0,0,0-1.407-.264,3.515,3.515,0,0,0-3.209,3.78A4.046,4.046,0,0,0,20.3,39.938" transform="translate(232.377 787.295)" fill="#fff"/>
      <path id="Path_612" data-name="Path 612" d="M10.935,26.865a2.822,2.822,0,0,1-.835-2.022,2.909,2.909,0,0,1,2.857-2.857c1.626-.088,4.615.4,6.549.132.659,2.945,2.857,5.011,4.483,6.329-1.978-.879-3.956-3.209-6.241-4.483-2.374-1.319-4.791-1.538-6.066-.352a3.284,3.284,0,0,0-.747,3.253" transform="translate(237.339 793.686)" fill="#fff"/>
      <path id="Path_613" data-name="Path 613" d="M25.607,39.9c.132.835-1.407,1.143-1.407,1.143,1.407.264,1.846-.483,1.846-.483a3.356,3.356,0,0,0-.44-.659" transform="translate(229.395 783.641)" fill="#fff"/>
      <path id="Path_614" data-name="Path 614" d="M50.29,40.9h0a4.406,4.406,0,0,0-.264,3.648,4.747,4.747,0,0,1-1.626.835s2.11.264,2.769-.835c-1.319-1.011-.923-3.472-.879-3.648" transform="translate(215.788 783.081)" fill="#fff"/>
      <path id="Path_615" data-name="Path 615" d="M59.99,10.268a1.4,1.4,0,0,0-1.714.967,1.365,1.365,0,0,0,1.275,1.494,1.4,1.4,0,0,0,1.714-.967,1.365,1.365,0,0,0-1.275-1.494m1.055,1.45a1.02,1.02,0,0,1-1.231.7.967.967,0,0,1-.879-1.055,1.02,1.02,0,0,1,1.231-.7.967.967,0,0,1,.879,1.055" transform="translate(210.231 800.26)" fill="#fff"/>
      <path id="Path_616" data-name="Path 616" d="M62.093,12.587a.567.567,0,0,1,.659-.4.531.531,0,0,1,.483.571.567.567,0,0,1-.659.4.531.531,0,0,1-.483-.571" transform="translate(208.085 799.172)" fill="#fff"/>
      <path id="Path_617" data-name="Path 617" d="M56.8,38.3h0c.483.923-1.1,1.275-1.1,1.275,1.143.176,1.758-.483,1.758-.791A2.845,2.845,0,0,1,56.8,38.3" transform="translate(211.687 784.538)" fill="#fff"/>
      <path id="Path_618" data-name="Path 618" d="M35.378,31.288s.22.264.571.615a14.1,14.1,0,0,0,1.407,1.187,10.75,10.75,0,0,0,1.538.967,2.89,2.89,0,0,0,.527.264,1.848,1.848,0,0,1,.22.088,1.848,1.848,0,0,0-.22-.088,3.021,3.021,0,0,1-.571-.264,13.2,13.2,0,0,1-1.626-.923,11.146,11.146,0,0,1-1.45-1.143,6.446,6.446,0,0,1-.615-.615.134.134,0,0,1,0-.176.336.336,0,0,1,.22.088h0" transform="translate(223.248 788.516)" fill="#fff"/>
      <path id="Path_619" data-name="Path 619" d="M59.951,9.98a2.374,2.374,0,0,0-4-.176.374.374,0,1,1-.571-.483A2.688,2.688,0,0,1,57.446,8.4,2.652,2.652,0,0,1,59.951,9.98" transform="translate(211.896 801.295)" fill="#fff"/>
      <path id="Path_620" data-name="Path 620" d="M53.857,18.446a5.783,5.783,0,0,1-2.945-1.187,6.155,6.155,0,0,1-1.846-2.066c-.044-.132-.044-.308.088-.352a.238.238,0,0,1,.352.088,6.683,6.683,0,0,0,1.758,2.242,6.477,6.477,0,0,0,2.593,1.275" transform="translate(215.422 797.709)" fill="#fff"/>
      <path id="Path_621" data-name="Path 621" d="M49.607,22.3a7.131,7.131,0,0,1-4.615-2.286,9.652,9.652,0,0,1-1.45-2.022.256.256,0,0,1,.44-.264A8.663,8.663,0,0,0,45.7,20.279,6.642,6.642,0,0,0,49.607,22.3" transform="translate(218.535 796.14)" fill="#fff"/>
      <path id="Path_622" data-name="Path 622" d="M37.687,20.485a.25.25,0,0,1,.308.176,9.392,9.392,0,0,0,2.242,3.6,8.33,8.33,0,0,0,5.494,2.461A8.418,8.418,0,0,1,39.8,24.265a9.723,9.723,0,0,1-2.242-3.428.233.233,0,0,1,.132-.352" transform="translate(221.89 794.527)" fill="#fff"/>
      <path id="Path_623" data-name="Path 623" d="M57.775,14.711a2.58,2.58,0,0,0,1.45.44,1.784,1.784,0,0,0,1.89-1.45,2.075,2.075,0,0,1-2.066,1.846,3.063,3.063,0,0,1-1.538-.352.277.277,0,0,1-.132-.352c.132-.132.308-.22.4-.132" transform="translate(210.733 798.323)" fill="#fff"/>
    </g>
  </g>
</svg>
