<svg xmlns="http://www.w3.org/2000/svg" width="64" height="64" viewBox="0 0 64 64">
    <defs>
        <style>
            .cls-1{fill:#051c2c}.cls-2{fill:#ff8f00;fill-rule:evenodd}
        </style>
    </defs>
    <g id="Group_1470" data-name="Group 1470" transform="translate(-921 -3489)">
        <circle id="Ellipse_2943" cx="32" cy="32" r="32" class="cls-1" data-name="Ellipse 2943" transform="translate(921 3489)"/>
        <path id="Path_1555" d="M288.574 85.431c-.107 0-.213.005-.32.013a4.04 4.04 0 0 0-.57 0c-.183.012-.357.032-.534.052l-.213.012-.005.007c-4.467.516-8.572 3.261-8.572 8.085 0 3.643 1.954 6.753 8.774 9.909.4.206.823.415 1.249.633 3.44 1.718 6.617 3.112 6.617 6.068a4.738 4.738 0 0 1-.619 2.375q2.417-2.321 3.082-7.165c-1.16-2.1-3.528-4.073-7.829-6.06-.4-.208-.823-.409-1.251-.625-3.444-1.722-6.615-3.125-6.615-6.081a5.086 5.086 0 0 1 3.165-4.646 10.3 10.3 0 0 1 3.64-.608c7.358 0 9.955 6.11 9.955 14.054 0 7.986-2.6 14.057-9.955 14.057s-9.961-6.071-9.961-14.057a29.6 29.6 0 0 1 .171-3.294 8.534 8.534 0 0 1-1.236-4.559 7.9 7.9 0 0 1 1.877-5.226c-3.736 2.861-5.877 7.574-5.877 13.079 0 9.076 5.814 15.978 15.026 15.978 9.158 0 14.976-6.9 14.976-15.978s-5.818-16.022-14.976-16.022" class="cls-2" data-name="Path 1555" transform="translate(664.452 3419.568)"/>
    </g>
</svg>
