<svg xmlns="http://www.w3.org/2000/svg" width="64" height="64" viewBox="0 0 64 64">
    <defs>
        <style>
            .cls-1{fill:#ebebeb}.cls-2{fill:#e6e7e8}.cls-3{fill:#ff671d}.cls-4{fill:#fff}
        </style>
    </defs>
    <g id="Group_1463" data-name="Group 1463" transform="translate(-1376 -3435)">
        <circle id="Ellipse_2943" cx="32" cy="32" r="32" class="cls-1" data-name="Ellipse 2943" transform="translate(1376 3435)"/>
        <g id="Group_1462" data-name="Group 1462">
            <path id="Path_1556" d="M247.82 228.741h-12.836a7.578 7.578 0 0 0-7.561 7.574v12.85a7.579 7.579 0 0 0 7.561 7.576h12.836a7.578 7.578 0 0 0 7.561-7.576v-12.85a7.576 7.576 0 0 0-7.561-7.574m5.1 20.424a5.108 5.108 0 0 1-5.1 5.108h-12.836a5.1 5.1 0 0 1-4.676-3.084l.445-.39.935-2.662-1.8-3.054v-8.768a5.107 5.107 0 0 1 5.1-5.106h12.832a5.107 5.107 0 0 1 5.1 5.106z" class="cls-2" data-name="Path 1556" transform="translate(1166.098 3224.26)"/>
            <path id="Path_1557" d="M249.279 250.14a2.893 2.893 0 0 0 .909.134c1.37 0 2.014-.542 2.014-1.188 0-.756-1.027-.753-1.134-1.418-.132-.831-.048-4.507 1.383-6.539l.955.431a1.243 1.243 0 0 0 .6.139.94.94 0 0 0 .647-.332 20.552 20.552 0 0 0 2.5-3.438c.118-.241-1.9-2.749-3.024-3.66a4.527 4.527 0 0 0-7.083 2.026 21.534 21.534 0 0 1-6.4 3.026c-3.084.811-6.28.054-8.45.162a4.362 4.362 0 0 0-4.386 4.542c.067 2.4 1.723 4.582 1.723 6.832a2.47 2.47 0 0 1-2.433 2.543c-1.187 0-1.266-.482-1.627-.482a.321.321 0 0 0-.316.314c0 .6 1.468 1.164 2.3 1.164a3.673 3.673 0 0 0 3.152-1.583 2.774 2.774 0 0 0 2.761 1.639c1.749 0 2.506-.833 2.506-1.53 0-.565-.344-.8-.591-1.138a1.867 1.867 0 0 1-.336-1.047 6.492 6.492 0 0 0 .95.062c1.271 0 1.663-.515 1.663-1.02 0-.649-.763-.6-.763-1.671 0-.809.45-1.073.845-1.073.427 0 2.049.154 4.014.355.656.065 2.292.7 2.292 3.229v.911c0 1.543.623 3.455 3.361 3.455 1.859 0 2.9-1.035 2.9-1.781 0-.489-.429-.7-.64-1a2.79 2.79 0 0 1-.313-2.069" class="cls-3" data-name="Path 1557" transform="translate(1166.838 3222.774)"/>
            <path id="Path_1558" d="M268 242.022a.326.326 0 1 0 .326.326.328.328 0 0 0-.326-.326" class="cls-4" data-name="Path 1558" transform="translate(1152.587 3219.816)"/>
            <path id="Path_1559" d="M269.712 240.6a.3.3 0 1 0 .295.3.295.295 0 0 0-.295-.3" class="cls-4" data-name="Path 1559" transform="translate(1152.017 3220.291)"/>
            <path id="Path_1560" d="M270.527 238.974a.244.244 0 1 0 .244.243.244.244 0 0 0-.244-.243" class="cls-4" data-name="Path 1560" transform="translate(1151.734 3220.836)"/>
            <path id="Path_1561" d="M256.585 240.929a.353.353 0 1 0-.353-.352.352.352 0 0 0 .353.352" class="cls-4" data-name="Path 1561" transform="translate(1156.447 3220.417)"/>
            <path id="Path_1562" d="M258.6 253.96a.352.352 0 1 0 .353.353.354.354 0 0 0-.353-.353" class="cls-4" data-name="Path 1562" transform="translate(1155.773 3215.821)"/>
            <path id="Path_1563" d="M261.721 254.483a.352.352 0 1 0 .355.353.353.353 0 0 0-.355-.353" class="cls-4" data-name="Path 1563" transform="translate(1154.729 3215.646)"/>
            <path id="Path_1564" d="M259.034 249.19a.353.353 0 1 0 .353.353.354.354 0 0 0-.353-.353" class="cls-4" data-name="Path 1564" transform="translate(1155.628 3217.417)"/>
            <path id="Path_1565" d="M260.821 245.3a.353.353 0 1 0-.351-.354.354.354 0 0 0 .351.354" class="cls-4" data-name="Path 1565" transform="translate(1155.03 3218.956)"/>
            <path id="Path_1566" d="M252.645 243.179a.353.353 0 1 0-.352-.353.353.353 0 0 0 .352.353" class="cls-4" data-name="Path 1566" transform="translate(1157.765 3219.665)"/>
            <path id="Path_1567" d="M255.577 252.884a.353.353 0 1 0 .352.352.354.354 0 0 0-.352-.352" class="cls-4" data-name="Path 1567" transform="translate(1156.785 3216.181)"/>
            <path id="Path_1568" d="M254.134 245.761a.353.353 0 1 0-.353-.353.353.353 0 0 0 .353.353" class="cls-4" data-name="Path 1568" transform="translate(1157.267 3218.801)"/>
            <path id="Path_1569" d="M250.821 249.087a.353.353 0 1 0 .353.353.353.353 0 0 0-.353-.353" class="cls-4" data-name="Path 1569" transform="translate(1158.375 3217.452)"/>
            <path id="Path_1570" d="M256.241 248.184a.352.352 0 1 0-.351-.351.353.353 0 0 0 .351.351" class="cls-4" data-name="Path 1570" transform="translate(1156.562 3217.99)"/>
            <path id="Path_1571" d="M247.96 243.829a.353.353 0 1 0 .353.353.353.353 0 0 0-.353-.353" class="cls-4" data-name="Path 1571" transform="translate(1159.332 3219.211)"/>
            <path id="Path_1572" d="M249.1 246.552a.352.352 0 1 0 .353.352.352.352 0 0 0-.353-.352" class="cls-4" data-name="Path 1572" transform="translate(1158.95 3218.3)"/>
            <path id="Path_1573" d="M252.94 251.12a.354.354 0 1 0 .353.355.353.353 0 0 0-.353-.355" class="cls-4" data-name="Path 1573" transform="translate(1157.666 3216.771)"/>
            <path id="Path_1574" d="M258.327 243.364a.352.352 0 1 0-.353-.351.354.354 0 0 0 .353.351" class="cls-4" data-name="Path 1574" transform="translate(1155.865 3219.602)"/>
            <path id="Path_1575" d="M262.184 250.194a.353.353 0 1 0 .351.353.352.352 0 0 0-.351-.353" class="cls-4" data-name="Path 1575" transform="translate(1154.574 3217.081)"/>
            <path id="Path_1576" d="M263.5 245.917a.352.352 0 1 0 .353.352.353.353 0 0 0-.353-.352" class="cls-4" data-name="Path 1576" transform="translate(1154.136 3218.512)"/>
            <path id="Path_1577" d="M263.158 241.608a.354.354 0 1 0 .352.354.354.354 0 0 0-.352-.354" class="cls-4" data-name="Path 1577" transform="translate(1154.25 3219.954)"/>
            <path id="Path_1578" d="M265.649 242.413a.352.352 0 1 0 .351.352.352.352 0 0 0-.351-.352" class="cls-4" data-name="Path 1578" transform="translate(1153.365 3219.685)"/>
            <path id="Path_1579" d="M261.29 239.989a.352.352 0 1 0 .352.353.354.354 0 0 0-.352-.353" class="cls-4" data-name="Path 1579" transform="translate(1154.875 3220.496)"/>
            <path id="Path_1580" d="M260.258 238.013a.353.353 0 1 0 .354.352.353.353 0 0 0-.354-.352" class="cls-4" data-name="Path 1580" transform="translate(1155.219 3221.157)"/>
            <path id="Path_1581" d="M262.43 238.013a.353.353 0 1 0 .354.352.353.353 0 0 0-.354-.352" class="cls-4" data-name="Path 1581" transform="translate(1154.492 3221.157)"/>
            <path id="Path_1582" d="M260.123 236.435a.294.294 0 1 1 .294.3.295.295 0 0 1-.294-.3" class="cls-4" data-name="Path 1582" transform="translate(1155.147 3221.84)"/>
            <path id="Path_1583" d="M261.425 234.88a.22.22 0 1 1 .221.223.222.222 0 0 1-.221-.223" class="cls-4" data-name="Path 1583" transform="translate(1154.713 3222.324)"/>
            <path id="Path_1584" d="M263.115 234.14a.2.2 0 1 1 .193.194.195.195 0 0 1-.193-.194" class="cls-4" data-name="Path 1584" transform="translate(1154.148 3222.557)"/>
            <path id="Path_1585" d="M270.316 237.763a.178.178 0 1 1 .178.177.178.178 0 0 1-.178-.177" class="cls-4" data-name="Path 1585" transform="translate(1151.724 3221.301)"/>
            <path id="Path_1586" d="M269.941 242.993a.2.2 0 0 1 .186-.2.193.193 0 0 1 .017.386.2.2 0 0 1-.2-.185" class="cls-4" data-name="Path 1586" transform="translate(1151.846 3219.559)"/>
            <path id="Path_1587" d="M270.685 241.98a.19.19 0 0 1 .184-.2.192.192 0 1 1-.184.2" class="cls-4" data-name="Path 1587" transform="translate(1151.603 3219.898)"/>
            <path id="Path_1588" d="M269.156 244a.192.192 0 0 1 .384-.019.192.192 0 0 1-.384.019" class="cls-4" data-name="Path 1588" transform="translate(1152.103 3219.224)"/>
            <path id="Path_1589" d="M268.267 244.934a.192.192 0 1 1 .2.183.192.192 0 0 1-.2-.183" class="cls-4" data-name="Path 1589" transform="translate(1152.394 3218.91)"/>
            <path id="Path_1590" d="M271.365 240.974a.191.191 0 1 1 .2.186.193.193 0 0 1-.2-.186" class="cls-4" data-name="Path 1590" transform="translate(1151.38 3220.234)"/>
            <path id="Path_1591" d="M271.89 240.089a.192.192 0 1 1 .2.187.194.194 0 0 1-.2-.187" class="cls-4" data-name="Path 1591" transform="translate(1151.209 3220.53)"/>
            <path id="Path_1592" d="M238.446 258.924a5.723 5.723 0 0 1-.4-4.519 3.718 3.718 0 0 1 3.821-2.2 3.288 3.288 0 0 0-1.5-.292 3.729 3.729 0 0 0-3.412 4.011 4 4 0 0 0 1.486 3" class="cls-4" data-name="Path 1592" transform="translate(1162.88 3216.455)"/>
            <path id="Path_1593" d="M231.655 249.224a3.052 3.052 0 0 1-.9-2.165 3.125 3.125 0 0 1 3.065-3.065c1.741-.095 4.94.429 6.979.16.7 3.149 3.832 6.209 6.284 7.6-2.912-1.3-5.7-4.246-8.139-5.6-2.547-1.412-5.1-1.623-6.441-.389a3.489 3.489 0 0 0-.849 3.457" class="cls-4" data-name="Path 1593" transform="translate(1165.008 3219.121)"/>
            <path id="Path_1594" d="M242.085 256.495c.157.908-1.48 1.2-1.48 1.2a1.98 1.98 0 0 0 2.045-.534z" class="cls-4" data-name="Path 1594" transform="translate(1161.668 3214.969)"/>
            <path id="Path_1595" d="M259.44 257.213v-.013a4.846 4.846 0 0 0-.3 3.883 4.42 4.42 0 0 1-1.725.876s2.246.289 2.949-.906c-1.357-1.05-.952-3.665-.923-3.842" class="cls-4" data-name="Path 1595" transform="translate(1156.034 3214.699)"/>
            <path id="Path_1596" d="M266.191 235.878a1.361 1.361 0 1 0 1.344 1.606 1.491 1.491 0 0 0-1.344-1.606m1.1 1.546a1.162 1.162 0 1 1-.951-1.138 1.055 1.055 0 0 1 .951 1.138" class="cls-4" data-name="Path 1596" transform="translate(1153.675 3221.878)"/>
            <path id="Path_1597" d="M266.964 237.654a.643.643 0 1 1 .526.628.584.584 0 0 1-.526-.628" class="cls-4" data-name="Path 1597" transform="translate(1152.823 3221.416)"/>
            <path id="Path_1598" d="M263.672 255.331c.538 1-1.186 1.368-1.186 1.368 1.2.2 1.885-.568 1.885-.887-.256-1.082-.54-.259-.7-.481" class="cls-4" data-name="Path 1598" transform="translate(1154.345 3215.387)"/>
            <path id="Path_1599" d="M267.174 236.243a2.526 2.526 0 0 0-4.262-.2.41.41 0 1 1-.633-.52 2.983 2.983 0 0 1 2.215-.986 2.92 2.92 0 0 1 2.681 1.707" class="cls-4" data-name="Path 1599" transform="translate(1154.383 3222.364)"/>
            <path id="Path_1600" d="M263.033 242.917a5.966 5.966 0 0 1-3.145-1.269 6.478 6.478 0 0 1-1.961-2.219.271.271 0 0 1 .1-.369.265.265 0 0 1 .371.1 7.3 7.3 0 0 0 1.861 2.38 6.332 6.332 0 0 0 2.777 1.381" class="cls-4" data-name="Path 1600" transform="translate(1155.854 3220.81)"/>
            <path id="Path_1601" d="M260.589 246.041a7.864 7.864 0 0 1-4.932-2.428 8.03 8.03 0 0 1-1.532-2.175.268.268 0 0 1 .1-.367.263.263 0 0 1 .368.106 9.181 9.181 0 0 0 1.818 2.715 7.262 7.262 0 0 0 4.173 2.148" class="cls-4" data-name="Path 1601" transform="translate(1157.116 3220.128)"/>
            <path id="Path_1602" d="M250.055 242.974a.275.275 0 0 1 .343.167 9.837 9.837 0 0 0 2.4 3.843 8.876 8.876 0 0 0 5.834 2.613 8.9 8.9 0 0 1-6.332-2.635 10.332 10.332 0 0 1-2.41-3.644.272.272 0 0 1 .168-.343" class="cls-4" data-name="Path 1602" transform="translate(1158.512 3219.473)"/>
            <path id="Path_1603" d="M264.161 239.348a3.018 3.018 0 0 0 1.565.485 1.914 1.914 0 0 0 2.028-1.568 2.177 2.177 0 0 1-2.219 1.962 3 3 0 0 1-1.62-.39.276.276 0 0 1-.121-.367.264.264 0 0 1 .367-.122" class="cls-4" data-name="Path 1603" transform="translate(1153.866 3221.07)"/>
        </g>
    </g>
</svg>
