<svg xmlns="http://www.w3.org/2000/svg" width="64" height="64" viewBox="0 0 64 64">
    <defs>
        <style>
            .cls-1{fill:#646469}.cls-2{fill:#fff}
        </style>
    </defs>
    <g id="Group_1471" data-name="Group 1471" transform="translate(-1154 -3489)">
        <circle id="Ellipse_2943" cx="32" cy="32" r="32" class="cls-1" data-name="Ellipse 2943" transform="translate(1154 3489)"/>
        <g id="Group_1274" data-name="Group 1274" transform="translate(796 3443)">
            <path id="Path_575" d="M30.83 5.231C30.611 4.88 27.326 0 21.633 0H9.459a7.153 7.153 0 0 0-7.138 7.166v13.408c0 .4-.613.176-.613.176a1.875 1.875 0 0 0-.526-.088A1.18 1.18 0 0 0 0 21.849c0 1.407 2.19 1.978 3.065 1.978a3.992 3.992 0 0 0 .744-.044 7.217 7.217 0 0 0 5.649 2.77H21.59a7.153 7.153 0 0 0 7.138-7.166v-7.341s1.489-1.89 1.664-2.066 1.182-1.627 1.489-2.242.044-.879-1.051-2.506" class="cls-2" data-name="Path 575" transform="translate(374 65)"/>
            <path id="Path_576" d="M24.81 22.543a2.623 2.623 0 0 0 .876.132c1.313 0 1.883-.527 1.883-1.143 0-.7-.963-.7-1.051-1.363-.131-.791-.044-4.307 1.313-6.241l.919.4a1.421 1.421 0 0 0 .569.132.827.827 0 0 0 .613-.308A17.776 17.776 0 0 0 32.3 10.9c.131-.22-1.8-2.637-2.846-3.472A4.369 4.369 0 0 0 26.78 6.5a4.227 4.227 0 0 0-4.028 2.857 20.42 20.42 0 0 1-6.042 2.9c-2.933.791-5.954.044-7.968.176a4.159 4.159 0 0 0-4.159 4.307c.044 2.286 1.62 4.351 1.62 6.505a2.348 2.348 0 0 1-2.32 2.417c-1.138 0-1.182-.44-1.532-.44a.281.281 0 0 0-.35.264c0 .571 1.4 1.1 2.189 1.1a3.471 3.471 0 0 0 2.977-1.494 2.617 2.617 0 0 0 2.627 1.538c1.664 0 2.364-.791 2.364-1.45 0-.527-.306-.747-.569-1.1a1.6 1.6 0 0 1-.306-1.011 7.776 7.776 0 0 0 .876.044c1.182 0 1.576-.483 1.576-.967 0-.615-.7-.571-.7-1.582 0-.791.438-1.011.788-1.011.394 0 1.926.132 3.809.352.613.044 2.145.659 2.145 3.077v.879c0 1.45.569 3.3 3.2 3.3 1.751 0 2.758-.967 2.758-1.714 0-.483-.394-.659-.613-.967a2.279 2.279 0 0 1-.306-1.934" class="cls-1" data-name="Path 576" transform="translate(372.88 61.359)"/>
            <path id="Path_577" d="M63.408 19.1a.308.308 0 1 0 .308.308.3.3 0 0 0-.308-.308" class="cls-2" data-name="Path 577" transform="translate(338.513 54.297)"/>
            <path id="Path_578" d="M65.864 17a.264.264 0 1 0 .264.264.254.254 0 0 0-.264-.264" class="cls-2" data-name="Path 578" transform="translate(337.113 55.473)"/>
            <path id="Path_579" d="M67.12 14.7a.22.22 0 1 0 .22.22.236.236 0 0 0-.22-.22" class="cls-2" data-name="Path 579" transform="translate(336.385 56.762)"/>
            <path id="Path_580" d="M46.952 17.1a.352.352 0 1 0-.352-.352c.044.22.176.352.352.352" class="cls-2" data-name="Path 580" transform="translate(347.805 55.81)"/>
            <path id="Path_581" d="M49.908 36.2a.314.314 0 0 0-.308.352.34.34 0 0 0 .308.352.347.347 0 0 0 .352-.352c-.044-.176-.176-.352-.352-.352" class="cls-2" data-name="Path 581" transform="translate(346.119 44.714)"/>
            <path id="Path_582" d="M54.352 37a.352.352 0 1 0 .352.352c-.044-.22-.176-.352-.352-.352" class="cls-2" data-name="Path 582" transform="translate(343.646 44.266)"/>
            <path id="Path_583" d="M50.452 29.4a.352.352 0 1 0 0 .7.324.324 0 0 0 .352-.352.347.347 0 0 0-.352-.352" class="cls-2" data-name="Path 583" transform="translate(345.838 48.525)"/>
            <path id="Path_584" d="M53.1 23.4a.352.352 0 0 0 0-.7.355.355 0 0 0 0 .7" class="cls-2" data-name="Path 584" transform="translate(344.329 52.279)"/>
            <path id="Path_585" d="M41.252 20.3a.352.352 0 1 0-.352-.352c.044.22.176.352.352.352" class="cls-2" data-name="Path 585" transform="translate(351.009 54.016)"/>
            <path id="Path_586" d="M45.552 34.7a.352.352 0 1 0 .352.352c-.044-.22-.176-.352-.352-.352" class="cls-2" data-name="Path 586" transform="translate(348.592 45.555)"/>
            <path id="Path_587" d="M43.452 24a.314.314 0 0 0 .308-.352.34.34 0 0 0-.308-.352.352.352 0 0 0 0 .7" class="cls-2" data-name="Path 587" transform="translate(349.773 51.943)"/>
            <path id="Path_588" d="M38.652 29.2a.352.352 0 1 0 .352.352.378.378 0 0 0-.352-.352" class="cls-2" data-name="Path 588" transform="translate(352.471 48.637)"/>
            <path id="Path_589" d="M46.452 27.5a.352.352 0 1 0-.352-.352c.044.22.176.352.352.352" class="cls-2" data-name="Path 589" transform="translate(348.086 49.982)"/>
            <path id="Path_590" d="M34.552 21.7a.352.352 0 1 0 .352.352.347.347 0 0 0-.352-.352" class="cls-2" data-name="Path 590" transform="translate(354.776 52.84)"/>
            <path id="Path_591" d="M36.252 25.6a.352.352 0 1 0 .352.352c-.044-.22-.176-.352-.352-.352" class="cls-2" data-name="Path 591" transform="translate(353.82 50.654)"/>
            <path id="Path_592" d="M41.752 32.1a.352.352 0 1 0 .352.352c-.044-.176-.176-.352-.352-.352" class="cls-2" data-name="Path 592" transform="translate(350.728 47.012)"/>
            <path id="Path_593" d="M49.452 20.6a.352.352 0 1 0-.352-.352c.044.22.176.352.352.352" class="cls-2" data-name="Path 593" transform="translate(346.4 53.848)"/>
            <path id="Path_594" d="M54.952 30.8a.352.352 0 1 0 .352.352.347.347 0 0 0-.352-.352" class="cls-2" data-name="Path 594" transform="translate(343.308 47.74)"/>
            <path id="Path_595" d="M56.852 24.7a.352.352 0 0 0 0 .7.324.324 0 0 0 .352-.352.347.347 0 0 0-.352-.352" class="cls-2" data-name="Path 595" transform="translate(342.24 51.158)"/>
            <path id="Path_596" d="M56.352 18.5a.352.352 0 1 0 .352.352.324.324 0 0 0-.352-.352" class="cls-2" data-name="Path 596" transform="translate(342.521 54.633)"/>
            <path id="Path_597" d="M59.952 19.6a.352.352 0 1 0 .352.352.378.378 0 0 0-.352-.352" class="cls-2" data-name="Path 597" transform="translate(340.473 54.016)"/>
            <path id="Path_598" d="M53.752 16.2a.352.352 0 1 0 .352.352c-.044-.22-.176-.352-.352-.352" class="cls-2" data-name="Path 598" transform="translate(343.983 55.922)"/>
            <path id="Path_599" d="M52.252 13.3a.352.352 0 1 0 .352.352c-.044-.176-.176-.352-.352-.352" class="cls-2" data-name="Path 599" transform="translate(344.826 57.547)"/>
            <path id="Path_600" d="M55.352 13.3a.352.352 0 1 0 .352.352.378.378 0 0 0-.352-.352" class="cls-2" data-name="Path 600" transform="translate(343.083 57.547)"/>
            <path id="Path_601" d="M52.2 10.964a.284.284 0 0 1 .264-.264.254.254 0 0 1 .264.264.264.264 0 1 1-.528 0" class="cls-2" data-name="Path 601" transform="translate(344.658 59.007)"/>
            <path id="Path_602" d="M54.1 8.72a.22.22 0 1 1 .22.22.236.236 0 0 1-.22-.22" class="cls-2" data-name="Path 602" transform="translate(343.59 60.239)"/>
            <path id="Path_603" d="M56.5 7.676a.176.176 0 1 1 .176.176.189.189 0 0 1-.176-.176" class="cls-2" data-name="Path 603" transform="translate(342.242 60.799)"/>
            <path id="Path_604" d="M66.9 12.876a.176.176 0 1 1 .176.176.189.189 0 0 1-.176-.176" class="cls-2" data-name="Path 604" transform="translate(336.385 57.883)"/>
            <path id="Path_605" d="M66.3 20.376a.176.176 0 1 1 .176.176c-.044 0-.132-.088-.176-.176" class="cls-2" data-name="Path 605" transform="translate(336.721 53.68)"/>
            <path id="Path_606" d="M67.4 18.976a.176.176 0 1 1 .176.176.189.189 0 0 1-.176-.176" class="cls-2" data-name="Path 606" transform="translate(336.105 54.465)"/>
            <path id="Path_607" d="M65.2 21.876a.176.176 0 1 1 .176.176.189.189 0 0 1-.176-.176" class="cls-2" data-name="Path 607" transform="translate(337.337 52.84)"/>
            <path id="Path_608" d="M63.9 23.176a.176.176 0 1 1 .176.176c-.088 0-.132-.088-.176-.176" class="cls-2" data-name="Path 608" transform="translate(338.065 52.111)"/>
            <path id="Path_609" d="M68.4 17.476a.176.176 0 1 1 .176.176.189.189 0 0 1-.176-.176" class="cls-2" data-name="Path 609" transform="translate(335.545 55.305)"/>
            <path id="Path_610" d="M69.1 16.176a.176.176 0 1 1 .176.176c-.088 0-.132-.044-.176-.176" class="cls-2" data-name="Path 610" transform="translate(335.153 56.034)"/>
            <path id="Path_611" d="M20.3 39.944a5.328 5.328 0 0 1-.4-4.223 3.518 3.518 0 0 1 3.607-2.068 3.091 3.091 0 0 0-1.408-.264 3.518 3.518 0 0 0-3.199 3.783 4.05 4.05 0 0 0 1.4 2.772" class="cls-2" data-name="Path 611" transform="translate(363.375 46.291)"/>
            <path id="Path_612" d="M10.936 26.869a2.824 2.824 0 0 1-.836-2.024 2.911 2.911 0 0 1 2.859-2.859c1.628-.088 4.619.4 6.555.132.66 2.947 2.859 5.015 4.487 6.335-1.98-.88-3.959-3.211-6.247-4.487-2.376-1.32-4.8-1.54-6.071-.352a3.287 3.287 0 0 0-.748 3.255" class="cls-2" data-name="Path 612" transform="translate(368.343 52.683)"/>
            <path id="Path_613" d="M25.608 39.9c.132.836-1.408 1.144-1.408 1.144 1.408.264 1.848-.484 1.848-.484a3.359 3.359 0 0 0-.44-.66" class="cls-2" data-name="Path 613" transform="translate(360.395 42.64)"/>
            <path id="Path_614" d="M50.292 40.9a4.41 4.41 0 0 0-.264 3.651 4.75 4.75 0 0 1-1.628.836s2.112.264 2.771-.836c-1.32-1.012-.924-3.475-.88-3.651" class="cls-2" data-name="Path 614" transform="translate(346.786 42.078)"/>
            <path id="Path_615" d="M59.992 10.268a1.4 1.4 0 0 0-1.716.968 1.366 1.366 0 0 0 1.276 1.5 1.4 1.4 0 0 0 1.716-.968 1.366 1.366 0 0 0-1.276-1.5m1.056 1.452a1.021 1.021 0 0 1-1.232.7.968.968 0 0 1-.88-1.056 1.021 1.021 0 0 1 1.232-.7.968.968 0 0 1 .88 1.056" class="cls-2" data-name="Path 615" transform="translate(341.226 59.26)"/>
            <path id="Path_616" d="M62.093 12.587a.567.567 0 0 1 .66-.4.531.531 0 0 1 .484.572.567.567 0 0 1-.66.4.531.531 0 0 1-.484-.572" class="cls-2" data-name="Path 616" transform="translate(339.08 58.172)"/>
            <path id="Path_617" d="M56.8 38.3c.484.924-1.1 1.276-1.1 1.276 1.144.176 1.76-.484 1.76-.792a2.848 2.848 0 0 1-.66-.484" class="cls-2" data-name="Path 617" transform="translate(342.686 43.537)"/>
            <path id="Path_618" d="M35.378 31.288s.22.264.572.616a14.115 14.115 0 0 0 1.408 1.188 10.759 10.759 0 0 0 1.54.968 2.892 2.892 0 0 0 .528.264 1.85 1.85 0 0 1 .22.088 1.85 1.85 0 0 0-.22-.088 3.023 3.023 0 0 1-.572-.264 13.214 13.214 0 0 1-1.628-.924 11.155 11.155 0 0 1-1.452-1.144 6.452 6.452 0 0 1-.616-.616.134.134 0 0 1 0-.176.336.336 0 0 1 .22.088" class="cls-2" data-name="Path 618" transform="translate(354.246 47.515)"/>
            <path id="Path_619" d="M59.955 9.981a2.376 2.376 0 0 0-4-.176.375.375 0 1 1-.572-.484 2.691 2.691 0 0 1 2.065-.921 2.654 2.654 0 0 1 2.508 1.584" class="cls-2" data-name="Path 619" transform="translate(342.89 60.298)"/>
            <path id="Path_620" d="M53.862 18.449a5.788 5.788 0 0 1-2.947-1.188 6.16 6.16 0 0 1-1.848-2.068c-.044-.132-.044-.308.088-.352a.238.238 0 0 1 .352.088 6.689 6.689 0 0 0 1.76 2.244 6.482 6.482 0 0 0 2.6 1.276" class="cls-2" data-name="Path 620" transform="translate(346.418 56.708)"/>
            <path id="Path_621" d="M49.613 22.3a7.137 7.137 0 0 1-4.619-2.288 9.66 9.66 0 0 1-1.452-2.024.257.257 0 1 1 .44-.264 8.67 8.67 0 0 0 1.718 2.557 6.648 6.648 0 0 0 3.913 2.019" class="cls-2" data-name="Path 621" transform="translate(349.532 55.138)"/>
            <path id="Path_622" d="M37.687 20.485a.25.25 0 0 1 .308.176 9.4 9.4 0 0 0 2.244 3.607 8.337 8.337 0 0 0 5.5 2.464 8.425 8.425 0 0 1-5.939-2.463 9.731 9.731 0 0 1-2.244-3.431.233.233 0 0 1 .132-.352" class="cls-2" data-name="Path 622" transform="translate(352.886 53.525)"/>
            <path id="Path_623" d="M57.775 14.712a2.583 2.583 0 0 0 1.452.44 1.786 1.786 0 0 0 1.891-1.452 2.076 2.076 0 0 1-2.068 1.848 3.066 3.066 0 0 1-1.54-.352.277.277 0 0 1-.132-.352c.132-.132.308-.22.4-.132" class="cls-2" data-name="Path 623" transform="translate(341.727 57.322)"/>
        </g>
    </g>
</svg>
